<svg width="157.729mm" height="107.657mm" viewBox="0 0 157.729 107.657" xmlns="http://www.w3.org/2000/svg"><g id="svgGroup" stroke-linecap="round" fill-rule="evenodd" font-size="9pt" stroke="#000" stroke-width="0.25mm" fill="none" style="stroke:#000;stroke-width:0.25mm;fill:none"><path d="M 13.373 93.387 L 0.194 47.424 A 5 5 0 0 1 1.827 42.182 L 37.515 12.877 A 5 5 0 0 1 38.587 12.204 L 60.658 1.978 A 5 5 0 0 1 62.411 1.527 L 84.075 0.012 A 5 5 0 0 1 85.579 0.135 L 109.459 5.807 A 5 5 0 0 0 110.615 5.942 L 152.729 5.942 A 5 5 0 0 1 157.729 10.942 L 157.729 67.548 A 5 5 0 0 1 157.651 68.429 L 156.172 76.693 A 5 5 0 0 1 155.744 78.004 L 147.093 95.742 A 5 5 0 0 1 144.876 98.001 L 127.071 107.109 A 5 5 0 0 1 123.848 107.567 L 86.474 100.361 A 5 5 0 0 1 83.525 98.586 L 72.78 85.231 A 5 5 0 0 0 67.676 83.513 L 54.633 86.76 A 5 5 0 0 0 54.463 86.806 L 19.558 96.815 A 5 5 0 0 1 13.373 93.387 Z" vector-effect="non-scaling-stroke"/></g></svg>