<svg width="155.672mm" height="107.931mm" viewBox="0 0 155.672 107.931" xmlns="http://www.w3.org/2000/svg"><g id="svgGroup" stroke-linecap="round" fill-rule="evenodd" font-size="9pt" stroke="#000" stroke-width="0.25mm" fill="none" style="stroke:#000;stroke-width:0.25mm;fill:none"><path d="M 13.274 85.14 L 0.194 39.523 A 5 5 0 0 1 2.216 33.991 L 38.716 9.53 A 5 5 0 0 1 40.003 8.912 L 62.712 1.79 A 5 5 0 0 1 63.86 1.573 L 86.183 0.012 A 5 5 0 0 1 87.048 0.027 L 111.314 2.547 A 5 5 0 0 0 111.831 2.573 L 150.672 2.573 A 5 5 0 0 1 155.672 7.573 L 155.672 64.349 A 5 5 0 0 1 155.642 64.896 L 154.333 76.788 A 5 5 0 0 1 153.857 78.433 L 145.281 96.016 A 5 5 0 0 1 143.064 98.275 L 125.26 107.383 A 5 5 0 0 1 122.036 107.841 L 84.663 100.635 A 5 5 0 0 1 81.714 98.86 L 69.925 84.207 A 5 5 0 0 0 67.503 82.564 L 55.871 78.974 A 5 5 0 0 0 53.018 78.945 L 19.459 88.568 A 5 5 0 0 1 13.274 85.14 Z" vector-effect="non-scaling-stroke"/></g></svg>