<svg width="157.729mm" height="107.657mm" viewBox="0 0 157.729 107.657" xmlns="http://www.w3.org/2000/svg"><g id="svgGroup" stroke-linecap="round" fill-rule="evenodd" font-size="9pt" stroke="#000" stroke-width="0.25mm" fill="none" style="stroke:#000;stroke-width:0.25mm;fill:none"><path d="M 13.373 93.387 L 0.194 47.424 A 5 5 0 0 1 1.827 42.182 L 37.515 12.877 A 5 5 0 0 1 38.587 12.204 L 60.658 1.978 A 5 5 0 0 1 62.411 1.527 L 84.075 0.012 A 5 5 0 0 1 85.579 0.135 L 109.459 5.807 A 5 5 0 0 0 110.615 5.942 L 152.729 5.942 A 5 5 0 0 1 157.729 10.942 L 157.729 67.548 A 5 5 0 0 1 157.651 68.429 L 156.172 76.693 A 5 5 0 0 1 155.744 78.004 L 147.093 95.742 A 5 5 0 0 1 144.876 98.001 L 127.071 107.109 A 5 5 0 0 1 123.848 107.567 L 86.474 100.361 A 5 5 0 0 1 83.525 98.586 L 72.78 85.231 A 5 5 0 0 0 67.676 83.513 L 54.633 86.76 A 5 5 0 0 0 54.463 86.806 L 19.558 96.815 A 5 5 0 0 1 13.373 93.387 Z M 48.139 65.119 L 65.954 62.616 L 63.589 45.791 L 45.774 48.295 L 48.139 65.119 Z M 45.773 48.285 L 63.588 45.781 L 61.223 28.957 L 43.408 31.46 L 45.773 48.285 Z M 43.407 31.45 L 61.222 28.947 L 58.857 12.122 L 41.042 14.626 L 43.407 31.45 Z M 67.927 54.817 L 85.873 53.562 L 84.688 36.614 L 66.742 37.868 L 67.927 54.817 Z M 66.741 37.859 L 84.687 36.604 L 83.502 19.655 L 65.556 20.91 L 66.741 37.859 Z M 65.555 20.9 L 83.501 19.645 L 82.316 2.696 L 64.37 3.951 L 65.555 20.9 Z M 73.297 80.004 L 91.243 78.749 L 90.058 61.8 L 72.112 63.055 L 73.297 80.004 Z M 128.881 85.873 L 145.05 93.759 L 152.498 78.489 L 136.329 70.602 L 128.881 85.873 Z M 89.334 59.487 L 107.324 59.487 L 107.324 42.497 L 89.334 42.497 L 89.334 59.487 Z M 89.334 42.487 L 107.324 42.487 L 107.324 25.497 L 89.334 25.497 L 89.334 42.487 Z M 89.334 25.487 L 107.324 25.487 L 107.324 8.497 L 89.334 8.497 L 89.334 25.487 Z M 107.334 59.487 L 125.324 59.487 L 125.324 42.497 L 107.334 42.497 L 107.334 59.487 Z M 107.334 42.487 L 125.324 42.487 L 125.324 25.497 L 107.334 25.497 L 107.334 42.487 Z M 107.334 25.487 L 125.324 25.487 L 125.324 8.497 L 107.334 8.497 L 107.334 25.487 Z M 92.073 78.7 L 109.965 80.58 L 111.741 63.683 L 93.849 61.803 L 92.073 78.7 Z M 87.632 97.756 L 105.523 99.637 L 107.299 82.74 L 89.408 80.859 L 87.632 97.756 Z M 16.647 94.991 L 33.941 90.033 L 29.257 73.701 L 11.964 78.66 L 16.647 94.991 Z M 11.962 78.65 L 29.255 73.691 L 24.572 57.359 L 7.279 62.318 L 11.962 78.65 Z M 33.95 90.03 L 51.243 85.071 L 46.56 68.739 L 29.267 73.698 L 33.95 90.03 Z M 29.264 73.688 L 46.557 68.73 L 41.874 52.398 L 24.581 57.357 L 29.264 73.688 Z M 110.791 80.676 L 128.084 85.635 L 132.767 69.303 L 115.474 64.344 L 110.791 80.676 Z M 106.349 99.732 L 123.642 104.691 L 128.325 88.359 L 111.032 83.401 L 106.349 99.732 Z M 7.276 62.309 L 24.569 57.35 L 19.886 41.018 L 2.593 45.977 L 7.276 62.309 Z M 24.578 57.347 L 41.872 52.388 L 37.189 36.056 L 19.895 41.015 L 24.578 57.347 Z" vector-effect="non-scaling-stroke"/></g></svg>