<svg width="155.672mm" height="107.931mm" viewBox="0 0 155.672 107.931" xmlns="http://www.w3.org/2000/svg"><g id="svgGroup" stroke-linecap="round" fill-rule="evenodd" font-size="9pt" stroke="#000" stroke-width="0.25mm" fill="none" style="stroke:#000;stroke-width:0.25mm;fill:none"><path d="M 13.274 85.14 L 0.194 39.523 A 5 5 0 0 1 2.216 33.991 L 38.716 9.53 A 5 5 0 0 1 40.003 8.912 L 62.712 1.79 A 5 5 0 0 1 63.86 1.573 L 86.183 0.012 A 5 5 0 0 1 87.048 0.027 L 111.314 2.547 A 5 5 0 0 0 111.831 2.573 L 150.672 2.573 A 5 5 0 0 1 155.672 7.573 L 155.672 64.349 A 5 5 0 0 1 155.642 64.896 L 154.333 76.788 A 5 5 0 0 1 153.857 78.433 L 145.281 96.016 A 5 5 0 0 1 143.064 98.275 L 125.26 107.383 A 5 5 0 0 1 122.036 107.841 L 84.663 100.635 A 5 5 0 0 1 81.714 98.86 L 69.925 84.207 A 5 5 0 0 0 67.503 82.564 L 55.871 78.974 A 5 5 0 0 0 53.018 78.945 L 19.459 88.568 A 5 5 0 0 1 13.274 85.14 Z M 49.446 61.776 L 67.261 59.272 L 64.896 42.447 L 47.081 44.951 L 49.446 61.776 Z M 47.08 44.941 L 64.895 42.437 L 62.53 25.613 L 44.715 28.116 L 47.08 44.941 Z M 44.714 28.106 L 62.529 25.603 L 60.164 8.778 L 42.349 11.282 L 44.714 28.106 Z M 69.707 54.84 L 87.653 53.585 L 86.468 36.637 L 68.522 37.891 L 69.707 54.84 Z M 68.521 37.881 L 86.467 36.627 L 85.282 19.678 L 67.336 20.933 L 68.521 37.881 Z M 67.335 20.923 L 85.281 19.668 L 84.096 2.719 L 66.15 3.974 L 67.335 20.923 Z M 71.486 80.278 L 89.432 79.023 L 88.247 62.074 L 70.3 63.329 L 71.486 80.278 Z M 127.069 86.147 L 143.239 94.033 L 150.687 78.763 L 134.517 70.876 L 127.069 86.147 Z M 90.877 56.118 L 108.867 56.118 L 108.867 39.128 L 90.877 39.128 L 90.877 56.118 Z M 90.877 39.118 L 108.867 39.118 L 108.867 22.128 L 90.877 22.128 L 90.877 39.118 Z M 90.877 22.118 L 108.867 22.118 L 108.867 5.128 L 90.877 5.128 L 90.877 22.118 Z M 108.877 56.118 L 126.867 56.118 L 126.867 39.128 L 108.877 39.128 L 108.877 56.118 Z M 108.877 39.118 L 126.867 39.118 L 126.867 22.128 L 108.877 22.128 L 108.877 39.118 Z M 108.877 22.118 L 126.867 22.118 L 126.867 5.128 L 108.877 5.128 L 108.877 22.118 Z M 90.262 78.974 L 108.153 80.854 L 109.929 63.958 L 92.038 62.077 L 90.262 78.974 Z M 85.82 98.03 L 103.712 99.911 L 105.488 83.014 L 87.596 81.133 L 85.82 98.03 Z M 16.548 86.745 L 33.842 81.786 L 29.158 65.454 L 11.865 70.413 L 16.548 86.745 Z M 11.863 70.404 L 29.156 65.445 L 24.473 49.113 L 7.18 54.072 L 11.863 70.404 Z M 33.851 81.784 L 51.144 76.825 L 46.461 60.493 L 29.168 65.452 L 33.851 81.784 Z M 29.165 65.442 L 46.458 60.483 L 41.775 44.152 L 24.482 49.11 L 29.165 65.442 Z M 108.979 80.95 L 126.273 85.909 L 130.956 69.577 L 113.662 64.618 L 108.979 80.95 Z M 104.538 100.007 L 121.831 104.965 L 126.514 88.633 L 109.221 83.675 L 104.538 100.007 Z M 7.177 54.062 L 24.47 49.103 L 19.787 32.772 L 2.494 37.73 L 7.177 54.062 Z M 24.48 49.101 L 41.773 44.142 L 37.09 27.81 L 19.796 32.769 L 24.48 49.101 Z" vector-effect="non-scaling-stroke"/></g></svg>