0
SECTION
2
HEADER
9
$INSUNITS
70
4
0
ENDSEC
0
SECTION
2
TABLES
0
TABLE
2
LTYPE
0
LTYPE
72
65
70
0
2
CONTINUOUS
3
______
73
0
40
0
0
LTYPE
72
65
70
0
2
DASHED
3
_ _ _ 
73
2
40
7.5
49
5
49
-2.5
0
LTYPE
72
65
70
0
2
DOTTED
3
. . . 
73
2
40
1.5
49
0.5
49
-1
0
ENDTAB
0
TABLE
2
LAYER
0
ENDTAB
0
ENDSEC
0
SECTION
2
ENTITIES
0
LINE
8
0
6
CONTINUOUS
10
143.6949904
20
-160.6452761
11
160.9880883
21
-155.6865601
0
LINE
8
0
6
CONTINUOUS
10
160.9880883
20
-155.6865601
11
156.3050096
21
-139.3547239
0
LINE
8
0
6
CONTINUOUS
10
156.3050096
20
-139.3547239
11
139.0119117
21
-144.3134399
0
LINE
8
0
6
CONTINUOUS
10
139.0119117
20
-144.3134399
11
143.6949904
21
-160.6452761
0
LINE
8
0
6
CONTINUOUS
10
139.0091554
20
-144.3038273
11
156.3022533
21
-139.3451113
0
LINE
8
0
6
CONTINUOUS
10
156.3022533
20
-139.3451113
11
151.6191746
21
-123.0132751
0
LINE
8
0
6
CONTINUOUS
10
151.6191746
20
-123.0132751
11
134.3260767
21
-127.9719911
0
LINE
8
0
6
CONTINUOUS
10
134.3260767
20
-127.9719911
11
139.0091554
21
-144.3038273
0
LINE
8
0
6
CONTINUOUS
10
134.3233204
20
-127.9623785
11
151.6164183
21
-123.0036625
0
LINE
8
0
6
CONTINUOUS
10
151.6164183
20
-123.0036625
11
146.9333396
21
-106.6718263
0
LINE
8
0
6
CONTINUOUS
10
146.9333396
20
-106.6718263
11
129.6402417
21
-111.6305423
0
LINE
8
0
6
CONTINUOUS
10
129.6402417
20
-111.6305423
11
134.3233204
21
-127.9623785
0
LINE
8
0
6
CONTINUOUS
10
160.9977009
20
-155.6838037
11
178.2907988
21
-150.7250877
0
LINE
8
0
6
CONTINUOUS
10
178.2907988
20
-150.7250877
11
173.6077201
21
-134.3932515
0
LINE
8
0
6
CONTINUOUS
10
173.6077201
20
-134.3932515
11
156.3146222
21
-139.3519675
0
LINE
8
0
6
CONTINUOUS
10
156.3146222
20
-139.3519675
11
160.9977009
21
-155.6838037
0
LINE
8
0
6
CONTINUOUS
10
156.3118659
20
-139.3423549
11
173.6049638
21
-134.3836389
0
LINE
8
0
6
CONTINUOUS
10
173.6049638
20
-134.3836389
11
168.9218851
21
-118.0518027
0
LINE
8
0
6
CONTINUOUS
10
168.9218851
20
-118.0518027
11
151.6287872
21
-123.0105187
0
LINE
8
0
6
CONTINUOUS
10
151.6287872
20
-123.0105187
11
156.3118659
21
-139.3423549
0
LINE
8
0
6
CONTINUOUS
10
151.6260309
20
-123.0009061
11
168.9191288
21
-118.0421901
0
LINE
8
0
6
CONTINUOUS
10
168.9191288
20
-118.0421901
11
164.2360501
21
-101.7103539
0
LINE
8
0
6
CONTINUOUS
10
164.2360501
20
-101.7103539
11
146.9429522
21
-106.6690699
0
LINE
8
0
6
CONTINUOUS
10
146.9429522
20
-106.6690699
11
151.6260309
21
-123.0009061
0
LINE
8
0
6
CONTINUOUS
10
176.5921093
20
-135.6757909
11
194.4070319
21
-133.1720668
0
LINE
8
0
6
CONTINUOUS
10
194.4070319
20
-133.1720668
11
192.0424809
21
-116.3474123
0
LINE
8
0
6
CONTINUOUS
10
192.0424809
20
-116.3474123
11
174.2275583
21
-118.8511364
0
LINE
8
0
6
CONTINUOUS
10
174.2275583
20
-118.8511364
11
176.5921093
21
-135.6757909
0
LINE
8
0
6
CONTINUOUS
10
174.2261666
20
-118.8412337
11
192.0410892
21
-116.3375096
0
LINE
8
0
6
CONTINUOUS
10
192.0410892
20
-116.3375096
11
189.6765382
21
-99.5128551
0
LINE
8
0
6
CONTINUOUS
10
189.6765382
20
-99.5128551
11
171.8616156
21
-102.0165792
0
LINE
8
0
6
CONTINUOUS
10
171.8616156
20
-102.0165792
11
174.2261666
21
-118.8412337
0
LINE
8
0
6
CONTINUOUS
10
171.8602239
20
-102.0066765
11
189.6751465
21
-99.5029524
0
LINE
8
0
6
CONTINUOUS
10
189.6751465
20
-99.5029524
11
187.3105955
21
-82.6782979
0
LINE
8
0
6
CONTINUOUS
10
187.3105955
20
-82.6782979
11
169.4956729
21
-85.182022
0
LINE
8
0
6
CONTINUOUS
10
169.4956729
20
-85.182022
11
171.8602239
21
-102.0066765
0
LINE
8
0
6
CONTINUOUS
10
196.8533894
20
-128.7403173
11
214.7995667
21
-127.4853983
0
LINE
8
0
6
CONTINUOUS
10
214.7995667
20
-127.4853983
11
213.6144042
21
-110.5367851
0
LINE
8
0
6
CONTINUOUS
10
213.6144042
20
-110.5367851
11
195.6682269
21
-111.7917041
0
LINE
8
0
6
CONTINUOUS
10
195.6682269
20
-111.7917041
11
196.8533894
21
-128.7403173
0
LINE
8
0
6
CONTINUOUS
10
195.6675293
20
-111.7817284
11
213.6137066
21
-110.5268094
0
LINE
8
0
6
CONTINUOUS
10
213.6137066
20
-110.5268094
11
212.4285441
21
-93.5781962
0
LINE
8
0
6
CONTINUOUS
10
212.4285441
20
-93.5781962
11
194.4823668
21
-94.8331152
0
LINE
8
0
6
CONTINUOUS
10
194.4823668
20
-94.8331152
11
195.6675293
21
-111.7817284
0
LINE
8
0
6
CONTINUOUS
10
194.4816692
20
-94.8231395
11
212.4278465
21
-93.5682205
0
LINE
8
0
6
CONTINUOUS
10
212.4278465
20
-93.5682205
11
211.242684
21
-76.6196073
0
LINE
8
0
6
CONTINUOUS
10
211.242684
20
-76.6196073
11
193.2965067
21
-77.8745263
0
LINE
8
0
6
CONTINUOUS
10
193.2965067
20
-77.8745263
11
194.4816692
21
-94.8231395
0
LINE
8
0
6
CONTINUOUS
10
218.0234524
20
-130.0185292
11
236.0134524
21
-130.0185292
0
LINE
8
0
6
CONTINUOUS
10
236.0134524
20
-130.0185292
11
236.0134524
21
-113.0285292
0
LINE
8
0
6
CONTINUOUS
10
236.0134524
20
-113.0285292
11
218.0234524
21
-113.0285292
0
LINE
8
0
6
CONTINUOUS
10
218.0234524
20
-113.0285292
11
218.0234524
21
-130.0185292
0
LINE
8
0
6
CONTINUOUS
10
218.0234524
20
-113.0185292
11
236.0134524
21
-113.0185292
0
LINE
8
0
6
CONTINUOUS
10
236.0134524
20
-113.0185292
11
236.0134524
21
-96.0285292
0
LINE
8
0
6
CONTINUOUS
10
236.0134524
20
-96.0285292
11
218.0234524
21
-96.0285292
0
LINE
8
0
6
CONTINUOUS
10
218.0234524
20
-96.0285292
11
218.0234524
21
-113.0185292
0
LINE
8
0
6
CONTINUOUS
10
218.0234524
20
-96.0185292
11
236.0134524
21
-96.0185292
0
LINE
8
0
6
CONTINUOUS
10
236.0134524
20
-96.0185292
11
236.0134524
21
-79.0285292
0
LINE
8
0
6
CONTINUOUS
10
236.0134524
20
-79.0285292
11
218.0234524
21
-79.0285292
0
LINE
8
0
6
CONTINUOUS
10
218.0234524
20
-79.0285292
11
218.0234524
21
-96.0185292
0
LINE
8
0
6
CONTINUOUS
10
236.0234523
20
-130.0185292
11
254.0134523
21
-130.0185292
0
LINE
8
0
6
CONTINUOUS
10
254.0134523
20
-130.0185292
11
254.0134523
21
-113.0285292
0
LINE
8
0
6
CONTINUOUS
10
254.0134523
20
-113.0285292
11
236.0234523
21
-113.0285292
0
LINE
8
0
6
CONTINUOUS
10
236.0234523
20
-113.0285292
11
236.0234523
21
-130.0185292
0
LINE
8
0
6
CONTINUOUS
10
236.0234523
20
-113.0185292
11
254.0134523
21
-113.0185292
0
LINE
8
0
6
CONTINUOUS
10
254.0134523
20
-113.0185292
11
254.0134523
21
-96.0285292
0
LINE
8
0
6
CONTINUOUS
10
254.0134523
20
-96.0285292
11
236.0234523
21
-96.0285292
0
LINE
8
0
6
CONTINUOUS
10
236.0234523
20
-96.0285292
11
236.0234523
21
-113.0185292
0
LINE
8
0
6
CONTINUOUS
10
236.0234523
20
-96.0185292
11
254.0134523
21
-96.0185292
0
LINE
8
0
6
CONTINUOUS
10
254.0134523
20
-96.0185292
11
254.0134523
21
-79.0285292
0
LINE
8
0
6
CONTINUOUS
10
254.0134523
20
-79.0285292
11
236.0234523
21
-79.0285292
0
LINE
8
0
6
CONTINUOUS
10
236.0234523
20
-79.0285292
11
236.0234523
21
-96.0185292
0
LINE
8
0
6
CONTINUOUS
10
198.6321795
20
-154.1782006
11
216.5783568
21
-152.9232816
0
LINE
8
0
6
CONTINUOUS
10
216.5783568
20
-152.9232816
11
215.3931943
21
-135.9746684
0
LINE
8
0
6
CONTINUOUS
10
215.3931943
20
-135.9746684
11
197.447017
21
-137.2295874
0
LINE
8
0
6
CONTINUOUS
10
197.447017
20
-137.2295874
11
198.6321795
21
-154.1782006
0
LINE
8
0
6
CONTINUOUS
10
217.4084705
20
-152.8742329
11
235.2999194
21
-154.7546999
0
LINE
8
0
6
CONTINUOUS
10
235.2999194
20
-154.7546999
11
237.0758579
21
-137.8577729
0
LINE
8
0
6
CONTINUOUS
10
237.0758579
20
-137.8577729
11
219.184409
21
-135.9773059
0
LINE
8
0
6
CONTINUOUS
10
219.184409
20
-135.9773059
11
217.4084705
21
-152.8742329
0
LINE
8
0
6
CONTINUOUS
10
236.1259389
20
-154.850544
11
253.4190368
21
-159.80926
0
LINE
8
0
6
CONTINUOUS
10
253.4190368
20
-159.80926
11
258.1021155
21
-143.4774238
0
LINE
8
0
6
CONTINUOUS
10
258.1021155
20
-143.4774238
11
240.8090176
21
-138.5187078
0
LINE
8
0
6
CONTINUOUS
10
240.8090176
20
-138.5187078
11
236.1259389
21
-154.850544
0
LINE
8
0
6
CONTINUOUS
10
254.2158642
20
-160.0470848
11
270.3851691
21
-167.9333817
0
LINE
8
0
6
CONTINUOUS
10
270.3851691
20
-167.9333817
11
277.8330948
21
-152.6628708
0
LINE
8
0
6
CONTINUOUS
10
277.8330948
20
-152.6628708
11
261.6637899
21
-144.7765739
0
LINE
8
0
6
CONTINUOUS
10
261.6637899
20
-144.7765739
11
254.2158642
21
-160.0470848
0
LINE
8
0
6
CONTINUOUS
10
212.9669476
20
-171.9304779
11
230.8583965
21
-173.8109449
0
LINE
8
0
6
CONTINUOUS
10
230.8583965
20
-173.8109449
11
232.634335
21
-156.9140179
0
LINE
8
0
6
CONTINUOUS
10
232.634335
20
-156.9140179
11
214.7428861
21
-155.0335509
0
LINE
8
0
6
CONTINUOUS
10
214.7428861
20
-155.0335509
11
212.9669476
21
-171.9304779
0
LINE
8
0
6
CONTINUOUS
10
231.6844161
20
-173.9067891
11
248.977514
21
-178.8655051
0
LINE
8
0
6
CONTINUOUS
10
248.977514
20
-178.8655051
11
253.6605927
21
-162.5336689
0
LINE
8
0
6
CONTINUOUS
10
253.6605927
20
-162.5336689
11
236.3674948
21
-157.5749529
0
LINE
8
0
6
CONTINUOUS
10
236.3674948
20
-157.5749529
11
231.6844161
21
-173.9067891
0
ENDSEC
0
EOF