0
SECTION
2
HEADER
9
$INSUNITS
70
4
0
ENDSEC
0
SECTION
2
TABLES
0
TABLE
2
LTYPE
0
LTYPE
72
65
70
0
2
CONTINUOUS
3
______
73
0
40
0
0
LTYPE
72
65
70
0
2
DASHED
3
_ _ _ 
73
2
40
7.5
49
5
49
-2.5
0
LTYPE
72
65
70
0
2
DOTTED
3
. . . 
73
2
40
1.5
49
0.5
49
-1
0
ENDTAB
0
TABLE
2
LAYER
0
ENDTAB
0
ENDSEC
0
SECTION
2
ENTITIES
0
LINE
8
0
6
CONTINUOUS
10
143.6949904
20
-160.6452761
11
160.9880883
21
-155.6865601
0
LINE
8
0
6
CONTINUOUS
10
160.9880883
20
-155.6865601
11
156.3050096
21
-139.3547239
0
LINE
8
0
6
CONTINUOUS
10
156.3050096
20
-139.3547239
11
139.0119117
21
-144.3134399
0
LINE
8
0
6
CONTINUOUS
10
139.0119117
20
-144.3134399
11
143.6949904
21
-160.6452761
0
LINE
8
0
6
CONTINUOUS
10
139.0091554
20
-144.3038273
11
156.3022533
21
-139.3451113
0
LINE
8
0
6
CONTINUOUS
10
156.3022533
20
-139.3451113
11
151.6191746
21
-123.0132751
0
LINE
8
0
6
CONTINUOUS
10
151.6191746
20
-123.0132751
11
134.3260767
21
-127.9719911
0
LINE
8
0
6
CONTINUOUS
10
134.3260767
20
-127.9719911
11
139.0091554
21
-144.3038273
0
LINE
8
0
6
CONTINUOUS
10
134.3233204
20
-127.9623785
11
151.6164183
21
-123.0036625
0
LINE
8
0
6
CONTINUOUS
10
151.6164183
20
-123.0036625
11
146.9333396
21
-106.6718263
0
LINE
8
0
6
CONTINUOUS
10
146.9333396
20
-106.6718263
11
129.6402417
21
-111.6305423
0
LINE
8
0
6
CONTINUOUS
10
129.6402417
20
-111.6305423
11
134.3233204
21
-127.9623785
0
LINE
8
0
6
CONTINUOUS
10
160.9977009
20
-155.6838037
11
178.2907988
21
-150.7250877
0
LINE
8
0
6
CONTINUOUS
10
178.2907988
20
-150.7250877
11
173.6077201
21
-134.3932515
0
LINE
8
0
6
CONTINUOUS
10
173.6077201
20
-134.3932515
11
156.3146222
21
-139.3519675
0
LINE
8
0
6
CONTINUOUS
10
156.3146222
20
-139.3519675
11
160.9977009
21
-155.6838037
0
LINE
8
0
6
CONTINUOUS
10
156.3118659
20
-139.3423549
11
173.6049638
21
-134.3836389
0
LINE
8
0
6
CONTINUOUS
10
173.6049638
20
-134.3836389
11
168.9218851
21
-118.0518027
0
LINE
8
0
6
CONTINUOUS
10
168.9218851
20
-118.0518027
11
151.6287872
21
-123.0105187
0
LINE
8
0
6
CONTINUOUS
10
151.6287872
20
-123.0105187
11
156.3118659
21
-139.3423549
0
LINE
8
0
6
CONTINUOUS
10
151.6260309
20
-123.0009061
11
168.9191288
21
-118.0421901
0
LINE
8
0
6
CONTINUOUS
10
168.9191288
20
-118.0421901
11
164.2360501
21
-101.7103539
0
LINE
8
0
6
CONTINUOUS
10
164.2360501
20
-101.7103539
11
146.9429522
21
-106.6690699
0
LINE
8
0
6
CONTINUOUS
10
146.9429522
20
-106.6690699
11
151.6260309
21
-123.0009061
0
LINE
8
0
6
CONTINUOUS
10
175.1863588
20
-130.7733563
11
193.0012814
21
-128.2696322
0
LINE
8
0
6
CONTINUOUS
10
193.0012814
20
-128.2696322
11
190.6367304
21
-111.4449777
0
LINE
8
0
6
CONTINUOUS
10
190.6367304
20
-111.4449777
11
172.8218078
21
-113.9487018
0
LINE
8
0
6
CONTINUOUS
10
172.8218078
20
-113.9487018
11
175.1863588
21
-130.7733563
0
LINE
8
0
6
CONTINUOUS
10
172.8204161
20
-113.9387991
11
190.6353387
21
-111.435075
0
LINE
8
0
6
CONTINUOUS
10
190.6353387
20
-111.435075
11
188.2707877
21
-94.6104205
0
LINE
8
0
6
CONTINUOUS
10
188.2707877
20
-94.6104205
11
170.4558651
21
-97.1141446
0
LINE
8
0
6
CONTINUOUS
10
170.4558651
20
-97.1141446
11
172.8204161
21
-113.9387991
0
LINE
8
0
6
CONTINUOUS
10
170.4544734
20
-97.1042419
11
188.269396
21
-94.6005178
0
LINE
8
0
6
CONTINUOUS
10
188.269396
20
-94.6005178
11
185.904845
21
-77.7758633
0
LINE
8
0
6
CONTINUOUS
10
185.904845
20
-77.7758633
11
168.0899224
21
-80.2795874
0
LINE
8
0
6
CONTINUOUS
10
168.0899224
20
-80.2795874
11
170.4544734
21
-97.1042419
0
LINE
8
0
6
CONTINUOUS
10
194.9744504
20
-120.4709713
11
212.9206277
21
-119.2160523
0
LINE
8
0
6
CONTINUOUS
10
212.9206277
20
-119.2160523
11
211.7354652
21
-102.2674391
0
LINE
8
0
6
CONTINUOUS
10
211.7354652
20
-102.2674391
11
193.7892879
21
-103.5223581
0
LINE
8
0
6
CONTINUOUS
10
193.7892879
20
-103.5223581
11
194.9744504
21
-120.4709713
0
LINE
8
0
6
CONTINUOUS
10
193.7885903
20
-103.5123824
11
211.7347676
21
-102.2574634
0
LINE
8
0
6
CONTINUOUS
10
211.7347676
20
-102.2574634
11
210.5496051
21
-85.3088502
0
LINE
8
0
6
CONTINUOUS
10
210.5496051
20
-85.3088502
11
192.6034278
21
-86.5637692
0
LINE
8
0
6
CONTINUOUS
10
192.6034278
20
-86.5637692
11
193.7885903
21
-103.5123824
0
LINE
8
0
6
CONTINUOUS
10
192.6027302
20
-86.5537935
11
210.5489075
21
-85.2988745
0
LINE
8
0
6
CONTINUOUS
10
210.5489075
20
-85.2988745
11
209.363745
21
-68.3502613
0
LINE
8
0
6
CONTINUOUS
10
209.363745
20
-68.3502613
11
191.4175677
21
-69.6051803
0
LINE
8
0
6
CONTINUOUS
10
191.4175677
20
-69.6051803
11
192.6027302
21
-86.5537935
0
LINE
8
0
6
CONTINUOUS
10
216.3816853
20
-125.1409008
11
234.3716853
21
-125.1409008
0
LINE
8
0
6
CONTINUOUS
10
234.3716853
20
-125.1409008
11
234.3716853
21
-108.1509008
0
LINE
8
0
6
CONTINUOUS
10
234.3716853
20
-108.1509008
11
216.3816853
21
-108.1509008
0
LINE
8
0
6
CONTINUOUS
10
216.3816853
20
-108.1509008
11
216.3816853
21
-125.1409008
0
LINE
8
0
6
CONTINUOUS
10
216.3816853
20
-108.1409008
11
234.3716853
21
-108.1409008
0
LINE
8
0
6
CONTINUOUS
10
234.3716853
20
-108.1409008
11
234.3716853
21
-91.1509008
0
LINE
8
0
6
CONTINUOUS
10
234.3716853
20
-91.1509008
11
216.3816853
21
-91.1509008
0
LINE
8
0
6
CONTINUOUS
10
216.3816853
20
-91.1509008
11
216.3816853
21
-108.1409008
0
LINE
8
0
6
CONTINUOUS
10
216.3816853
20
-91.1409008
11
234.3716853
21
-91.1409008
0
LINE
8
0
6
CONTINUOUS
10
234.3716853
20
-91.1409008
11
234.3716853
21
-74.1509008
0
LINE
8
0
6
CONTINUOUS
10
234.3716853
20
-74.1509008
11
216.3816853
21
-74.1509008
0
LINE
8
0
6
CONTINUOUS
10
216.3816853
20
-74.1509008
11
216.3816853
21
-91.1409008
0
LINE
8
0
6
CONTINUOUS
10
234.3816853
20
-125.1409008
11
252.3716853
21
-125.1409008
0
LINE
8
0
6
CONTINUOUS
10
252.3716853
20
-125.1409008
11
252.3716853
21
-108.1509008
0
LINE
8
0
6
CONTINUOUS
10
252.3716853
20
-108.1509008
11
234.3816853
21
-108.1509008
0
LINE
8
0
6
CONTINUOUS
10
234.3816853
20
-108.1509008
11
234.3816853
21
-125.1409008
0
LINE
8
0
6
CONTINUOUS
10
234.3816853
20
-108.1409008
11
252.3716853
21
-108.1409008
0
LINE
8
0
6
CONTINUOUS
10
252.3716853
20
-108.1409008
11
252.3716853
21
-91.1509008
0
LINE
8
0
6
CONTINUOUS
10
252.3716853
20
-91.1509008
11
234.3816853
21
-91.1509008
0
LINE
8
0
6
CONTINUOUS
10
234.3816853
20
-91.1509008
11
234.3816853
21
-108.1409008
0
LINE
8
0
6
CONTINUOUS
10
234.3816853
20
-91.1409008
11
252.3716853
21
-91.1409008
0
LINE
8
0
6
CONTINUOUS
10
252.3716853
20
-91.1409008
11
252.3716853
21
-74.1509008
0
LINE
8
0
6
CONTINUOUS
10
252.3716853
20
-74.1509008
11
234.3816853
21
-74.1509008
0
LINE
8
0
6
CONTINUOUS
10
234.3816853
20
-74.1509008
11
234.3816853
21
-91.1409008
0
LINE
8
0
6
CONTINUOUS
10
200.3444711
20
-145.6577313
11
218.2906484
21
-144.4028123
0
LINE
8
0
6
CONTINUOUS
10
218.2906484
20
-144.4028123
11
217.1054859
21
-127.4541991
0
LINE
8
0
6
CONTINUOUS
10
217.1054859
20
-127.4541991
11
199.1593086
21
-128.7091181
0
LINE
8
0
6
CONTINUOUS
10
199.1593086
20
-128.7091181
11
200.3444711
21
-145.6577313
0
LINE
8
0
6
CONTINUOUS
10
219.1207621
20
-144.3537636
11
237.012211
21
-146.2342306
0
LINE
8
0
6
CONTINUOUS
10
237.012211
20
-146.2342306
11
238.7881495
21
-129.3373036
0
LINE
8
0
6
CONTINUOUS
10
238.7881495
20
-129.3373036
11
220.8967006
21
-127.4568366
0
LINE
8
0
6
CONTINUOUS
10
220.8967006
20
-127.4568366
11
219.1207621
21
-144.3537636
0
LINE
8
0
6
CONTINUOUS
10
237.8382305
20
-146.3300747
11
255.1313284
21
-151.2887907
0
LINE
8
0
6
CONTINUOUS
10
255.1313284
20
-151.2887907
11
259.8144071
21
-134.9569545
0
LINE
8
0
6
CONTINUOUS
10
259.8144071
20
-134.9569545
11
242.5213092
21
-129.9982385
0
LINE
8
0
6
CONTINUOUS
10
242.5213092
20
-129.9982385
11
237.8382305
21
-146.3300747
0
LINE
8
0
6
CONTINUOUS
10
255.9281558
20
-151.5266155
11
272.0974607
21
-159.4129124
0
LINE
8
0
6
CONTINUOUS
10
272.0974607
20
-159.4129124
11
279.5453864
21
-144.1424015
0
LINE
8
0
6
CONTINUOUS
10
279.5453864
20
-144.1424015
11
263.3760815
21
-136.2561046
0
LINE
8
0
6
CONTINUOUS
10
263.3760815
20
-136.2561046
11
255.9281558
21
-151.5266155
0
LINE
8
0
6
CONTINUOUS
10
214.6792392
20
-163.4100086
11
232.5706881
21
-165.2904756
0
LINE
8
0
6
CONTINUOUS
10
232.5706881
20
-165.2904756
11
234.3466266
21
-148.3935486
0
LINE
8
0
6
CONTINUOUS
10
234.3466266
20
-148.3935486
11
216.4551777
21
-146.5130816
0
LINE
8
0
6
CONTINUOUS
10
216.4551777
20
-146.5130816
11
214.6792392
21
-163.4100086
0
LINE
8
0
6
CONTINUOUS
10
233.3967077
20
-165.3863198
11
250.6898056
21
-170.3450358
0
LINE
8
0
6
CONTINUOUS
10
250.6898056
20
-170.3450358
11
255.3728843
21
-154.0131996
0
LINE
8
0
6
CONTINUOUS
10
255.3728843
20
-154.0131996
11
238.0797864
21
-149.0544836
0
LINE
8
0
6
CONTINUOUS
10
238.0797864
20
-149.0544836
11
233.3967077
21
-165.3863198
0
ENDSEC
0
EOF