<svg width="149.905mm" height="101.995mm" viewBox="0 0 149.905 101.995" xmlns="http://www.w3.org/2000/svg"><g id="svgGroup" stroke-linecap="round" fill-rule="evenodd" font-size="9pt" stroke="#000" stroke-width="0.25mm" fill="none" style="stroke:#000;stroke-width:0.25mm;fill:none"><path d="M 45.546 62.423 L 63.361 59.919 L 60.996 43.095 L 43.182 45.598 L 45.546 62.423 Z M 43.18 45.589 L 60.995 43.085 L 58.631 26.26 L 40.816 28.764 L 43.18 45.589 Z M 40.814 28.754 L 58.629 26.25 L 56.265 9.426 L 38.45 11.929 L 40.814 28.754 Z M 65.334 52.121 L 83.28 50.866 L 82.095 33.917 L 64.149 35.172 L 65.334 52.121 Z M 64.148 35.162 L 82.095 33.907 L 80.909 16.959 L 62.963 18.214 L 64.148 35.162 Z M 62.962 18.204 L 80.909 16.949 L 79.724 0 L 61.777 1.255 L 62.962 18.204 Z M 70.704 77.307 L 88.65 76.053 L 87.465 59.104 L 69.519 60.359 L 70.704 77.307 Z M 126.288 83.176 L 142.457 91.063 L 149.905 75.792 L 133.736 67.906 L 126.288 83.176 Z M 86.741 56.791 L 104.731 56.791 L 104.731 39.801 L 86.741 39.801 L 86.741 56.791 Z M 86.741 39.791 L 104.731 39.791 L 104.731 22.801 L 86.741 22.801 L 86.741 39.791 Z M 86.741 22.791 L 104.731 22.791 L 104.731 5.801 L 86.741 5.801 L 86.741 22.791 Z M 104.741 56.791 L 122.731 56.791 L 122.731 39.801 L 104.741 39.801 L 104.741 56.791 Z M 104.741 39.791 L 122.731 39.791 L 122.731 22.801 L 104.741 22.801 L 104.741 39.791 Z M 104.741 22.791 L 122.731 22.791 L 122.731 5.801 L 104.741 5.801 L 104.741 22.791 Z M 89.481 76.004 L 107.372 77.884 L 109.148 60.987 L 91.256 59.107 L 89.481 76.004 Z M 85.039 95.06 L 102.93 96.94 L 104.706 80.043 L 86.815 78.163 L 85.039 95.06 Z M 14.055 92.295 L 31.348 87.336 L 26.665 71.004 L 9.372 75.963 L 14.055 92.295 Z M 9.369 75.954 L 26.662 70.995 L 21.979 54.663 L 4.686 59.622 L 9.369 75.954 Z M 31.357 87.334 L 48.651 82.375 L 43.967 66.043 L 26.674 71.002 L 31.357 87.334 Z M 26.672 70.992 L 43.965 66.033 L 39.282 49.702 L 21.989 54.66 L 26.672 70.992 Z M 108.198 77.98 L 125.491 82.939 L 130.174 66.607 L 112.881 61.648 L 108.198 77.98 Z M 103.756 97.036 L 121.05 101.995 L 125.733 85.663 L 108.44 80.704 L 103.756 97.036 Z M 4.683 59.612 L 21.976 54.653 L 17.293 38.322 L 0 43.28 L 4.683 59.612 Z M 21.986 54.651 L 39.279 49.692 L 34.596 33.36 L 17.303 38.319 L 21.986 54.651 Z" vector-effect="non-scaling-stroke"/></g></svg>