<svg width="148.193mm" height="102.246mm" viewBox="0 0 148.193 102.246" xmlns="http://www.w3.org/2000/svg"><g id="svgGroup" stroke-linecap="round" fill-rule="evenodd" font-size="9pt" stroke="#000" stroke-width="0.25mm" fill="none" style="stroke:#000;stroke-width:0.25mm;fill:none"><path d="M 46.952 59.056 L 64.767 56.552 L 62.402 39.728 L 44.587 42.232 L 46.952 59.056 Z M 44.586 42.222 L 62.401 39.718 L 60.036 22.893 L 42.221 25.397 L 44.586 42.222 Z M 42.22 25.387 L 60.035 22.883 L 57.67 6.059 L 39.855 8.562 L 42.22 25.387 Z M 67.213 52.121 L 85.159 50.866 L 83.974 33.917 L 66.028 35.172 L 67.213 52.121 Z M 66.027 35.162 L 83.973 33.907 L 82.788 16.959 L 64.842 18.214 L 66.027 35.162 Z M 64.841 18.204 L 82.788 16.949 L 81.602 0 L 63.656 1.255 L 64.841 18.204 Z M 68.992 77.559 L 86.938 76.304 L 85.753 59.355 L 67.807 60.61 L 68.992 77.559 Z M 124.576 83.427 L 140.745 91.314 L 148.193 76.043 L 132.024 68.157 L 124.576 83.427 Z M 88.383 53.399 L 106.373 53.399 L 106.373 36.409 L 88.383 36.409 L 88.383 53.399 Z M 88.383 36.399 L 106.373 36.399 L 106.373 19.409 L 88.383 19.409 L 88.383 36.399 Z M 88.383 19.399 L 106.373 19.399 L 106.373 2.409 L 88.383 2.409 L 88.383 19.399 Z M 106.383 53.399 L 124.373 53.399 L 124.373 36.409 L 106.383 36.409 L 106.383 53.399 Z M 106.383 36.399 L 124.373 36.399 L 124.373 19.409 L 106.383 19.409 L 106.383 36.399 Z M 106.383 19.399 L 124.373 19.399 L 124.373 2.409 L 106.383 2.409 L 106.383 19.399 Z M 87.768 76.255 L 105.66 78.135 L 107.436 61.238 L 89.544 59.358 L 87.768 76.255 Z M 83.327 95.311 L 101.218 97.191 L 102.994 80.294 L 85.103 78.414 L 83.327 95.311 Z M 14.055 84.026 L 31.348 79.067 L 26.665 62.735 L 9.372 67.694 L 14.055 84.026 Z M 9.369 67.684 L 26.662 62.726 L 21.979 46.394 L 4.686 51.352 L 9.369 67.684 Z M 31.357 79.064 L 48.651 74.105 L 43.967 57.774 L 26.674 62.732 L 31.357 79.064 Z M 26.672 62.723 L 43.965 57.764 L 39.282 41.432 L 21.989 46.391 L 26.672 62.723 Z M 106.486 78.231 L 123.779 83.19 L 128.462 66.858 L 111.169 61.899 L 106.486 78.231 Z M 102.044 97.287 L 119.337 102.246 L 124.02 85.914 L 106.727 80.955 L 102.044 97.287 Z M 4.683 51.343 L 21.976 46.384 L 17.293 30.052 L 0 35.011 L 4.683 51.343 Z M 21.986 46.381 L 39.279 41.423 L 34.596 25.091 L 17.303 30.049 L 21.986 46.381 Z" vector-effect="non-scaling-stroke"/></g></svg>