%TF.GenerationSoftware,KiCad,Pcbnew,9.0.7-9.0.7~ubuntu24.04.1*%
%TF.CreationDate,2026-03-11T21:20:09-04:00*%
%TF.ProjectId,board,626f6172-642e-46b6-9963-61645f706362,v1.0.0*%
%TF.SameCoordinates,Original*%
%TF.FileFunction,Soldermask,Bot*%
%TF.FilePolarity,Negative*%
%FSLAX46Y46*%
G04 Gerber Fmt 4.6, Leading zero omitted, Abs format (unit mm)*
G04 Created by KiCad (PCBNEW 9.0.7-9.0.7~ubuntu24.04.1) date 2026-03-11 21:20:09*
%MOMM*%
%LPD*%
G01*
G04 APERTURE LIST*
G04 Aperture macros list*
%AMRoundRect*
0 Rectangle with rounded corners*
0 $1 Rounding radius*
0 $2 $3 $4 $5 $6 $7 $8 $9 X,Y pos of 4 corners*
0 Add a 4 corners polygon primitive as box body*
4,1,4,$2,$3,$4,$5,$6,$7,$8,$9,$2,$3,0*
0 Add four circle primitives for the rounded corners*
1,1,$1+$1,$2,$3*
1,1,$1+$1,$4,$5*
1,1,$1+$1,$6,$7*
1,1,$1+$1,$8,$9*
0 Add four rect primitives between the rounded corners*
20,1,$1+$1,$2,$3,$4,$5,0*
20,1,$1+$1,$4,$5,$6,$7,0*
20,1,$1+$1,$6,$7,$8,$9,0*
20,1,$1+$1,$8,$9,$2,$3,0*%
%AMFreePoly0*
4,1,16,-0.214645,0.660355,-0.210957,0.656235,0.289043,0.031235,0.299694,-0.005522,0.289043,-0.031235,-0.210957,-0.656235,-0.244478,-0.674694,-0.250000,-0.675000,-0.500000,-0.675000,-0.535355,-0.660355,-0.550000,-0.625000,-0.550000,0.625000,-0.535355,0.660355,-0.500000,0.675000,-0.250000,0.675000,-0.214645,0.660355,-0.214645,0.660355,$1*%
%AMFreePoly1*
4,1,16,0.535355,0.660355,0.550000,0.625000,0.550000,-0.625000,0.535355,-0.660355,0.500000,-0.675000,-0.650000,-0.675000,-0.685355,-0.660355,-0.700000,-0.625000,-0.689043,-0.593765,-0.214031,0.000000,-0.689043,0.593765,-0.699694,0.630522,-0.681235,0.664043,-0.650000,0.675000,0.500000,0.675000,0.535355,0.660355,0.535355,0.660355,$1*%
%AMFreePoly2*
4,1,14,1.335355,1.335355,1.350000,1.300000,1.350000,-1.300000,1.335355,-1.335355,1.300000,-1.350000,-0.117000,-1.350000,-0.152355,-1.335355,-1.335355,-0.152355,-1.350000,-0.117000,-1.350000,1.300000,-1.335355,1.335355,-1.300000,1.350000,1.300000,1.350000,1.335355,1.335355,1.335355,1.335355,$1*%
G04 Aperture macros list end*
%ADD10RoundRect,0.050000X0.700794X-0.267185X0.452720X0.597950X-0.700794X0.267185X-0.452720X-0.597950X0*%
%ADD11C,3.900000*%
%ADD12RoundRect,0.050000X0.342009X-0.667480X0.736543X0.141435X-0.342009X0.667480X-0.736543X-0.141435X0*%
%ADD13RoundRect,0.050000X0.600000X-0.450000X0.600000X0.450000X-0.600000X0.450000X-0.600000X-0.450000X0*%
%ADD14RoundRect,0.050000X0.629929X-0.407050X0.567148X0.490758X-0.629929X0.407050X-0.567148X-0.490758X0*%
%ADD15RoundRect,0.050000X-0.400000X0.500000X-0.400000X-0.500000X0.400000X-0.500000X0.400000X0.500000X0*%
%ADD16C,1.000000*%
%ADD17RoundRect,0.050000X-0.750000X0.350000X-0.750000X-0.350000X0.750000X-0.350000X0.750000X0.350000X0*%
%ADD18RoundRect,0.050000X0.549675X-0.510252X0.643751X0.384818X-0.549675X0.510252X-0.643751X-0.384818X0*%
%ADD19RoundRect,0.050000X-0.500000X0.450000X-0.500000X-0.450000X0.500000X-0.450000X0.500000X0.450000X0*%
%ADD20O,1.850000X1.300000*%
%ADD21FreePoly0,180.000000*%
%ADD22C,1.800000*%
%ADD23FreePoly0,0.000000*%
%ADD24FreePoly1,0.000000*%
%ADD25C,0.900000*%
%ADD26FreePoly1,180.000000*%
%ADD27RoundRect,0.050000X0.500000X-0.775000X0.500000X0.775000X-0.500000X0.775000X-0.500000X-0.775000X0*%
%ADD28RoundRect,0.050000X0.452720X-0.597950X0.700794X0.267185X-0.452720X0.597950X-0.700794X-0.267185X0*%
%ADD29RoundRect,0.050000X0.656789X-0.362117X0.531533X0.529124X-0.656789X0.362117X-0.531533X-0.529124X0*%
%ADD30O,1.800000X1.800000*%
%ADD31RoundRect,0.050000X-0.600000X0.300000X-0.600000X-0.300000X0.600000X-0.300000X0.600000X0.300000X0*%
%ADD32C,2.000000*%
%ADD33C,3.100000*%
%ADD34C,5.100000*%
%ADD35FreePoly2,16.000000*%
%ADD36RoundRect,0.050000X-0.891312X-1.607969X1.607969X-0.891312X0.891312X1.607969X-1.607969X0.891312X0*%
%ADD37FreePoly2,0.000000*%
%ADD38RoundRect,0.050000X-1.300000X-1.300000X1.300000X-1.300000X1.300000X1.300000X-1.300000X1.300000X0*%
%ADD39FreePoly2,344.000000*%
%ADD40RoundRect,0.050000X-1.607969X-0.891312X0.891312X-1.607969X1.607969X0.891312X-0.891312X1.607969X0*%
%ADD41FreePoly2,4.000000*%
%ADD42RoundRect,0.050000X-1.206150X-1.387517X1.387517X-1.206150X1.206150X1.387517X-1.387517X1.206150X0*%
%ADD43FreePoly2,8.000000*%
%ADD44RoundRect,0.050000X-1.106423X-1.468274X1.468274X-1.106423X1.106423X1.468274X-1.468274X1.106423X0*%
%ADD45FreePoly2,334.000000*%
%ADD46RoundRect,0.050000X-1.738315X-0.598550X0.598550X-1.738315X1.738315X0.598550X-0.598550X1.738315X0*%
%ADD47FreePoly2,354.000000*%
%ADD48RoundRect,0.050000X-1.428765X-1.156991X1.156991X-1.428765X1.428765X1.156991X-1.156991X1.428765X0*%
G04 APERTURE END LIST*
D10*
%TO.C,D1*%
X143602911Y-157712028D03*
X142693307Y-154539864D03*
%TD*%
D11*
%TO.C,H5*%
X280636685Y-75335901D03*
%TD*%
D12*
%TO.C,D22*%
X257822454Y-149285173D03*
X259269078Y-146319153D03*
%TD*%
D10*
%TO.C,D5*%
X156219786Y-136409107D03*
X155310182Y-133236943D03*
%TD*%
D13*
%TO.C,D16*%
X235101685Y-122295901D03*
X235101685Y-118995901D03*
%TD*%
D14*
%TO.C,D11*%
X194308379Y-100624088D03*
X194078183Y-97332126D03*
%TD*%
D11*
%TO.C,H2*%
X185750676Y-141310636D03*
%TD*%
D10*
%TO.C,D4*%
X160905621Y-152750556D03*
X159996017Y-149578392D03*
%TD*%
D15*
%TO.C,PWR1*%
X280091685Y-118095901D03*
X280091685Y-125395901D03*
D16*
X281201685Y-120245901D03*
X281201685Y-123245901D03*
D15*
X282301685Y-118095901D03*
X282301685Y-125395901D03*
D17*
X279441685Y-119495901D03*
X279441685Y-122495901D03*
X279441685Y-123995901D03*
%TD*%
D18*
%TO.C,D20*%
X220134201Y-141599609D03*
X220479145Y-138317687D03*
%TD*%
D19*
%TO.C,JST1*%
X263176685Y-120745901D03*
X263176685Y-122745901D03*
D20*
X259576685Y-122745901D03*
X259576685Y-120745901D03*
D19*
X261576685Y-122745901D03*
X261576685Y-120745901D03*
%TD*%
D21*
%TO.C,MCU1*%
X274076685Y-78445901D03*
D22*
X276196685Y-78445901D03*
D21*
X274076685Y-80985901D03*
D22*
X276196685Y-80985901D03*
D21*
X274076685Y-83525901D03*
D22*
X276196685Y-83525901D03*
D21*
X274076685Y-86065901D03*
D22*
X276196685Y-86065901D03*
D21*
X274076685Y-88605901D03*
D22*
X276196685Y-88605901D03*
D21*
X274076685Y-91145901D03*
D22*
X276196685Y-91145901D03*
D21*
X274076685Y-93685901D03*
D22*
X276196685Y-93685901D03*
D21*
X274076685Y-96225901D03*
D22*
X276196685Y-96225901D03*
D21*
X274076685Y-98765901D03*
D22*
X276196685Y-98765901D03*
D21*
X274076685Y-101305901D03*
D22*
X276196685Y-101305901D03*
D21*
X274076685Y-103845901D03*
D22*
X276196685Y-103845901D03*
D21*
X274076685Y-106385901D03*
D22*
X276196685Y-106385901D03*
X260956685Y-106385901D03*
D23*
X263076685Y-106385901D03*
D22*
X260956685Y-103845901D03*
D23*
X263076685Y-103845901D03*
D22*
X260956685Y-101305901D03*
D23*
X263076685Y-101305901D03*
D22*
X260956685Y-98765901D03*
D23*
X263076685Y-98765901D03*
D22*
X260956685Y-96225901D03*
D23*
X263076685Y-96225901D03*
D22*
X260956685Y-93685901D03*
D23*
X263076685Y-93685901D03*
D22*
X260956685Y-91145901D03*
D23*
X263076685Y-91145901D03*
D22*
X260956685Y-88605901D03*
D23*
X263076685Y-88605901D03*
D22*
X260956685Y-86065901D03*
D23*
X263076685Y-86065901D03*
D22*
X260956685Y-83525901D03*
D23*
X263076685Y-83525901D03*
D22*
X260956685Y-80985901D03*
D23*
X263076685Y-80985901D03*
D22*
X260956685Y-78445901D03*
D23*
X263076685Y-78445901D03*
D24*
X263801685Y-78445901D03*
D25*
X271976685Y-78445901D03*
D24*
X263801685Y-80985901D03*
D25*
X271976685Y-80985901D03*
D24*
X263801685Y-83525901D03*
D25*
X271976685Y-83525901D03*
D24*
X263801685Y-86065901D03*
D25*
X271976685Y-86065901D03*
D24*
X263801685Y-88605901D03*
D25*
X271976685Y-88605901D03*
D24*
X263801685Y-91145901D03*
D25*
X271976685Y-91145901D03*
D24*
X263801685Y-93685901D03*
D25*
X271976685Y-93685901D03*
D24*
X263801685Y-96225901D03*
D25*
X271976685Y-96225901D03*
D24*
X263801685Y-98765901D03*
D25*
X271976685Y-98765901D03*
D24*
X263801685Y-101305901D03*
D25*
X271976685Y-101305901D03*
D24*
X263801685Y-103845901D03*
D25*
X271976685Y-103845901D03*
D24*
X263801685Y-106385901D03*
D25*
X271976685Y-106385901D03*
X265176685Y-106385901D03*
D26*
X273351685Y-106385901D03*
D25*
X265176685Y-103845901D03*
D26*
X273351685Y-103845901D03*
D25*
X265176685Y-101305901D03*
D26*
X273351685Y-101305901D03*
D25*
X265176685Y-98765901D03*
D26*
X273351685Y-98765901D03*
D25*
X265176685Y-96225901D03*
D26*
X273351685Y-96225901D03*
D25*
X265176685Y-93685901D03*
D26*
X273351685Y-93685901D03*
D25*
X265176685Y-91145901D03*
D26*
X273351685Y-91145901D03*
D25*
X265176685Y-88605901D03*
D26*
X273351685Y-88605901D03*
D25*
X265176685Y-86065901D03*
D26*
X273351685Y-86065901D03*
D25*
X265176685Y-83525901D03*
D26*
X273351685Y-83525901D03*
D25*
X265176685Y-80985901D03*
D26*
X273351685Y-80985901D03*
D25*
X265176685Y-78445901D03*
D26*
X273351685Y-78445901D03*
%TD*%
D13*
%TO.C,D17*%
X235101685Y-105295901D03*
X235101685Y-101995901D03*
%TD*%
D27*
%TO.C,RST1*%
X282026685Y-129320901D03*
X280326685Y-129320901D03*
X282026685Y-134570901D03*
X280326685Y-134570901D03*
%TD*%
D28*
%TO.C,D21*%
X239314527Y-143793744D03*
X240224131Y-140621580D03*
%TD*%
D11*
%TO.C,H1*%
X154182373Y-99282471D03*
%TD*%
D13*
%TO.C,D14*%
X217101685Y-105295901D03*
X217101685Y-101995901D03*
%TD*%
D10*
%TO.C,D2*%
X138917076Y-141370579D03*
X138007472Y-138198415D03*
%TD*%
D13*
%TO.C,D13*%
X217101685Y-122295901D03*
X217101685Y-118995901D03*
%TD*%
%TO.C,D18*%
X235101685Y-88295901D03*
X235101685Y-84995901D03*
%TD*%
D29*
%TO.C,D8*%
X173137462Y-111021282D03*
X172678190Y-107753398D03*
%TD*%
D11*
%TO.C,H3*%
X214873816Y-69664099D03*
%TD*%
D14*
%TO.C,D12*%
X193122519Y-83665499D03*
X192892323Y-80373537D03*
%TD*%
%TO.C,D19*%
X200864260Y-142769437D03*
X200634064Y-139477475D03*
%TD*%
D13*
%TO.C,D15*%
X217101685Y-88295901D03*
X217101685Y-84995901D03*
%TD*%
D30*
%TO.C,DISP1*%
X263496685Y-111840901D03*
X266036685Y-111840901D03*
X268576685Y-111840901D03*
X271116685Y-111840901D03*
D22*
X273656685Y-111840901D03*
D31*
X273656685Y-110090901D03*
X271116685Y-110090901D03*
X266036685Y-110090901D03*
X263496685Y-110090901D03*
X273656685Y-109190901D03*
X271116685Y-109190901D03*
X266036685Y-109190901D03*
X263496685Y-109190901D03*
%TD*%
D10*
%TO.C,D3*%
X134231241Y-125029130D03*
X133321637Y-121856966D03*
%TD*%
D14*
%TO.C,D10*%
X195494239Y-117582677D03*
X195264043Y-114290715D03*
%TD*%
D10*
%TO.C,D6*%
X151533951Y-120067658D03*
X150624347Y-116895494D03*
%TD*%
D28*
%TO.C,D24*%
X234873004Y-162849989D03*
X235782608Y-159677825D03*
%TD*%
D29*
%TO.C,D7*%
X175503405Y-127855839D03*
X175044133Y-124587955D03*
%TD*%
D18*
%TO.C,D23*%
X215692678Y-160655854D03*
X216037622Y-157373932D03*
%TD*%
D29*
%TO.C,D9*%
X170771519Y-94186724D03*
X170312247Y-90918840D03*
%TD*%
D11*
%TO.C,H4*%
X260284462Y-163114007D03*
%TD*%
D32*
%TO.C,S4*%
X162015772Y-146554533D03*
D33*
X161462762Y-142811982D03*
D32*
X163915935Y-151367213D03*
D33*
X165662669Y-139319021D03*
D34*
X167302711Y-145038528D03*
D33*
X171075379Y-140055610D03*
D32*
X173528552Y-148610839D03*
X172589650Y-143522523D03*
D35*
X162514537Y-140221733D03*
D36*
X174223510Y-139152898D03*
%TD*%
D32*
%TO.C,S15*%
X219876685Y-82645901D03*
D33*
X220376685Y-78895901D03*
D32*
X220376685Y-87795901D03*
D33*
X225376685Y-76695901D03*
D34*
X225376685Y-82645901D03*
D33*
X230376685Y-78895901D03*
D32*
X230376685Y-87795901D03*
X230876685Y-82645901D03*
D37*
X222101685Y-76695901D03*
D38*
X233651685Y-78895901D03*
%TD*%
D32*
%TO.C,S3*%
X135341391Y-118833107D03*
D33*
X134788381Y-115090556D03*
D32*
X137241554Y-123645787D03*
D33*
X138988288Y-111597595D03*
D34*
X140628330Y-117317102D03*
D33*
X144400998Y-112334184D03*
D32*
X146854171Y-120889413D03*
X145915269Y-115801097D03*
D35*
X135840156Y-112500307D03*
D36*
X147549129Y-111431472D03*
%TD*%
D32*
%TO.C,S2*%
X140027226Y-135174556D03*
D33*
X139474216Y-131432005D03*
D32*
X141927389Y-139987236D03*
D33*
X143674123Y-127939044D03*
D34*
X145314165Y-133658551D03*
D33*
X149086833Y-128675633D03*
D32*
X151540006Y-137230862D03*
X150601104Y-132142546D03*
D35*
X140525991Y-128841756D03*
D36*
X152234964Y-127772921D03*
%TD*%
D32*
%TO.C,S21*%
X243539380Y-139127510D03*
D33*
X245053651Y-135660597D03*
D32*
X242600478Y-144215826D03*
D33*
X250466361Y-134924008D03*
D34*
X248826319Y-140643515D03*
D33*
X254666268Y-138416969D03*
D32*
X252213095Y-146972200D03*
X254113258Y-142159520D03*
D39*
X247318229Y-134021296D03*
D40*
X257814400Y-139319683D03*
%TD*%
D32*
%TO.C,S10*%
X197868356Y-111752866D03*
D33*
X198105551Y-107977122D03*
D32*
X198726384Y-116855442D03*
D33*
X202939907Y-105433699D03*
D34*
X203354958Y-111369205D03*
D33*
X208081191Y-107279557D03*
D32*
X208702024Y-116157877D03*
X208841560Y-110985544D03*
D41*
X199672885Y-105662151D03*
D42*
X211348214Y-107051105D03*
%TD*%
D32*
%TO.C,S6*%
X152644102Y-113871635D03*
D33*
X152091092Y-110129084D03*
D32*
X154544265Y-118684315D03*
D33*
X156290999Y-106636123D03*
D34*
X157931041Y-112355630D03*
D33*
X161703709Y-107372712D03*
D32*
X164156882Y-115927941D03*
X163217980Y-110839625D03*
D35*
X153142867Y-107538835D03*
D36*
X164851840Y-106470000D03*
%TD*%
D32*
%TO.C,S8*%
X175099128Y-105040062D03*
X176311003Y-110070356D03*
D33*
X175072364Y-101256970D03*
X179717522Y-98382515D03*
D34*
X180545602Y-104274610D03*
D33*
X184975043Y-99865239D03*
D32*
X186213684Y-108678625D03*
X185992076Y-103509158D03*
D43*
X176474394Y-98838307D03*
D44*
X188218171Y-99409447D03*
%TD*%
D32*
%TO.C,S14*%
X219876685Y-99645901D03*
D33*
X220376685Y-95895901D03*
D32*
X220376685Y-104795901D03*
D33*
X225376685Y-93695901D03*
D34*
X225376685Y-99645901D03*
D33*
X230376685Y-95895901D03*
D32*
X230376685Y-104795901D03*
X230876685Y-99645901D03*
D37*
X222101685Y-93695901D03*
D38*
X233651685Y-95895901D03*
%TD*%
D32*
%TO.C,S17*%
X237876685Y-99645901D03*
D33*
X238376685Y-95895901D03*
D32*
X238376685Y-104795901D03*
D33*
X243376685Y-93695901D03*
D34*
X243376685Y-99645901D03*
D33*
X248376685Y-95895901D03*
D32*
X248376685Y-104795901D03*
X248876685Y-99645901D03*
D37*
X240101685Y-93695901D03*
D38*
X251651685Y-95895901D03*
%TD*%
D32*
%TO.C,S1*%
X144713061Y-151516005D03*
D33*
X144160051Y-147773454D03*
D32*
X146613224Y-156328685D03*
D33*
X148359958Y-144280493D03*
D34*
X150000000Y-150000000D03*
D33*
X153772668Y-145017082D03*
D32*
X156225841Y-153572311D03*
X155286939Y-148483995D03*
D35*
X145211826Y-145183205D03*
D36*
X156920799Y-144114370D03*
%TD*%
D32*
%TO.C,S18*%
X237876685Y-82645901D03*
D33*
X238376685Y-78895901D03*
D32*
X238376685Y-87795901D03*
D33*
X243376685Y-76695901D03*
D34*
X243376685Y-82645901D03*
D33*
X248376685Y-78895901D03*
D32*
X248376685Y-87795901D03*
X248876685Y-82645901D03*
D37*
X240101685Y-76695901D03*
D38*
X251651685Y-78895901D03*
%TD*%
D32*
%TO.C,S9*%
X172733185Y-88205505D03*
X173945060Y-93235799D03*
D33*
X172706421Y-84422413D03*
X177351579Y-81547958D03*
D34*
X178179659Y-87440053D03*
D33*
X182609100Y-83030682D03*
D32*
X183847741Y-91844068D03*
X183626133Y-86674601D03*
D43*
X174108451Y-82003750D03*
D44*
X185852228Y-82574890D03*
%TD*%
D32*
%TO.C,S5*%
X157329937Y-130213084D03*
D33*
X156776927Y-126470533D03*
D32*
X159230100Y-135025764D03*
D33*
X160976834Y-122977572D03*
D34*
X162616876Y-128697079D03*
D33*
X166389544Y-123714161D03*
D32*
X168842717Y-132269390D03*
X167903815Y-127181074D03*
D35*
X157828702Y-123880284D03*
D36*
X169537675Y-122811449D03*
%TD*%
D32*
%TO.C,S11*%
X196682496Y-94794277D03*
D33*
X196919691Y-91018533D03*
D32*
X197540524Y-99896853D03*
D33*
X201754047Y-88475110D03*
D34*
X202169098Y-94410616D03*
D33*
X206895331Y-90320968D03*
D32*
X207516164Y-99199288D03*
X207655700Y-94026955D03*
D41*
X198487025Y-88703562D03*
D42*
X210162354Y-90092516D03*
%TD*%
D32*
%TO.C,S24*%
X239097857Y-158183755D03*
D33*
X240612128Y-154716842D03*
D32*
X238158955Y-163272071D03*
D33*
X246024838Y-153980253D03*
D34*
X244384796Y-159699760D03*
D33*
X250224745Y-157473214D03*
D32*
X247771572Y-166028445D03*
X249671735Y-161215765D03*
D39*
X242876706Y-153077541D03*
D40*
X253372877Y-158375928D03*
%TD*%
D32*
%TO.C,S22*%
X262793404Y-145423468D03*
X260985189Y-150271444D03*
D33*
X264886693Y-142272176D03*
X270345079Y-142486684D03*
D34*
X267736771Y-147834509D03*
D33*
X273874633Y-146655887D03*
D32*
X269973130Y-154655154D03*
X272680138Y-150245550D03*
D45*
X267401529Y-141051019D03*
D46*
X276818184Y-148091553D03*
%TD*%
D32*
%TO.C,S20*%
X223484586Y-136270627D03*
D33*
X224373828Y-132593435D03*
D32*
X223443525Y-141444679D03*
D33*
X229576400Y-130928129D03*
D34*
X228954456Y-136845534D03*
D33*
X234319047Y-133638719D03*
D32*
X233388744Y-142489964D03*
X234424326Y-137420441D03*
D47*
X226319341Y-130585798D03*
D48*
X237576106Y-133981050D03*
%TD*%
D32*
%TO.C,S16*%
X237876685Y-116645901D03*
D33*
X238376685Y-112895901D03*
D32*
X238376685Y-121795901D03*
D33*
X243376685Y-110695901D03*
D34*
X243376685Y-116645901D03*
D33*
X248376685Y-112895901D03*
D32*
X248376685Y-121795901D03*
X248876685Y-116645901D03*
D37*
X240101685Y-110695901D03*
D38*
X251651685Y-112895901D03*
%TD*%
D32*
%TO.C,S23*%
X219043063Y-155326872D03*
D33*
X219932305Y-151649680D03*
D32*
X219002002Y-160500924D03*
D33*
X225134877Y-149984374D03*
D34*
X224512933Y-155901779D03*
D33*
X229877524Y-152694964D03*
D32*
X228947221Y-161546209D03*
X229982803Y-156476686D03*
D47*
X221877818Y-149642043D03*
D48*
X233134583Y-153037295D03*
%TD*%
D32*
%TO.C,S19*%
X203238377Y-136939626D03*
D33*
X203475572Y-133163882D03*
D32*
X204096405Y-142042202D03*
D33*
X208309928Y-130620459D03*
D34*
X208724979Y-136555965D03*
D33*
X213451212Y-132466317D03*
D32*
X214072045Y-141344637D03*
X214211581Y-136172304D03*
D41*
X205042906Y-130848911D03*
D42*
X216718235Y-132237865D03*
%TD*%
D32*
%TO.C,S13*%
X219876685Y-116645901D03*
D33*
X220376685Y-112895901D03*
D32*
X220376685Y-121795901D03*
D33*
X225376685Y-110695901D03*
D34*
X225376685Y-116645901D03*
D33*
X230376685Y-112895901D03*
D32*
X230376685Y-121795901D03*
X230876685Y-116645901D03*
D37*
X222101685Y-110695901D03*
D38*
X233651685Y-112895901D03*
%TD*%
D32*
%TO.C,S7*%
X177465071Y-121874619D03*
X178676946Y-126904913D03*
D33*
X177438307Y-118091527D03*
X182083465Y-115217072D03*
D34*
X182911545Y-121109167D03*
D33*
X187340986Y-116699796D03*
D32*
X188579627Y-125513182D03*
X188358019Y-120343715D03*
D43*
X178840337Y-115672864D03*
D44*
X190584114Y-116244004D03*
%TD*%
D32*
%TO.C,S12*%
X195496636Y-77835688D03*
D33*
X195733831Y-74059944D03*
D32*
X196354664Y-82938264D03*
D33*
X200568187Y-71516521D03*
D34*
X200983238Y-77452027D03*
D33*
X205709471Y-73362379D03*
D32*
X206330304Y-82240699D03*
X206469840Y-77068366D03*
D41*
X197301165Y-71744973D03*
D42*
X208976494Y-73133927D03*
%TD*%
M02*
