%TF.GenerationSoftware,KiCad,Pcbnew,9.0.7-9.0.7~ubuntu24.04.1*%
%TF.CreationDate,2026-03-11T21:20:09-04:00*%
%TF.ProjectId,board,626f6172-642e-46b6-9963-61645f706362,v1.0.0*%
%TF.SameCoordinates,Original*%
%TF.FileFunction,Profile,NP*%
%FSLAX46Y46*%
G04 Gerber Fmt 4.6, Leading zero omitted, Abs format (unit mm)*
G04 Created by KiCad (PCBNEW 9.0.7-9.0.7~ubuntu24.04.1) date 2026-03-11 21:20:09*
%MOMM*%
%LPD*%
G01*
G04 APERTURE LIST*
%TA.AperFunction,Profile*%
%ADD10C,0.150000*%
%TD*%
G04 APERTURE END LIST*
D10*
X127241238Y-113077839D02*
G75*
G02*
X128874527Y-107835460I4806312J1378189D01*
G01*
X271923171Y-163654997D02*
X254118669Y-172762532D01*
X250895085Y-173220701D02*
X213521932Y-166015286D01*
X165634098Y-77857923D02*
X187705887Y-67631974D01*
X140420844Y-159040590D02*
X127241237Y-113077839D01*
X189458997Y-67180898D02*
X211122473Y-65666040D01*
X194723741Y-149167099D02*
X181680807Y-152414216D01*
X284776685Y-76595901D02*
X284776685Y-133201942D01*
X283219313Y-142346555D02*
G75*
G02*
X282791513Y-143657441I-4921813J880955D01*
G01*
X187705888Y-67631974D02*
G75*
G02*
X189458996Y-67180890I2101912J-4536726D01*
G01*
X282791507Y-143657438D02*
X274140108Y-161395435D01*
X194723741Y-149167100D02*
G75*
G02*
X199827300Y-150884610I1207959J-4851900D01*
G01*
X210572873Y-164240060D02*
X199827262Y-150884639D01*
X254118669Y-172762532D02*
G75*
G02*
X250895081Y-173220722I-2277069J4451432D01*
G01*
X146605340Y-162468713D02*
G75*
G02*
X140420897Y-159040576I-1378140J4806313D01*
G01*
X279776685Y-71595901D02*
G75*
G02*
X284776699Y-76595901I15J-4999999D01*
G01*
X284776685Y-133201942D02*
G75*
G02*
X284698454Y-134082913I-4999985J42D01*
G01*
X212626586Y-65789170D02*
X236506944Y-71460591D01*
X237662274Y-71595901D02*
G75*
G02*
X236506945Y-71460586I26J5000001D01*
G01*
X211122473Y-65666040D02*
G75*
G02*
X212626589Y-65789156I348827J-4987860D01*
G01*
X213521932Y-166015285D02*
G75*
G02*
X210572881Y-164240053I946568J4909585D01*
G01*
X284698462Y-134082914D02*
X283219314Y-142346555D01*
X128874529Y-107835461D02*
X164562973Y-78530477D01*
X181510530Y-152459809D02*
G75*
G02*
X181680807Y-152414215I1377870J-4805091D01*
G01*
X181510530Y-152459810D02*
X146605340Y-162468712D01*
X274140108Y-161395435D02*
G75*
G02*
X271923183Y-163655020I-4494008J2191835D01*
G01*
X164562973Y-78530477D02*
G75*
G02*
X165634093Y-77857912I3173027J-3864123D01*
G01*
X237662274Y-71595901D02*
X279776685Y-71595901D01*
M02*
