%TF.GenerationSoftware,KiCad,Pcbnew,9.0.7-9.0.7~ubuntu24.04.1*%
%TF.CreationDate,2026-03-11T21:20:09-04:00*%
%TF.ProjectId,board,626f6172-642e-46b6-9963-61645f706362,v1.0.0*%
%TF.SameCoordinates,Original*%
%TF.FileFunction,Legend,Bot*%
%TF.FilePolarity,Positive*%
%FSLAX46Y46*%
G04 Gerber Fmt 4.6, Leading zero omitted, Abs format (unit mm)*
G04 Created by KiCad (PCBNEW 9.0.7-9.0.7~ubuntu24.04.1) date 2026-03-11 21:20:09*
%MOMM*%
%LPD*%
G01*
G04 APERTURE LIST*
%ADD10C,0.300000*%
%ADD11C,0.150000*%
%ADD12C,0.100000*%
%ADD13C,0.120000*%
G04 APERTURE END LIST*
D10*
X270445489Y-131300828D02*
X270445489Y-129800828D01*
X269802631Y-131229400D02*
X269659774Y-131300828D01*
X269659774Y-131300828D02*
X269374060Y-131300828D01*
X269374060Y-131300828D02*
X269231203Y-131229400D01*
X269231203Y-131229400D02*
X269159774Y-131086542D01*
X269159774Y-131086542D02*
X269159774Y-131015114D01*
X269159774Y-131015114D02*
X269231203Y-130872257D01*
X269231203Y-130872257D02*
X269374060Y-130800828D01*
X269374060Y-130800828D02*
X269588346Y-130800828D01*
X269588346Y-130800828D02*
X269731203Y-130729400D01*
X269731203Y-130729400D02*
X269802631Y-130586542D01*
X269802631Y-130586542D02*
X269802631Y-130515114D01*
X269802631Y-130515114D02*
X269731203Y-130372257D01*
X269731203Y-130372257D02*
X269588346Y-130300828D01*
X269588346Y-130300828D02*
X269374060Y-130300828D01*
X269374060Y-130300828D02*
X269231203Y-130372257D01*
X267874060Y-131300828D02*
X267874060Y-130515114D01*
X267874060Y-130515114D02*
X267945488Y-130372257D01*
X267945488Y-130372257D02*
X268088345Y-130300828D01*
X268088345Y-130300828D02*
X268374060Y-130300828D01*
X268374060Y-130300828D02*
X268516917Y-130372257D01*
X267874060Y-131229400D02*
X268016917Y-131300828D01*
X268016917Y-131300828D02*
X268374060Y-131300828D01*
X268374060Y-131300828D02*
X268516917Y-131229400D01*
X268516917Y-131229400D02*
X268588345Y-131086542D01*
X268588345Y-131086542D02*
X268588345Y-130943685D01*
X268588345Y-130943685D02*
X268516917Y-130800828D01*
X268516917Y-130800828D02*
X268374060Y-130729400D01*
X268374060Y-130729400D02*
X268016917Y-130729400D01*
X268016917Y-130729400D02*
X267874060Y-130657971D01*
X266516917Y-131300828D02*
X266516917Y-130515114D01*
X266516917Y-130515114D02*
X266588345Y-130372257D01*
X266588345Y-130372257D02*
X266731202Y-130300828D01*
X266731202Y-130300828D02*
X267016917Y-130300828D01*
X267016917Y-130300828D02*
X267159774Y-130372257D01*
X266516917Y-131229400D02*
X266659774Y-131300828D01*
X266659774Y-131300828D02*
X267016917Y-131300828D01*
X267016917Y-131300828D02*
X267159774Y-131229400D01*
X267159774Y-131229400D02*
X267231202Y-131086542D01*
X267231202Y-131086542D02*
X267231202Y-130943685D01*
X267231202Y-130943685D02*
X267159774Y-130800828D01*
X267159774Y-130800828D02*
X267016917Y-130729400D01*
X267016917Y-130729400D02*
X266659774Y-130729400D01*
X266659774Y-130729400D02*
X266516917Y-130657971D01*
X265159774Y-131229400D02*
X265302631Y-131300828D01*
X265302631Y-131300828D02*
X265588345Y-131300828D01*
X265588345Y-131300828D02*
X265731202Y-131229400D01*
X265731202Y-131229400D02*
X265802631Y-131157971D01*
X265802631Y-131157971D02*
X265874059Y-131015114D01*
X265874059Y-131015114D02*
X265874059Y-130586542D01*
X265874059Y-130586542D02*
X265802631Y-130443685D01*
X265802631Y-130443685D02*
X265731202Y-130372257D01*
X265731202Y-130372257D02*
X265588345Y-130300828D01*
X265588345Y-130300828D02*
X265302631Y-130300828D01*
X265302631Y-130300828D02*
X265159774Y-130372257D01*
X263088345Y-129800828D02*
X262802631Y-129800828D01*
X262802631Y-129800828D02*
X262659774Y-129872257D01*
X262659774Y-129872257D02*
X262516917Y-130015114D01*
X262516917Y-130015114D02*
X262445488Y-130300828D01*
X262445488Y-130300828D02*
X262445488Y-130800828D01*
X262445488Y-130800828D02*
X262516917Y-131086542D01*
X262516917Y-131086542D02*
X262659774Y-131229400D01*
X262659774Y-131229400D02*
X262802631Y-131300828D01*
X262802631Y-131300828D02*
X263088345Y-131300828D01*
X263088345Y-131300828D02*
X263231203Y-131229400D01*
X263231203Y-131229400D02*
X263374060Y-131086542D01*
X263374060Y-131086542D02*
X263445488Y-130800828D01*
X263445488Y-130800828D02*
X263445488Y-130300828D01*
X263445488Y-130300828D02*
X263374060Y-130015114D01*
X263374060Y-130015114D02*
X263231203Y-129872257D01*
X263231203Y-129872257D02*
X263088345Y-129800828D01*
X261588345Y-131300828D02*
X261731202Y-131229400D01*
X261731202Y-131229400D02*
X261802631Y-131086542D01*
X261802631Y-131086542D02*
X261802631Y-129800828D01*
X261088345Y-131229400D02*
X260945488Y-131300828D01*
X260945488Y-131300828D02*
X260659774Y-131300828D01*
X260659774Y-131300828D02*
X260516917Y-131229400D01*
X260516917Y-131229400D02*
X260445488Y-131086542D01*
X260445488Y-131086542D02*
X260445488Y-131015114D01*
X260445488Y-131015114D02*
X260516917Y-130872257D01*
X260516917Y-130872257D02*
X260659774Y-130800828D01*
X260659774Y-130800828D02*
X260874060Y-130800828D01*
X260874060Y-130800828D02*
X261016917Y-130729400D01*
X261016917Y-130729400D02*
X261088345Y-130586542D01*
X261088345Y-130586542D02*
X261088345Y-130515114D01*
X261088345Y-130515114D02*
X261016917Y-130372257D01*
X261016917Y-130372257D02*
X260874060Y-130300828D01*
X260874060Y-130300828D02*
X260659774Y-130300828D01*
X260659774Y-130300828D02*
X260516917Y-130372257D01*
X259588345Y-131300828D02*
X259731202Y-131229400D01*
X259731202Y-131229400D02*
X259802631Y-131157971D01*
X259802631Y-131157971D02*
X259874059Y-131015114D01*
X259874059Y-131015114D02*
X259874059Y-130586542D01*
X259874059Y-130586542D02*
X259802631Y-130443685D01*
X259802631Y-130443685D02*
X259731202Y-130372257D01*
X259731202Y-130372257D02*
X259588345Y-130300828D01*
X259588345Y-130300828D02*
X259374059Y-130300828D01*
X259374059Y-130300828D02*
X259231202Y-130372257D01*
X259231202Y-130372257D02*
X259159774Y-130443685D01*
X259159774Y-130443685D02*
X259088345Y-130586542D01*
X259088345Y-130586542D02*
X259088345Y-131015114D01*
X259088345Y-131015114D02*
X259159774Y-131157971D01*
X259159774Y-131157971D02*
X259231202Y-131229400D01*
X259231202Y-131229400D02*
X259374059Y-131300828D01*
X259374059Y-131300828D02*
X259588345Y-131300828D01*
X258445488Y-130300828D02*
X258445488Y-131300828D01*
X258445488Y-130443685D02*
X258374059Y-130372257D01*
X258374059Y-130372257D02*
X258231202Y-130300828D01*
X258231202Y-130300828D02*
X258016916Y-130300828D01*
X258016916Y-130300828D02*
X257874059Y-130372257D01*
X257874059Y-130372257D02*
X257802631Y-130515114D01*
X257802631Y-130515114D02*
X257802631Y-131300828D01*
X269802632Y-127300828D02*
X269802632Y-128800828D01*
X269802632Y-128229400D02*
X269945489Y-128300828D01*
X269945489Y-128300828D02*
X270231203Y-128300828D01*
X270231203Y-128300828D02*
X270374060Y-128229400D01*
X270374060Y-128229400D02*
X270445489Y-128157971D01*
X270445489Y-128157971D02*
X270516917Y-128015114D01*
X270516917Y-128015114D02*
X270516917Y-127586542D01*
X270516917Y-127586542D02*
X270445489Y-127443685D01*
X270445489Y-127443685D02*
X270374060Y-127372257D01*
X270374060Y-127372257D02*
X270231203Y-127300828D01*
X270231203Y-127300828D02*
X269945489Y-127300828D01*
X269945489Y-127300828D02*
X269802632Y-127372257D01*
X269231203Y-127300828D02*
X268945489Y-128300828D01*
X268945489Y-128300828D02*
X268659774Y-127586542D01*
X268659774Y-127586542D02*
X268374060Y-128300828D01*
X268374060Y-128300828D02*
X268088346Y-127300828D01*
X266945488Y-128229400D02*
X267088345Y-128300828D01*
X267088345Y-128300828D02*
X267374060Y-128300828D01*
X267374060Y-128300828D02*
X267516917Y-128229400D01*
X267516917Y-128229400D02*
X267588345Y-128086542D01*
X267588345Y-128086542D02*
X267588345Y-127515114D01*
X267588345Y-127515114D02*
X267516917Y-127372257D01*
X267516917Y-127372257D02*
X267374060Y-127300828D01*
X267374060Y-127300828D02*
X267088345Y-127300828D01*
X267088345Y-127300828D02*
X266945488Y-127372257D01*
X266945488Y-127372257D02*
X266874060Y-127515114D01*
X266874060Y-127515114D02*
X266874060Y-127657971D01*
X266874060Y-127657971D02*
X267588345Y-127800828D01*
X266231203Y-128300828D02*
X266231203Y-127300828D01*
X266231203Y-127586542D02*
X266159774Y-127443685D01*
X266159774Y-127443685D02*
X266088346Y-127372257D01*
X266088346Y-127372257D02*
X265945488Y-127300828D01*
X265945488Y-127300828D02*
X265802631Y-127300828D01*
X265302632Y-128300828D02*
X265302632Y-126800828D01*
X265159775Y-127729400D02*
X264731203Y-128300828D01*
X264731203Y-127300828D02*
X265302632Y-127872257D01*
X264231203Y-127300828D02*
X263874060Y-128300828D01*
X263516917Y-127300828D02*
X263874060Y-128300828D01*
X263874060Y-128300828D02*
X264016917Y-128657971D01*
X264016917Y-128657971D02*
X264088346Y-128729400D01*
X264088346Y-128729400D02*
X264231203Y-128800828D01*
X261945489Y-127300828D02*
X261588346Y-128300828D01*
X261588346Y-128300828D02*
X261231203Y-127300828D01*
X259874060Y-128300828D02*
X260731203Y-128300828D01*
X260302632Y-128300828D02*
X260302632Y-126800828D01*
X260302632Y-126800828D02*
X260445489Y-127015114D01*
X260445489Y-127015114D02*
X260588346Y-127157971D01*
X260588346Y-127157971D02*
X260731203Y-127229400D01*
X259231204Y-128157971D02*
X259159775Y-128229400D01*
X259159775Y-128229400D02*
X259231204Y-128300828D01*
X259231204Y-128300828D02*
X259302632Y-128229400D01*
X259302632Y-128229400D02*
X259231204Y-128157971D01*
X259231204Y-128157971D02*
X259231204Y-128300828D01*
X258231203Y-126800828D02*
X258088346Y-126800828D01*
X258088346Y-126800828D02*
X257945489Y-126872257D01*
X257945489Y-126872257D02*
X257874061Y-126943685D01*
X257874061Y-126943685D02*
X257802632Y-127086542D01*
X257802632Y-127086542D02*
X257731203Y-127372257D01*
X257731203Y-127372257D02*
X257731203Y-127729400D01*
X257731203Y-127729400D02*
X257802632Y-128015114D01*
X257802632Y-128015114D02*
X257874061Y-128157971D01*
X257874061Y-128157971D02*
X257945489Y-128229400D01*
X257945489Y-128229400D02*
X258088346Y-128300828D01*
X258088346Y-128300828D02*
X258231203Y-128300828D01*
X258231203Y-128300828D02*
X258374061Y-128229400D01*
X258374061Y-128229400D02*
X258445489Y-128157971D01*
X258445489Y-128157971D02*
X258516918Y-128015114D01*
X258516918Y-128015114D02*
X258588346Y-127729400D01*
X258588346Y-127729400D02*
X258588346Y-127372257D01*
X258588346Y-127372257D02*
X258516918Y-127086542D01*
X258516918Y-127086542D02*
X258445489Y-126943685D01*
X258445489Y-126943685D02*
X258374061Y-126872257D01*
X258374061Y-126872257D02*
X258231203Y-126800828D01*
D11*
X282129065Y-116200720D02*
X281938589Y-116200720D01*
X281938589Y-116200720D02*
X281843351Y-116248339D01*
X281843351Y-116248339D02*
X281748113Y-116343577D01*
X281748113Y-116343577D02*
X281700494Y-116534053D01*
X281700494Y-116534053D02*
X281700494Y-116867386D01*
X281700494Y-116867386D02*
X281748113Y-117057862D01*
X281748113Y-117057862D02*
X281843351Y-117153101D01*
X281843351Y-117153101D02*
X281938589Y-117200720D01*
X281938589Y-117200720D02*
X282129065Y-117200720D01*
X282129065Y-117200720D02*
X282224303Y-117153101D01*
X282224303Y-117153101D02*
X282319541Y-117057862D01*
X282319541Y-117057862D02*
X282367160Y-116867386D01*
X282367160Y-116867386D02*
X282367160Y-116534053D01*
X282367160Y-116534053D02*
X282319541Y-116343577D01*
X282319541Y-116343577D02*
X282224303Y-116248339D01*
X282224303Y-116248339D02*
X282129065Y-116200720D01*
X280938589Y-116676910D02*
X281271922Y-116676910D01*
X281271922Y-117200720D02*
X281271922Y-116200720D01*
X281271922Y-116200720D02*
X280795732Y-116200720D01*
X280081446Y-116676910D02*
X280414779Y-116676910D01*
X280414779Y-117200720D02*
X280414779Y-116200720D01*
X280414779Y-116200720D02*
X279938589Y-116200720D01*
X281795732Y-126200720D02*
X281605256Y-126200720D01*
X281605256Y-126200720D02*
X281510018Y-126248339D01*
X281510018Y-126248339D02*
X281414780Y-126343577D01*
X281414780Y-126343577D02*
X281367161Y-126534053D01*
X281367161Y-126534053D02*
X281367161Y-126867386D01*
X281367161Y-126867386D02*
X281414780Y-127057862D01*
X281414780Y-127057862D02*
X281510018Y-127153101D01*
X281510018Y-127153101D02*
X281605256Y-127200720D01*
X281605256Y-127200720D02*
X281795732Y-127200720D01*
X281795732Y-127200720D02*
X281890970Y-127153101D01*
X281890970Y-127153101D02*
X281986208Y-127057862D01*
X281986208Y-127057862D02*
X282033827Y-126867386D01*
X282033827Y-126867386D02*
X282033827Y-126534053D01*
X282033827Y-126534053D02*
X281986208Y-126343577D01*
X281986208Y-126343577D02*
X281890970Y-126248339D01*
X281890970Y-126248339D02*
X281795732Y-126200720D01*
X280938589Y-127200720D02*
X280938589Y-126200720D01*
X280938589Y-126200720D02*
X280367161Y-127200720D01*
X280367161Y-127200720D02*
X280367161Y-126200720D01*
X267274779Y-91600720D02*
X267274779Y-90600720D01*
X267274779Y-90600720D02*
X266893827Y-90600720D01*
X266893827Y-90600720D02*
X266798589Y-90648339D01*
X266798589Y-90648339D02*
X266750970Y-90695958D01*
X266750970Y-90695958D02*
X266703351Y-90791196D01*
X266703351Y-90791196D02*
X266703351Y-90934053D01*
X266703351Y-90934053D02*
X266750970Y-91029291D01*
X266750970Y-91029291D02*
X266798589Y-91076910D01*
X266798589Y-91076910D02*
X266893827Y-91124529D01*
X266893827Y-91124529D02*
X267274779Y-91124529D01*
X266370017Y-90600720D02*
X265750970Y-90600720D01*
X265750970Y-90600720D02*
X266084303Y-90981672D01*
X266084303Y-90981672D02*
X265941446Y-90981672D01*
X265941446Y-90981672D02*
X265846208Y-91029291D01*
X265846208Y-91029291D02*
X265798589Y-91076910D01*
X265798589Y-91076910D02*
X265750970Y-91172148D01*
X265750970Y-91172148D02*
X265750970Y-91410243D01*
X265750970Y-91410243D02*
X265798589Y-91505481D01*
X265798589Y-91505481D02*
X265846208Y-91553101D01*
X265846208Y-91553101D02*
X265941446Y-91600720D01*
X265941446Y-91600720D02*
X266227160Y-91600720D01*
X266227160Y-91600720D02*
X266322398Y-91553101D01*
X266322398Y-91553101D02*
X266370017Y-91505481D01*
X267274779Y-81440720D02*
X267274779Y-80440720D01*
X267274779Y-80440720D02*
X266893827Y-80440720D01*
X266893827Y-80440720D02*
X266798589Y-80488339D01*
X266798589Y-80488339D02*
X266750970Y-80535958D01*
X266750970Y-80535958D02*
X266703351Y-80631196D01*
X266703351Y-80631196D02*
X266703351Y-80774053D01*
X266703351Y-80774053D02*
X266750970Y-80869291D01*
X266750970Y-80869291D02*
X266798589Y-80916910D01*
X266798589Y-80916910D02*
X266893827Y-80964529D01*
X266893827Y-80964529D02*
X267274779Y-80964529D01*
X266084303Y-80440720D02*
X265989065Y-80440720D01*
X265989065Y-80440720D02*
X265893827Y-80488339D01*
X265893827Y-80488339D02*
X265846208Y-80535958D01*
X265846208Y-80535958D02*
X265798589Y-80631196D01*
X265798589Y-80631196D02*
X265750970Y-80821672D01*
X265750970Y-80821672D02*
X265750970Y-81059767D01*
X265750970Y-81059767D02*
X265798589Y-81250243D01*
X265798589Y-81250243D02*
X265846208Y-81345481D01*
X265846208Y-81345481D02*
X265893827Y-81393101D01*
X265893827Y-81393101D02*
X265989065Y-81440720D01*
X265989065Y-81440720D02*
X266084303Y-81440720D01*
X266084303Y-81440720D02*
X266179541Y-81393101D01*
X266179541Y-81393101D02*
X266227160Y-81345481D01*
X266227160Y-81345481D02*
X266274779Y-81250243D01*
X266274779Y-81250243D02*
X266322398Y-81059767D01*
X266322398Y-81059767D02*
X266322398Y-80821672D01*
X266322398Y-80821672D02*
X266274779Y-80631196D01*
X266274779Y-80631196D02*
X266227160Y-80535958D01*
X266227160Y-80535958D02*
X266179541Y-80488339D01*
X266179541Y-80488339D02*
X266084303Y-80440720D01*
X267888589Y-85568339D02*
X267983827Y-85520720D01*
X267983827Y-85520720D02*
X268126684Y-85520720D01*
X268126684Y-85520720D02*
X268269541Y-85568339D01*
X268269541Y-85568339D02*
X268364779Y-85663577D01*
X268364779Y-85663577D02*
X268412398Y-85758815D01*
X268412398Y-85758815D02*
X268460017Y-85949291D01*
X268460017Y-85949291D02*
X268460017Y-86092148D01*
X268460017Y-86092148D02*
X268412398Y-86282624D01*
X268412398Y-86282624D02*
X268364779Y-86377862D01*
X268364779Y-86377862D02*
X268269541Y-86473101D01*
X268269541Y-86473101D02*
X268126684Y-86520720D01*
X268126684Y-86520720D02*
X268031446Y-86520720D01*
X268031446Y-86520720D02*
X267888589Y-86473101D01*
X267888589Y-86473101D02*
X267840970Y-86425481D01*
X267840970Y-86425481D02*
X267840970Y-86092148D01*
X267840970Y-86092148D02*
X268031446Y-86092148D01*
X267412398Y-86520720D02*
X267412398Y-85520720D01*
X267412398Y-85520720D02*
X266840970Y-86520720D01*
X266840970Y-86520720D02*
X266840970Y-85520720D01*
X266364779Y-86520720D02*
X266364779Y-85520720D01*
X266364779Y-85520720D02*
X266126684Y-85520720D01*
X266126684Y-85520720D02*
X265983827Y-85568339D01*
X265983827Y-85568339D02*
X265888589Y-85663577D01*
X265888589Y-85663577D02*
X265840970Y-85758815D01*
X265840970Y-85758815D02*
X265793351Y-85949291D01*
X265793351Y-85949291D02*
X265793351Y-86092148D01*
X265793351Y-86092148D02*
X265840970Y-86282624D01*
X265840970Y-86282624D02*
X265888589Y-86377862D01*
X265888589Y-86377862D02*
X265983827Y-86473101D01*
X265983827Y-86473101D02*
X266126684Y-86520720D01*
X266126684Y-86520720D02*
X266364779Y-86520720D01*
X271240970Y-99220720D02*
X271240970Y-98220720D01*
X271240970Y-98220720D02*
X270860018Y-98220720D01*
X270860018Y-98220720D02*
X270764780Y-98268339D01*
X270764780Y-98268339D02*
X270717161Y-98315958D01*
X270717161Y-98315958D02*
X270669542Y-98411196D01*
X270669542Y-98411196D02*
X270669542Y-98554053D01*
X270669542Y-98554053D02*
X270717161Y-98649291D01*
X270717161Y-98649291D02*
X270764780Y-98696910D01*
X270764780Y-98696910D02*
X270860018Y-98744529D01*
X270860018Y-98744529D02*
X271240970Y-98744529D01*
X269717161Y-99220720D02*
X270288589Y-99220720D01*
X270002875Y-99220720D02*
X270002875Y-98220720D01*
X270002875Y-98220720D02*
X270098113Y-98363577D01*
X270098113Y-98363577D02*
X270193351Y-98458815D01*
X270193351Y-98458815D02*
X270288589Y-98506434D01*
X268812399Y-98220720D02*
X269288589Y-98220720D01*
X269288589Y-98220720D02*
X269336208Y-98696910D01*
X269336208Y-98696910D02*
X269288589Y-98649291D01*
X269288589Y-98649291D02*
X269193351Y-98601672D01*
X269193351Y-98601672D02*
X268955256Y-98601672D01*
X268955256Y-98601672D02*
X268860018Y-98649291D01*
X268860018Y-98649291D02*
X268812399Y-98696910D01*
X268812399Y-98696910D02*
X268764780Y-98792148D01*
X268764780Y-98792148D02*
X268764780Y-99030243D01*
X268764780Y-99030243D02*
X268812399Y-99125481D01*
X268812399Y-99125481D02*
X268860018Y-99173101D01*
X268860018Y-99173101D02*
X268955256Y-99220720D01*
X268955256Y-99220720D02*
X269193351Y-99220720D01*
X269193351Y-99220720D02*
X269288589Y-99173101D01*
X269288589Y-99173101D02*
X269336208Y-99125481D01*
X276719543Y-76355720D02*
X277195733Y-76355720D01*
X277195733Y-76355720D02*
X277195733Y-75355720D01*
X275624304Y-76355720D02*
X275624304Y-75355720D01*
X275195733Y-76355720D02*
X275195733Y-75831910D01*
X275195733Y-75831910D02*
X275243352Y-75736672D01*
X275243352Y-75736672D02*
X275338590Y-75689053D01*
X275338590Y-75689053D02*
X275481447Y-75689053D01*
X275481447Y-75689053D02*
X275576685Y-75736672D01*
X275576685Y-75736672D02*
X275624304Y-75784291D01*
X274290971Y-76355720D02*
X274290971Y-75831910D01*
X274290971Y-75831910D02*
X274338590Y-75736672D01*
X274338590Y-75736672D02*
X274433828Y-75689053D01*
X274433828Y-75689053D02*
X274624304Y-75689053D01*
X274624304Y-75689053D02*
X274719542Y-75736672D01*
X274290971Y-76308101D02*
X274386209Y-76355720D01*
X274386209Y-76355720D02*
X274624304Y-76355720D01*
X274624304Y-76355720D02*
X274719542Y-76308101D01*
X274719542Y-76308101D02*
X274767161Y-76212862D01*
X274767161Y-76212862D02*
X274767161Y-76117624D01*
X274767161Y-76117624D02*
X274719542Y-76022386D01*
X274719542Y-76022386D02*
X274624304Y-75974767D01*
X274624304Y-75974767D02*
X274386209Y-75974767D01*
X274386209Y-75974767D02*
X274290971Y-75927148D01*
X273814780Y-75689053D02*
X273814780Y-76355720D01*
X273814780Y-75784291D02*
X273767161Y-75736672D01*
X273767161Y-75736672D02*
X273671923Y-75689053D01*
X273671923Y-75689053D02*
X273529066Y-75689053D01*
X273529066Y-75689053D02*
X273433828Y-75736672D01*
X273433828Y-75736672D02*
X273386209Y-75831910D01*
X273386209Y-75831910D02*
X273386209Y-76355720D01*
X272481447Y-76355720D02*
X272481447Y-75355720D01*
X272481447Y-76308101D02*
X272576685Y-76355720D01*
X272576685Y-76355720D02*
X272767161Y-76355720D01*
X272767161Y-76355720D02*
X272862399Y-76308101D01*
X272862399Y-76308101D02*
X272910018Y-76260481D01*
X272910018Y-76260481D02*
X272957637Y-76165243D01*
X272957637Y-76165243D02*
X272957637Y-75879529D01*
X272957637Y-75879529D02*
X272910018Y-75784291D01*
X272910018Y-75784291D02*
X272862399Y-75736672D01*
X272862399Y-75736672D02*
X272767161Y-75689053D01*
X272767161Y-75689053D02*
X272576685Y-75689053D01*
X272576685Y-75689053D02*
X272481447Y-75736672D01*
X271243351Y-76355720D02*
X271243351Y-75355720D01*
X271243351Y-75736672D02*
X271148113Y-75689053D01*
X271148113Y-75689053D02*
X270957637Y-75689053D01*
X270957637Y-75689053D02*
X270862399Y-75736672D01*
X270862399Y-75736672D02*
X270814780Y-75784291D01*
X270814780Y-75784291D02*
X270767161Y-75879529D01*
X270767161Y-75879529D02*
X270767161Y-76165243D01*
X270767161Y-76165243D02*
X270814780Y-76260481D01*
X270814780Y-76260481D02*
X270862399Y-76308101D01*
X270862399Y-76308101D02*
X270957637Y-76355720D01*
X270957637Y-76355720D02*
X271148113Y-76355720D01*
X271148113Y-76355720D02*
X271243351Y-76308101D01*
X269910018Y-76355720D02*
X269910018Y-75831910D01*
X269910018Y-75831910D02*
X269957637Y-75736672D01*
X269957637Y-75736672D02*
X270052875Y-75689053D01*
X270052875Y-75689053D02*
X270243351Y-75689053D01*
X270243351Y-75689053D02*
X270338589Y-75736672D01*
X269910018Y-76308101D02*
X270005256Y-76355720D01*
X270005256Y-76355720D02*
X270243351Y-76355720D01*
X270243351Y-76355720D02*
X270338589Y-76308101D01*
X270338589Y-76308101D02*
X270386208Y-76212862D01*
X270386208Y-76212862D02*
X270386208Y-76117624D01*
X270386208Y-76117624D02*
X270338589Y-76022386D01*
X270338589Y-76022386D02*
X270243351Y-75974767D01*
X270243351Y-75974767D02*
X270005256Y-75974767D01*
X270005256Y-75974767D02*
X269910018Y-75927148D01*
X269005256Y-76308101D02*
X269100494Y-76355720D01*
X269100494Y-76355720D02*
X269290970Y-76355720D01*
X269290970Y-76355720D02*
X269386208Y-76308101D01*
X269386208Y-76308101D02*
X269433827Y-76260481D01*
X269433827Y-76260481D02*
X269481446Y-76165243D01*
X269481446Y-76165243D02*
X269481446Y-75879529D01*
X269481446Y-75879529D02*
X269433827Y-75784291D01*
X269433827Y-75784291D02*
X269386208Y-75736672D01*
X269386208Y-75736672D02*
X269290970Y-75689053D01*
X269290970Y-75689053D02*
X269100494Y-75689053D01*
X269100494Y-75689053D02*
X269005256Y-75736672D01*
X268576684Y-76355720D02*
X268576684Y-75355720D01*
X268481446Y-75974767D02*
X268195732Y-76355720D01*
X268195732Y-75689053D02*
X268576684Y-76070005D01*
X267052874Y-76308101D02*
X266957636Y-76355720D01*
X266957636Y-76355720D02*
X266767160Y-76355720D01*
X266767160Y-76355720D02*
X266671922Y-76308101D01*
X266671922Y-76308101D02*
X266624303Y-76212862D01*
X266624303Y-76212862D02*
X266624303Y-76165243D01*
X266624303Y-76165243D02*
X266671922Y-76070005D01*
X266671922Y-76070005D02*
X266767160Y-76022386D01*
X266767160Y-76022386D02*
X266910017Y-76022386D01*
X266910017Y-76022386D02*
X267005255Y-75974767D01*
X267005255Y-75974767D02*
X267052874Y-75879529D01*
X267052874Y-75879529D02*
X267052874Y-75831910D01*
X267052874Y-75831910D02*
X267005255Y-75736672D01*
X267005255Y-75736672D02*
X266910017Y-75689053D01*
X266910017Y-75689053D02*
X266767160Y-75689053D01*
X266767160Y-75689053D02*
X266671922Y-75736672D01*
X266195731Y-76355720D02*
X266195731Y-75689053D01*
X266195731Y-75355720D02*
X266243350Y-75403339D01*
X266243350Y-75403339D02*
X266195731Y-75450958D01*
X266195731Y-75450958D02*
X266148112Y-75403339D01*
X266148112Y-75403339D02*
X266195731Y-75355720D01*
X266195731Y-75355720D02*
X266195731Y-75450958D01*
X265290970Y-76355720D02*
X265290970Y-75355720D01*
X265290970Y-76308101D02*
X265386208Y-76355720D01*
X265386208Y-76355720D02*
X265576684Y-76355720D01*
X265576684Y-76355720D02*
X265671922Y-76308101D01*
X265671922Y-76308101D02*
X265719541Y-76260481D01*
X265719541Y-76260481D02*
X265767160Y-76165243D01*
X265767160Y-76165243D02*
X265767160Y-75879529D01*
X265767160Y-75879529D02*
X265719541Y-75784291D01*
X265719541Y-75784291D02*
X265671922Y-75736672D01*
X265671922Y-75736672D02*
X265576684Y-75689053D01*
X265576684Y-75689053D02*
X265386208Y-75689053D01*
X265386208Y-75689053D02*
X265290970Y-75736672D01*
X264433827Y-76308101D02*
X264529065Y-76355720D01*
X264529065Y-76355720D02*
X264719541Y-76355720D01*
X264719541Y-76355720D02*
X264814779Y-76308101D01*
X264814779Y-76308101D02*
X264862398Y-76212862D01*
X264862398Y-76212862D02*
X264862398Y-75831910D01*
X264862398Y-75831910D02*
X264814779Y-75736672D01*
X264814779Y-75736672D02*
X264719541Y-75689053D01*
X264719541Y-75689053D02*
X264529065Y-75689053D01*
X264529065Y-75689053D02*
X264433827Y-75736672D01*
X264433827Y-75736672D02*
X264386208Y-75831910D01*
X264386208Y-75831910D02*
X264386208Y-75927148D01*
X264386208Y-75927148D02*
X264862398Y-76022386D01*
X262910017Y-76736672D02*
X262957636Y-76689053D01*
X262957636Y-76689053D02*
X263052874Y-76546196D01*
X263052874Y-76546196D02*
X263100493Y-76450958D01*
X263100493Y-76450958D02*
X263148112Y-76308101D01*
X263148112Y-76308101D02*
X263195731Y-76070005D01*
X263195731Y-76070005D02*
X263195731Y-75879529D01*
X263195731Y-75879529D02*
X263148112Y-75641434D01*
X263148112Y-75641434D02*
X263100493Y-75498577D01*
X263100493Y-75498577D02*
X263052874Y-75403339D01*
X263052874Y-75403339D02*
X262957636Y-75260481D01*
X262957636Y-75260481D02*
X262910017Y-75212862D01*
X262529064Y-76355720D02*
X262529064Y-75355720D01*
X262529064Y-75355720D02*
X262195731Y-76070005D01*
X262195731Y-76070005D02*
X261862398Y-75355720D01*
X261862398Y-75355720D02*
X261862398Y-76355720D01*
X261005255Y-75593815D02*
X261005255Y-76355720D01*
X260814779Y-76165243D02*
X261005255Y-76355720D01*
X261005255Y-76355720D02*
X261195731Y-76165243D01*
X260243350Y-76736672D02*
X260195731Y-76689053D01*
X260195731Y-76689053D02*
X260100493Y-76546196D01*
X260100493Y-76546196D02*
X260052874Y-76450958D01*
X260052874Y-76450958D02*
X260005255Y-76308101D01*
X260005255Y-76308101D02*
X259957636Y-76070005D01*
X259957636Y-76070005D02*
X259957636Y-75879529D01*
X259957636Y-75879529D02*
X260005255Y-75641434D01*
X260005255Y-75641434D02*
X260052874Y-75498577D01*
X260052874Y-75498577D02*
X260100493Y-75403339D01*
X260100493Y-75403339D02*
X260195731Y-75260481D01*
X260195731Y-75260481D02*
X260243350Y-75212862D01*
X270788589Y-80488339D02*
X270883827Y-80440720D01*
X270883827Y-80440720D02*
X271026684Y-80440720D01*
X271026684Y-80440720D02*
X271169541Y-80488339D01*
X271169541Y-80488339D02*
X271264779Y-80583577D01*
X271264779Y-80583577D02*
X271312398Y-80678815D01*
X271312398Y-80678815D02*
X271360017Y-80869291D01*
X271360017Y-80869291D02*
X271360017Y-81012148D01*
X271360017Y-81012148D02*
X271312398Y-81202624D01*
X271312398Y-81202624D02*
X271264779Y-81297862D01*
X271264779Y-81297862D02*
X271169541Y-81393101D01*
X271169541Y-81393101D02*
X271026684Y-81440720D01*
X271026684Y-81440720D02*
X270931446Y-81440720D01*
X270931446Y-81440720D02*
X270788589Y-81393101D01*
X270788589Y-81393101D02*
X270740970Y-81345481D01*
X270740970Y-81345481D02*
X270740970Y-81012148D01*
X270740970Y-81012148D02*
X270931446Y-81012148D01*
X270312398Y-81440720D02*
X270312398Y-80440720D01*
X270312398Y-80440720D02*
X269740970Y-81440720D01*
X269740970Y-81440720D02*
X269740970Y-80440720D01*
X269264779Y-81440720D02*
X269264779Y-80440720D01*
X269264779Y-80440720D02*
X269026684Y-80440720D01*
X269026684Y-80440720D02*
X268883827Y-80488339D01*
X268883827Y-80488339D02*
X268788589Y-80583577D01*
X268788589Y-80583577D02*
X268740970Y-80678815D01*
X268740970Y-80678815D02*
X268693351Y-80869291D01*
X268693351Y-80869291D02*
X268693351Y-81012148D01*
X268693351Y-81012148D02*
X268740970Y-81202624D01*
X268740970Y-81202624D02*
X268788589Y-81297862D01*
X268788589Y-81297862D02*
X268883827Y-81393101D01*
X268883827Y-81393101D02*
X269026684Y-81440720D01*
X269026684Y-81440720D02*
X269264779Y-81440720D01*
X267888589Y-83028339D02*
X267983827Y-82980720D01*
X267983827Y-82980720D02*
X268126684Y-82980720D01*
X268126684Y-82980720D02*
X268269541Y-83028339D01*
X268269541Y-83028339D02*
X268364779Y-83123577D01*
X268364779Y-83123577D02*
X268412398Y-83218815D01*
X268412398Y-83218815D02*
X268460017Y-83409291D01*
X268460017Y-83409291D02*
X268460017Y-83552148D01*
X268460017Y-83552148D02*
X268412398Y-83742624D01*
X268412398Y-83742624D02*
X268364779Y-83837862D01*
X268364779Y-83837862D02*
X268269541Y-83933101D01*
X268269541Y-83933101D02*
X268126684Y-83980720D01*
X268126684Y-83980720D02*
X268031446Y-83980720D01*
X268031446Y-83980720D02*
X267888589Y-83933101D01*
X267888589Y-83933101D02*
X267840970Y-83885481D01*
X267840970Y-83885481D02*
X267840970Y-83552148D01*
X267840970Y-83552148D02*
X268031446Y-83552148D01*
X267412398Y-83980720D02*
X267412398Y-82980720D01*
X267412398Y-82980720D02*
X266840970Y-83980720D01*
X266840970Y-83980720D02*
X266840970Y-82980720D01*
X266364779Y-83980720D02*
X266364779Y-82980720D01*
X266364779Y-82980720D02*
X266126684Y-82980720D01*
X266126684Y-82980720D02*
X265983827Y-83028339D01*
X265983827Y-83028339D02*
X265888589Y-83123577D01*
X265888589Y-83123577D02*
X265840970Y-83218815D01*
X265840970Y-83218815D02*
X265793351Y-83409291D01*
X265793351Y-83409291D02*
X265793351Y-83552148D01*
X265793351Y-83552148D02*
X265840970Y-83742624D01*
X265840970Y-83742624D02*
X265888589Y-83837862D01*
X265888589Y-83837862D02*
X265983827Y-83933101D01*
X265983827Y-83933101D02*
X266126684Y-83980720D01*
X266126684Y-83980720D02*
X266364779Y-83980720D01*
X267274779Y-106840720D02*
X267274779Y-105840720D01*
X267274779Y-105840720D02*
X266893827Y-105840720D01*
X266893827Y-105840720D02*
X266798589Y-105888339D01*
X266798589Y-105888339D02*
X266750970Y-105935958D01*
X266750970Y-105935958D02*
X266703351Y-106031196D01*
X266703351Y-106031196D02*
X266703351Y-106174053D01*
X266703351Y-106174053D02*
X266750970Y-106269291D01*
X266750970Y-106269291D02*
X266798589Y-106316910D01*
X266798589Y-106316910D02*
X266893827Y-106364529D01*
X266893827Y-106364529D02*
X267274779Y-106364529D01*
X266227160Y-106840720D02*
X266036684Y-106840720D01*
X266036684Y-106840720D02*
X265941446Y-106793101D01*
X265941446Y-106793101D02*
X265893827Y-106745481D01*
X265893827Y-106745481D02*
X265798589Y-106602624D01*
X265798589Y-106602624D02*
X265750970Y-106412148D01*
X265750970Y-106412148D02*
X265750970Y-106031196D01*
X265750970Y-106031196D02*
X265798589Y-105935958D01*
X265798589Y-105935958D02*
X265846208Y-105888339D01*
X265846208Y-105888339D02*
X265941446Y-105840720D01*
X265941446Y-105840720D02*
X266131922Y-105840720D01*
X266131922Y-105840720D02*
X266227160Y-105888339D01*
X266227160Y-105888339D02*
X266274779Y-105935958D01*
X266274779Y-105935958D02*
X266322398Y-106031196D01*
X266322398Y-106031196D02*
X266322398Y-106269291D01*
X266322398Y-106269291D02*
X266274779Y-106364529D01*
X266274779Y-106364529D02*
X266227160Y-106412148D01*
X266227160Y-106412148D02*
X266131922Y-106459767D01*
X266131922Y-106459767D02*
X265941446Y-106459767D01*
X265941446Y-106459767D02*
X265846208Y-106412148D01*
X265846208Y-106412148D02*
X265798589Y-106364529D01*
X265798589Y-106364529D02*
X265750970Y-106269291D01*
X271240970Y-94140720D02*
X271240970Y-93140720D01*
X271240970Y-93140720D02*
X270860018Y-93140720D01*
X270860018Y-93140720D02*
X270764780Y-93188339D01*
X270764780Y-93188339D02*
X270717161Y-93235958D01*
X270717161Y-93235958D02*
X270669542Y-93331196D01*
X270669542Y-93331196D02*
X270669542Y-93474053D01*
X270669542Y-93474053D02*
X270717161Y-93569291D01*
X270717161Y-93569291D02*
X270764780Y-93616910D01*
X270764780Y-93616910D02*
X270860018Y-93664529D01*
X270860018Y-93664529D02*
X271240970Y-93664529D01*
X269717161Y-94140720D02*
X270288589Y-94140720D01*
X270002875Y-94140720D02*
X270002875Y-93140720D01*
X270002875Y-93140720D02*
X270098113Y-93283577D01*
X270098113Y-93283577D02*
X270193351Y-93378815D01*
X270193351Y-93378815D02*
X270288589Y-93426434D01*
X269240970Y-94140720D02*
X269050494Y-94140720D01*
X269050494Y-94140720D02*
X268955256Y-94093101D01*
X268955256Y-94093101D02*
X268907637Y-94045481D01*
X268907637Y-94045481D02*
X268812399Y-93902624D01*
X268812399Y-93902624D02*
X268764780Y-93712148D01*
X268764780Y-93712148D02*
X268764780Y-93331196D01*
X268764780Y-93331196D02*
X268812399Y-93235958D01*
X268812399Y-93235958D02*
X268860018Y-93188339D01*
X268860018Y-93188339D02*
X268955256Y-93140720D01*
X268955256Y-93140720D02*
X269145732Y-93140720D01*
X269145732Y-93140720D02*
X269240970Y-93188339D01*
X269240970Y-93188339D02*
X269288589Y-93235958D01*
X269288589Y-93235958D02*
X269336208Y-93331196D01*
X269336208Y-93331196D02*
X269336208Y-93569291D01*
X269336208Y-93569291D02*
X269288589Y-93664529D01*
X269288589Y-93664529D02*
X269240970Y-93712148D01*
X269240970Y-93712148D02*
X269145732Y-93759767D01*
X269145732Y-93759767D02*
X268955256Y-93759767D01*
X268955256Y-93759767D02*
X268860018Y-93712148D01*
X268860018Y-93712148D02*
X268812399Y-93664529D01*
X268812399Y-93664529D02*
X268764780Y-93569291D01*
X267274779Y-101760720D02*
X267274779Y-100760720D01*
X267274779Y-100760720D02*
X266893827Y-100760720D01*
X266893827Y-100760720D02*
X266798589Y-100808339D01*
X266798589Y-100808339D02*
X266750970Y-100855958D01*
X266750970Y-100855958D02*
X266703351Y-100951196D01*
X266703351Y-100951196D02*
X266703351Y-101094053D01*
X266703351Y-101094053D02*
X266750970Y-101189291D01*
X266750970Y-101189291D02*
X266798589Y-101236910D01*
X266798589Y-101236910D02*
X266893827Y-101284529D01*
X266893827Y-101284529D02*
X267274779Y-101284529D01*
X266370017Y-100760720D02*
X265703351Y-100760720D01*
X265703351Y-100760720D02*
X266131922Y-101760720D01*
X267274779Y-99220720D02*
X267274779Y-98220720D01*
X267274779Y-98220720D02*
X266893827Y-98220720D01*
X266893827Y-98220720D02*
X266798589Y-98268339D01*
X266798589Y-98268339D02*
X266750970Y-98315958D01*
X266750970Y-98315958D02*
X266703351Y-98411196D01*
X266703351Y-98411196D02*
X266703351Y-98554053D01*
X266703351Y-98554053D02*
X266750970Y-98649291D01*
X266750970Y-98649291D02*
X266798589Y-98696910D01*
X266798589Y-98696910D02*
X266893827Y-98744529D01*
X266893827Y-98744529D02*
X267274779Y-98744529D01*
X265846208Y-98220720D02*
X266036684Y-98220720D01*
X266036684Y-98220720D02*
X266131922Y-98268339D01*
X266131922Y-98268339D02*
X266179541Y-98315958D01*
X266179541Y-98315958D02*
X266274779Y-98458815D01*
X266274779Y-98458815D02*
X266322398Y-98649291D01*
X266322398Y-98649291D02*
X266322398Y-99030243D01*
X266322398Y-99030243D02*
X266274779Y-99125481D01*
X266274779Y-99125481D02*
X266227160Y-99173101D01*
X266227160Y-99173101D02*
X266131922Y-99220720D01*
X266131922Y-99220720D02*
X265941446Y-99220720D01*
X265941446Y-99220720D02*
X265846208Y-99173101D01*
X265846208Y-99173101D02*
X265798589Y-99125481D01*
X265798589Y-99125481D02*
X265750970Y-99030243D01*
X265750970Y-99030243D02*
X265750970Y-98792148D01*
X265750970Y-98792148D02*
X265798589Y-98696910D01*
X265798589Y-98696910D02*
X265846208Y-98649291D01*
X265846208Y-98649291D02*
X265941446Y-98601672D01*
X265941446Y-98601672D02*
X266131922Y-98601672D01*
X266131922Y-98601672D02*
X266227160Y-98649291D01*
X266227160Y-98649291D02*
X266274779Y-98696910D01*
X266274779Y-98696910D02*
X266322398Y-98792148D01*
X267274779Y-89060720D02*
X267274779Y-88060720D01*
X267274779Y-88060720D02*
X266893827Y-88060720D01*
X266893827Y-88060720D02*
X266798589Y-88108339D01*
X266798589Y-88108339D02*
X266750970Y-88155958D01*
X266750970Y-88155958D02*
X266703351Y-88251196D01*
X266703351Y-88251196D02*
X266703351Y-88394053D01*
X266703351Y-88394053D02*
X266750970Y-88489291D01*
X266750970Y-88489291D02*
X266798589Y-88536910D01*
X266798589Y-88536910D02*
X266893827Y-88584529D01*
X266893827Y-88584529D02*
X267274779Y-88584529D01*
X266322398Y-88155958D02*
X266274779Y-88108339D01*
X266274779Y-88108339D02*
X266179541Y-88060720D01*
X266179541Y-88060720D02*
X265941446Y-88060720D01*
X265941446Y-88060720D02*
X265846208Y-88108339D01*
X265846208Y-88108339D02*
X265798589Y-88155958D01*
X265798589Y-88155958D02*
X265750970Y-88251196D01*
X265750970Y-88251196D02*
X265750970Y-88346434D01*
X265750970Y-88346434D02*
X265798589Y-88489291D01*
X265798589Y-88489291D02*
X266370017Y-89060720D01*
X266370017Y-89060720D02*
X265750970Y-89060720D01*
X271240970Y-91600720D02*
X271240970Y-90600720D01*
X271240970Y-90600720D02*
X270860018Y-90600720D01*
X270860018Y-90600720D02*
X270764780Y-90648339D01*
X270764780Y-90648339D02*
X270717161Y-90695958D01*
X270717161Y-90695958D02*
X270669542Y-90791196D01*
X270669542Y-90791196D02*
X270669542Y-90934053D01*
X270669542Y-90934053D02*
X270717161Y-91029291D01*
X270717161Y-91029291D02*
X270764780Y-91076910D01*
X270764780Y-91076910D02*
X270860018Y-91124529D01*
X270860018Y-91124529D02*
X271240970Y-91124529D01*
X270288589Y-90695958D02*
X270240970Y-90648339D01*
X270240970Y-90648339D02*
X270145732Y-90600720D01*
X270145732Y-90600720D02*
X269907637Y-90600720D01*
X269907637Y-90600720D02*
X269812399Y-90648339D01*
X269812399Y-90648339D02*
X269764780Y-90695958D01*
X269764780Y-90695958D02*
X269717161Y-90791196D01*
X269717161Y-90791196D02*
X269717161Y-90886434D01*
X269717161Y-90886434D02*
X269764780Y-91029291D01*
X269764780Y-91029291D02*
X270336208Y-91600720D01*
X270336208Y-91600720D02*
X269717161Y-91600720D01*
X269098113Y-90600720D02*
X269002875Y-90600720D01*
X269002875Y-90600720D02*
X268907637Y-90648339D01*
X268907637Y-90648339D02*
X268860018Y-90695958D01*
X268860018Y-90695958D02*
X268812399Y-90791196D01*
X268812399Y-90791196D02*
X268764780Y-90981672D01*
X268764780Y-90981672D02*
X268764780Y-91219767D01*
X268764780Y-91219767D02*
X268812399Y-91410243D01*
X268812399Y-91410243D02*
X268860018Y-91505481D01*
X268860018Y-91505481D02*
X268907637Y-91553101D01*
X268907637Y-91553101D02*
X269002875Y-91600720D01*
X269002875Y-91600720D02*
X269098113Y-91600720D01*
X269098113Y-91600720D02*
X269193351Y-91553101D01*
X269193351Y-91553101D02*
X269240970Y-91505481D01*
X269240970Y-91505481D02*
X269288589Y-91410243D01*
X269288589Y-91410243D02*
X269336208Y-91219767D01*
X269336208Y-91219767D02*
X269336208Y-90981672D01*
X269336208Y-90981672D02*
X269288589Y-90791196D01*
X269288589Y-90791196D02*
X269240970Y-90695958D01*
X269240970Y-90695958D02*
X269193351Y-90648339D01*
X269193351Y-90648339D02*
X269098113Y-90600720D01*
X270717161Y-78900720D02*
X271050494Y-78424529D01*
X271288589Y-78900720D02*
X271288589Y-77900720D01*
X271288589Y-77900720D02*
X270907637Y-77900720D01*
X270907637Y-77900720D02*
X270812399Y-77948339D01*
X270812399Y-77948339D02*
X270764780Y-77995958D01*
X270764780Y-77995958D02*
X270717161Y-78091196D01*
X270717161Y-78091196D02*
X270717161Y-78234053D01*
X270717161Y-78234053D02*
X270764780Y-78329291D01*
X270764780Y-78329291D02*
X270812399Y-78376910D01*
X270812399Y-78376910D02*
X270907637Y-78424529D01*
X270907637Y-78424529D02*
X271288589Y-78424529D01*
X270336208Y-78615005D02*
X269860018Y-78615005D01*
X270431446Y-78900720D02*
X270098113Y-77900720D01*
X270098113Y-77900720D02*
X269764780Y-78900720D01*
X269526684Y-77900720D02*
X269288589Y-78900720D01*
X269288589Y-78900720D02*
X269098113Y-78186434D01*
X269098113Y-78186434D02*
X268907637Y-78900720D01*
X268907637Y-78900720D02*
X268669542Y-77900720D01*
X271240970Y-104300720D02*
X271240970Y-103300720D01*
X271240970Y-103300720D02*
X270860018Y-103300720D01*
X270860018Y-103300720D02*
X270764780Y-103348339D01*
X270764780Y-103348339D02*
X270717161Y-103395958D01*
X270717161Y-103395958D02*
X270669542Y-103491196D01*
X270669542Y-103491196D02*
X270669542Y-103634053D01*
X270669542Y-103634053D02*
X270717161Y-103729291D01*
X270717161Y-103729291D02*
X270764780Y-103776910D01*
X270764780Y-103776910D02*
X270860018Y-103824529D01*
X270860018Y-103824529D02*
X271240970Y-103824529D01*
X269717161Y-104300720D02*
X270288589Y-104300720D01*
X270002875Y-104300720D02*
X270002875Y-103300720D01*
X270002875Y-103300720D02*
X270098113Y-103443577D01*
X270098113Y-103443577D02*
X270193351Y-103538815D01*
X270193351Y-103538815D02*
X270288589Y-103586434D01*
X268860018Y-103300720D02*
X269050494Y-103300720D01*
X269050494Y-103300720D02*
X269145732Y-103348339D01*
X269145732Y-103348339D02*
X269193351Y-103395958D01*
X269193351Y-103395958D02*
X269288589Y-103538815D01*
X269288589Y-103538815D02*
X269336208Y-103729291D01*
X269336208Y-103729291D02*
X269336208Y-104110243D01*
X269336208Y-104110243D02*
X269288589Y-104205481D01*
X269288589Y-104205481D02*
X269240970Y-104253101D01*
X269240970Y-104253101D02*
X269145732Y-104300720D01*
X269145732Y-104300720D02*
X268955256Y-104300720D01*
X268955256Y-104300720D02*
X268860018Y-104253101D01*
X268860018Y-104253101D02*
X268812399Y-104205481D01*
X268812399Y-104205481D02*
X268764780Y-104110243D01*
X268764780Y-104110243D02*
X268764780Y-103872148D01*
X268764780Y-103872148D02*
X268812399Y-103776910D01*
X268812399Y-103776910D02*
X268860018Y-103729291D01*
X268860018Y-103729291D02*
X268955256Y-103681672D01*
X268955256Y-103681672D02*
X269145732Y-103681672D01*
X269145732Y-103681672D02*
X269240970Y-103729291D01*
X269240970Y-103729291D02*
X269288589Y-103776910D01*
X269288589Y-103776910D02*
X269336208Y-103872148D01*
X267274779Y-94140720D02*
X267274779Y-93140720D01*
X267274779Y-93140720D02*
X266893827Y-93140720D01*
X266893827Y-93140720D02*
X266798589Y-93188339D01*
X266798589Y-93188339D02*
X266750970Y-93235958D01*
X266750970Y-93235958D02*
X266703351Y-93331196D01*
X266703351Y-93331196D02*
X266703351Y-93474053D01*
X266703351Y-93474053D02*
X266750970Y-93569291D01*
X266750970Y-93569291D02*
X266798589Y-93616910D01*
X266798589Y-93616910D02*
X266893827Y-93664529D01*
X266893827Y-93664529D02*
X267274779Y-93664529D01*
X265846208Y-93474053D02*
X265846208Y-94140720D01*
X266084303Y-93093101D02*
X266322398Y-93807386D01*
X266322398Y-93807386D02*
X265703351Y-93807386D01*
X271240970Y-89060720D02*
X271240970Y-88060720D01*
X271240970Y-88060720D02*
X270860018Y-88060720D01*
X270860018Y-88060720D02*
X270764780Y-88108339D01*
X270764780Y-88108339D02*
X270717161Y-88155958D01*
X270717161Y-88155958D02*
X270669542Y-88251196D01*
X270669542Y-88251196D02*
X270669542Y-88394053D01*
X270669542Y-88394053D02*
X270717161Y-88489291D01*
X270717161Y-88489291D02*
X270764780Y-88536910D01*
X270764780Y-88536910D02*
X270860018Y-88584529D01*
X270860018Y-88584529D02*
X271240970Y-88584529D01*
X270288589Y-88155958D02*
X270240970Y-88108339D01*
X270240970Y-88108339D02*
X270145732Y-88060720D01*
X270145732Y-88060720D02*
X269907637Y-88060720D01*
X269907637Y-88060720D02*
X269812399Y-88108339D01*
X269812399Y-88108339D02*
X269764780Y-88155958D01*
X269764780Y-88155958D02*
X269717161Y-88251196D01*
X269717161Y-88251196D02*
X269717161Y-88346434D01*
X269717161Y-88346434D02*
X269764780Y-88489291D01*
X269764780Y-88489291D02*
X270336208Y-89060720D01*
X270336208Y-89060720D02*
X269717161Y-89060720D01*
X268764780Y-89060720D02*
X269336208Y-89060720D01*
X269050494Y-89060720D02*
X269050494Y-88060720D01*
X269050494Y-88060720D02*
X269145732Y-88203577D01*
X269145732Y-88203577D02*
X269240970Y-88298815D01*
X269240970Y-88298815D02*
X269336208Y-88346434D01*
X267274779Y-96680720D02*
X267274779Y-95680720D01*
X267274779Y-95680720D02*
X266893827Y-95680720D01*
X266893827Y-95680720D02*
X266798589Y-95728339D01*
X266798589Y-95728339D02*
X266750970Y-95775958D01*
X266750970Y-95775958D02*
X266703351Y-95871196D01*
X266703351Y-95871196D02*
X266703351Y-96014053D01*
X266703351Y-96014053D02*
X266750970Y-96109291D01*
X266750970Y-96109291D02*
X266798589Y-96156910D01*
X266798589Y-96156910D02*
X266893827Y-96204529D01*
X266893827Y-96204529D02*
X267274779Y-96204529D01*
X265798589Y-95680720D02*
X266274779Y-95680720D01*
X266274779Y-95680720D02*
X266322398Y-96156910D01*
X266322398Y-96156910D02*
X266274779Y-96109291D01*
X266274779Y-96109291D02*
X266179541Y-96061672D01*
X266179541Y-96061672D02*
X265941446Y-96061672D01*
X265941446Y-96061672D02*
X265846208Y-96109291D01*
X265846208Y-96109291D02*
X265798589Y-96156910D01*
X265798589Y-96156910D02*
X265750970Y-96252148D01*
X265750970Y-96252148D02*
X265750970Y-96490243D01*
X265750970Y-96490243D02*
X265798589Y-96585481D01*
X265798589Y-96585481D02*
X265846208Y-96633101D01*
X265846208Y-96633101D02*
X265941446Y-96680720D01*
X265941446Y-96680720D02*
X266179541Y-96680720D01*
X266179541Y-96680720D02*
X266274779Y-96633101D01*
X266274779Y-96633101D02*
X266322398Y-96585481D01*
X267274779Y-78900720D02*
X267274779Y-77900720D01*
X267274779Y-77900720D02*
X266893827Y-77900720D01*
X266893827Y-77900720D02*
X266798589Y-77948339D01*
X266798589Y-77948339D02*
X266750970Y-77995958D01*
X266750970Y-77995958D02*
X266703351Y-78091196D01*
X266703351Y-78091196D02*
X266703351Y-78234053D01*
X266703351Y-78234053D02*
X266750970Y-78329291D01*
X266750970Y-78329291D02*
X266798589Y-78376910D01*
X266798589Y-78376910D02*
X266893827Y-78424529D01*
X266893827Y-78424529D02*
X267274779Y-78424529D01*
X265750970Y-78900720D02*
X266322398Y-78900720D01*
X266036684Y-78900720D02*
X266036684Y-77900720D01*
X266036684Y-77900720D02*
X266131922Y-78043577D01*
X266131922Y-78043577D02*
X266227160Y-78138815D01*
X266227160Y-78138815D02*
X266322398Y-78186434D01*
X271360017Y-85520720D02*
X271026684Y-86520720D01*
X271026684Y-86520720D02*
X270693351Y-85520720D01*
X269788589Y-86425481D02*
X269836208Y-86473101D01*
X269836208Y-86473101D02*
X269979065Y-86520720D01*
X269979065Y-86520720D02*
X270074303Y-86520720D01*
X270074303Y-86520720D02*
X270217160Y-86473101D01*
X270217160Y-86473101D02*
X270312398Y-86377862D01*
X270312398Y-86377862D02*
X270360017Y-86282624D01*
X270360017Y-86282624D02*
X270407636Y-86092148D01*
X270407636Y-86092148D02*
X270407636Y-85949291D01*
X270407636Y-85949291D02*
X270360017Y-85758815D01*
X270360017Y-85758815D02*
X270312398Y-85663577D01*
X270312398Y-85663577D02*
X270217160Y-85568339D01*
X270217160Y-85568339D02*
X270074303Y-85520720D01*
X270074303Y-85520720D02*
X269979065Y-85520720D01*
X269979065Y-85520720D02*
X269836208Y-85568339D01*
X269836208Y-85568339D02*
X269788589Y-85615958D01*
X268788589Y-86425481D02*
X268836208Y-86473101D01*
X268836208Y-86473101D02*
X268979065Y-86520720D01*
X268979065Y-86520720D02*
X269074303Y-86520720D01*
X269074303Y-86520720D02*
X269217160Y-86473101D01*
X269217160Y-86473101D02*
X269312398Y-86377862D01*
X269312398Y-86377862D02*
X269360017Y-86282624D01*
X269360017Y-86282624D02*
X269407636Y-86092148D01*
X269407636Y-86092148D02*
X269407636Y-85949291D01*
X269407636Y-85949291D02*
X269360017Y-85758815D01*
X269360017Y-85758815D02*
X269312398Y-85663577D01*
X269312398Y-85663577D02*
X269217160Y-85568339D01*
X269217160Y-85568339D02*
X269074303Y-85520720D01*
X269074303Y-85520720D02*
X268979065Y-85520720D01*
X268979065Y-85520720D02*
X268836208Y-85568339D01*
X268836208Y-85568339D02*
X268788589Y-85615958D01*
X271240970Y-96680720D02*
X271240970Y-95680720D01*
X271240970Y-95680720D02*
X270860018Y-95680720D01*
X270860018Y-95680720D02*
X270764780Y-95728339D01*
X270764780Y-95728339D02*
X270717161Y-95775958D01*
X270717161Y-95775958D02*
X270669542Y-95871196D01*
X270669542Y-95871196D02*
X270669542Y-96014053D01*
X270669542Y-96014053D02*
X270717161Y-96109291D01*
X270717161Y-96109291D02*
X270764780Y-96156910D01*
X270764780Y-96156910D02*
X270860018Y-96204529D01*
X270860018Y-96204529D02*
X271240970Y-96204529D01*
X269717161Y-96680720D02*
X270288589Y-96680720D01*
X270002875Y-96680720D02*
X270002875Y-95680720D01*
X270002875Y-95680720D02*
X270098113Y-95823577D01*
X270098113Y-95823577D02*
X270193351Y-95918815D01*
X270193351Y-95918815D02*
X270288589Y-95966434D01*
X269145732Y-96109291D02*
X269240970Y-96061672D01*
X269240970Y-96061672D02*
X269288589Y-96014053D01*
X269288589Y-96014053D02*
X269336208Y-95918815D01*
X269336208Y-95918815D02*
X269336208Y-95871196D01*
X269336208Y-95871196D02*
X269288589Y-95775958D01*
X269288589Y-95775958D02*
X269240970Y-95728339D01*
X269240970Y-95728339D02*
X269145732Y-95680720D01*
X269145732Y-95680720D02*
X268955256Y-95680720D01*
X268955256Y-95680720D02*
X268860018Y-95728339D01*
X268860018Y-95728339D02*
X268812399Y-95775958D01*
X268812399Y-95775958D02*
X268764780Y-95871196D01*
X268764780Y-95871196D02*
X268764780Y-95918815D01*
X268764780Y-95918815D02*
X268812399Y-96014053D01*
X268812399Y-96014053D02*
X268860018Y-96061672D01*
X268860018Y-96061672D02*
X268955256Y-96109291D01*
X268955256Y-96109291D02*
X269145732Y-96109291D01*
X269145732Y-96109291D02*
X269240970Y-96156910D01*
X269240970Y-96156910D02*
X269288589Y-96204529D01*
X269288589Y-96204529D02*
X269336208Y-96299767D01*
X269336208Y-96299767D02*
X269336208Y-96490243D01*
X269336208Y-96490243D02*
X269288589Y-96585481D01*
X269288589Y-96585481D02*
X269240970Y-96633101D01*
X269240970Y-96633101D02*
X269145732Y-96680720D01*
X269145732Y-96680720D02*
X268955256Y-96680720D01*
X268955256Y-96680720D02*
X268860018Y-96633101D01*
X268860018Y-96633101D02*
X268812399Y-96585481D01*
X268812399Y-96585481D02*
X268764780Y-96490243D01*
X268764780Y-96490243D02*
X268764780Y-96299767D01*
X268764780Y-96299767D02*
X268812399Y-96204529D01*
X268812399Y-96204529D02*
X268860018Y-96156910D01*
X268860018Y-96156910D02*
X268955256Y-96109291D01*
X271240970Y-101760720D02*
X271240970Y-100760720D01*
X271240970Y-100760720D02*
X270860018Y-100760720D01*
X270860018Y-100760720D02*
X270764780Y-100808339D01*
X270764780Y-100808339D02*
X270717161Y-100855958D01*
X270717161Y-100855958D02*
X270669542Y-100951196D01*
X270669542Y-100951196D02*
X270669542Y-101094053D01*
X270669542Y-101094053D02*
X270717161Y-101189291D01*
X270717161Y-101189291D02*
X270764780Y-101236910D01*
X270764780Y-101236910D02*
X270860018Y-101284529D01*
X270860018Y-101284529D02*
X271240970Y-101284529D01*
X269717161Y-101760720D02*
X270288589Y-101760720D01*
X270002875Y-101760720D02*
X270002875Y-100760720D01*
X270002875Y-100760720D02*
X270098113Y-100903577D01*
X270098113Y-100903577D02*
X270193351Y-100998815D01*
X270193351Y-100998815D02*
X270288589Y-101046434D01*
X268860018Y-101094053D02*
X268860018Y-101760720D01*
X269098113Y-100713101D02*
X269336208Y-101427386D01*
X269336208Y-101427386D02*
X268717161Y-101427386D01*
X271240970Y-106840720D02*
X271240970Y-105840720D01*
X271240970Y-105840720D02*
X270860018Y-105840720D01*
X270860018Y-105840720D02*
X270764780Y-105888339D01*
X270764780Y-105888339D02*
X270717161Y-105935958D01*
X270717161Y-105935958D02*
X270669542Y-106031196D01*
X270669542Y-106031196D02*
X270669542Y-106174053D01*
X270669542Y-106174053D02*
X270717161Y-106269291D01*
X270717161Y-106269291D02*
X270764780Y-106316910D01*
X270764780Y-106316910D02*
X270860018Y-106364529D01*
X270860018Y-106364529D02*
X271240970Y-106364529D01*
X269717161Y-106840720D02*
X270288589Y-106840720D01*
X270002875Y-106840720D02*
X270002875Y-105840720D01*
X270002875Y-105840720D02*
X270098113Y-105983577D01*
X270098113Y-105983577D02*
X270193351Y-106078815D01*
X270193351Y-106078815D02*
X270288589Y-106126434D01*
X269098113Y-105840720D02*
X269002875Y-105840720D01*
X269002875Y-105840720D02*
X268907637Y-105888339D01*
X268907637Y-105888339D02*
X268860018Y-105935958D01*
X268860018Y-105935958D02*
X268812399Y-106031196D01*
X268812399Y-106031196D02*
X268764780Y-106221672D01*
X268764780Y-106221672D02*
X268764780Y-106459767D01*
X268764780Y-106459767D02*
X268812399Y-106650243D01*
X268812399Y-106650243D02*
X268860018Y-106745481D01*
X268860018Y-106745481D02*
X268907637Y-106793101D01*
X268907637Y-106793101D02*
X269002875Y-106840720D01*
X269002875Y-106840720D02*
X269098113Y-106840720D01*
X269098113Y-106840720D02*
X269193351Y-106793101D01*
X269193351Y-106793101D02*
X269240970Y-106745481D01*
X269240970Y-106745481D02*
X269288589Y-106650243D01*
X269288589Y-106650243D02*
X269336208Y-106459767D01*
X269336208Y-106459767D02*
X269336208Y-106221672D01*
X269336208Y-106221672D02*
X269288589Y-106031196D01*
X269288589Y-106031196D02*
X269240970Y-105935958D01*
X269240970Y-105935958D02*
X269193351Y-105888339D01*
X269193351Y-105888339D02*
X269098113Y-105840720D01*
X270574304Y-83980720D02*
X270907637Y-83504529D01*
X271145732Y-83980720D02*
X271145732Y-82980720D01*
X271145732Y-82980720D02*
X270764780Y-82980720D01*
X270764780Y-82980720D02*
X270669542Y-83028339D01*
X270669542Y-83028339D02*
X270621923Y-83075958D01*
X270621923Y-83075958D02*
X270574304Y-83171196D01*
X270574304Y-83171196D02*
X270574304Y-83314053D01*
X270574304Y-83314053D02*
X270621923Y-83409291D01*
X270621923Y-83409291D02*
X270669542Y-83456910D01*
X270669542Y-83456910D02*
X270764780Y-83504529D01*
X270764780Y-83504529D02*
X271145732Y-83504529D01*
X270193351Y-83933101D02*
X270050494Y-83980720D01*
X270050494Y-83980720D02*
X269812399Y-83980720D01*
X269812399Y-83980720D02*
X269717161Y-83933101D01*
X269717161Y-83933101D02*
X269669542Y-83885481D01*
X269669542Y-83885481D02*
X269621923Y-83790243D01*
X269621923Y-83790243D02*
X269621923Y-83695005D01*
X269621923Y-83695005D02*
X269669542Y-83599767D01*
X269669542Y-83599767D02*
X269717161Y-83552148D01*
X269717161Y-83552148D02*
X269812399Y-83504529D01*
X269812399Y-83504529D02*
X270002875Y-83456910D01*
X270002875Y-83456910D02*
X270098113Y-83409291D01*
X270098113Y-83409291D02*
X270145732Y-83361672D01*
X270145732Y-83361672D02*
X270193351Y-83266434D01*
X270193351Y-83266434D02*
X270193351Y-83171196D01*
X270193351Y-83171196D02*
X270145732Y-83075958D01*
X270145732Y-83075958D02*
X270098113Y-83028339D01*
X270098113Y-83028339D02*
X270002875Y-82980720D01*
X270002875Y-82980720D02*
X269764780Y-82980720D01*
X269764780Y-82980720D02*
X269621923Y-83028339D01*
X269336208Y-82980720D02*
X268764780Y-82980720D01*
X269050494Y-83980720D02*
X269050494Y-82980720D01*
X267274779Y-104300720D02*
X267274779Y-103300720D01*
X267274779Y-103300720D02*
X266893827Y-103300720D01*
X266893827Y-103300720D02*
X266798589Y-103348339D01*
X266798589Y-103348339D02*
X266750970Y-103395958D01*
X266750970Y-103395958D02*
X266703351Y-103491196D01*
X266703351Y-103491196D02*
X266703351Y-103634053D01*
X266703351Y-103634053D02*
X266750970Y-103729291D01*
X266750970Y-103729291D02*
X266798589Y-103776910D01*
X266798589Y-103776910D02*
X266893827Y-103824529D01*
X266893827Y-103824529D02*
X267274779Y-103824529D01*
X266131922Y-103729291D02*
X266227160Y-103681672D01*
X266227160Y-103681672D02*
X266274779Y-103634053D01*
X266274779Y-103634053D02*
X266322398Y-103538815D01*
X266322398Y-103538815D02*
X266322398Y-103491196D01*
X266322398Y-103491196D02*
X266274779Y-103395958D01*
X266274779Y-103395958D02*
X266227160Y-103348339D01*
X266227160Y-103348339D02*
X266131922Y-103300720D01*
X266131922Y-103300720D02*
X265941446Y-103300720D01*
X265941446Y-103300720D02*
X265846208Y-103348339D01*
X265846208Y-103348339D02*
X265798589Y-103395958D01*
X265798589Y-103395958D02*
X265750970Y-103491196D01*
X265750970Y-103491196D02*
X265750970Y-103538815D01*
X265750970Y-103538815D02*
X265798589Y-103634053D01*
X265798589Y-103634053D02*
X265846208Y-103681672D01*
X265846208Y-103681672D02*
X265941446Y-103729291D01*
X265941446Y-103729291D02*
X266131922Y-103729291D01*
X266131922Y-103729291D02*
X266227160Y-103776910D01*
X266227160Y-103776910D02*
X266274779Y-103824529D01*
X266274779Y-103824529D02*
X266322398Y-103919767D01*
X266322398Y-103919767D02*
X266322398Y-104110243D01*
X266322398Y-104110243D02*
X266274779Y-104205481D01*
X266274779Y-104205481D02*
X266227160Y-104253101D01*
X266227160Y-104253101D02*
X266131922Y-104300720D01*
X266131922Y-104300720D02*
X265941446Y-104300720D01*
X265941446Y-104300720D02*
X265846208Y-104253101D01*
X265846208Y-104253101D02*
X265798589Y-104205481D01*
X265798589Y-104205481D02*
X265750970Y-104110243D01*
X265750970Y-104110243D02*
X265750970Y-103919767D01*
X265750970Y-103919767D02*
X265798589Y-103824529D01*
X265798589Y-103824529D02*
X265846208Y-103776910D01*
X265846208Y-103776910D02*
X265941446Y-103729291D01*
X274156265Y-114549108D02*
X274203885Y-114501489D01*
X274203885Y-114501489D02*
X274251504Y-114358632D01*
X274251504Y-114358632D02*
X274251504Y-114263394D01*
X274251504Y-114263394D02*
X274203885Y-114120537D01*
X274203885Y-114120537D02*
X274108646Y-114025299D01*
X274108646Y-114025299D02*
X274013408Y-113977680D01*
X274013408Y-113977680D02*
X273822932Y-113930061D01*
X273822932Y-113930061D02*
X273680075Y-113930061D01*
X273680075Y-113930061D02*
X273489599Y-113977680D01*
X273489599Y-113977680D02*
X273394361Y-114025299D01*
X273394361Y-114025299D02*
X273299123Y-114120537D01*
X273299123Y-114120537D02*
X273251504Y-114263394D01*
X273251504Y-114263394D02*
X273251504Y-114358632D01*
X273251504Y-114358632D02*
X273299123Y-114501489D01*
X273299123Y-114501489D02*
X273346742Y-114549108D01*
X274203885Y-114930061D02*
X274251504Y-115072918D01*
X274251504Y-115072918D02*
X274251504Y-115311013D01*
X274251504Y-115311013D02*
X274203885Y-115406251D01*
X274203885Y-115406251D02*
X274156265Y-115453870D01*
X274156265Y-115453870D02*
X274061027Y-115501489D01*
X274061027Y-115501489D02*
X273965789Y-115501489D01*
X273965789Y-115501489D02*
X273870551Y-115453870D01*
X273870551Y-115453870D02*
X273822932Y-115406251D01*
X273822932Y-115406251D02*
X273775313Y-115311013D01*
X273775313Y-115311013D02*
X273727694Y-115120537D01*
X273727694Y-115120537D02*
X273680075Y-115025299D01*
X273680075Y-115025299D02*
X273632456Y-114977680D01*
X273632456Y-114977680D02*
X273537218Y-114930061D01*
X273537218Y-114930061D02*
X273441980Y-114930061D01*
X273441980Y-114930061D02*
X273346742Y-114977680D01*
X273346742Y-114977680D02*
X273299123Y-115025299D01*
X273299123Y-115025299D02*
X273251504Y-115120537D01*
X273251504Y-115120537D02*
X273251504Y-115358632D01*
X273251504Y-115358632D02*
X273299123Y-115501489D01*
X264051504Y-113977680D02*
X263051504Y-113977680D01*
X263051504Y-113977680D02*
X263765789Y-114311013D01*
X263765789Y-114311013D02*
X263051504Y-114644346D01*
X263051504Y-114644346D02*
X264051504Y-114644346D01*
X263051504Y-115311013D02*
X263051504Y-115501489D01*
X263051504Y-115501489D02*
X263099123Y-115596727D01*
X263099123Y-115596727D02*
X263194361Y-115691965D01*
X263194361Y-115691965D02*
X263384837Y-115739584D01*
X263384837Y-115739584D02*
X263718170Y-115739584D01*
X263718170Y-115739584D02*
X263908646Y-115691965D01*
X263908646Y-115691965D02*
X264003885Y-115596727D01*
X264003885Y-115596727D02*
X264051504Y-115501489D01*
X264051504Y-115501489D02*
X264051504Y-115311013D01*
X264051504Y-115311013D02*
X264003885Y-115215775D01*
X264003885Y-115215775D02*
X263908646Y-115120537D01*
X263908646Y-115120537D02*
X263718170Y-115072918D01*
X263718170Y-115072918D02*
X263384837Y-115072918D01*
X263384837Y-115072918D02*
X263194361Y-115120537D01*
X263194361Y-115120537D02*
X263099123Y-115215775D01*
X263099123Y-115215775D02*
X263051504Y-115311013D01*
X264003885Y-116120537D02*
X264051504Y-116263394D01*
X264051504Y-116263394D02*
X264051504Y-116501489D01*
X264051504Y-116501489D02*
X264003885Y-116596727D01*
X264003885Y-116596727D02*
X263956265Y-116644346D01*
X263956265Y-116644346D02*
X263861027Y-116691965D01*
X263861027Y-116691965D02*
X263765789Y-116691965D01*
X263765789Y-116691965D02*
X263670551Y-116644346D01*
X263670551Y-116644346D02*
X263622932Y-116596727D01*
X263622932Y-116596727D02*
X263575313Y-116501489D01*
X263575313Y-116501489D02*
X263527694Y-116311013D01*
X263527694Y-116311013D02*
X263480075Y-116215775D01*
X263480075Y-116215775D02*
X263432456Y-116168156D01*
X263432456Y-116168156D02*
X263337218Y-116120537D01*
X263337218Y-116120537D02*
X263241980Y-116120537D01*
X263241980Y-116120537D02*
X263146742Y-116168156D01*
X263146742Y-116168156D02*
X263099123Y-116215775D01*
X263099123Y-116215775D02*
X263051504Y-116311013D01*
X263051504Y-116311013D02*
X263051504Y-116549108D01*
X263051504Y-116549108D02*
X263099123Y-116691965D01*
X264051504Y-117120537D02*
X263051504Y-117120537D01*
X270799123Y-114501489D02*
X270751504Y-114406251D01*
X270751504Y-114406251D02*
X270751504Y-114263394D01*
X270751504Y-114263394D02*
X270799123Y-114120537D01*
X270799123Y-114120537D02*
X270894361Y-114025299D01*
X270894361Y-114025299D02*
X270989599Y-113977680D01*
X270989599Y-113977680D02*
X271180075Y-113930061D01*
X271180075Y-113930061D02*
X271322932Y-113930061D01*
X271322932Y-113930061D02*
X271513408Y-113977680D01*
X271513408Y-113977680D02*
X271608646Y-114025299D01*
X271608646Y-114025299D02*
X271703885Y-114120537D01*
X271703885Y-114120537D02*
X271751504Y-114263394D01*
X271751504Y-114263394D02*
X271751504Y-114358632D01*
X271751504Y-114358632D02*
X271703885Y-114501489D01*
X271703885Y-114501489D02*
X271656265Y-114549108D01*
X271656265Y-114549108D02*
X271322932Y-114549108D01*
X271322932Y-114549108D02*
X271322932Y-114358632D01*
X271751504Y-114977680D02*
X270751504Y-114977680D01*
X270751504Y-114977680D02*
X271751504Y-115549108D01*
X271751504Y-115549108D02*
X270751504Y-115549108D01*
X271751504Y-116025299D02*
X270751504Y-116025299D01*
X270751504Y-116025299D02*
X270751504Y-116263394D01*
X270751504Y-116263394D02*
X270799123Y-116406251D01*
X270799123Y-116406251D02*
X270894361Y-116501489D01*
X270894361Y-116501489D02*
X270989599Y-116549108D01*
X270989599Y-116549108D02*
X271180075Y-116596727D01*
X271180075Y-116596727D02*
X271322932Y-116596727D01*
X271322932Y-116596727D02*
X271513408Y-116549108D01*
X271513408Y-116549108D02*
X271608646Y-116501489D01*
X271608646Y-116501489D02*
X271703885Y-116406251D01*
X271703885Y-116406251D02*
X271751504Y-116263394D01*
X271751504Y-116263394D02*
X271751504Y-116025299D01*
X268181504Y-113834823D02*
X269181504Y-114168156D01*
X269181504Y-114168156D02*
X268181504Y-114501489D01*
X269086265Y-115406251D02*
X269133885Y-115358632D01*
X269133885Y-115358632D02*
X269181504Y-115215775D01*
X269181504Y-115215775D02*
X269181504Y-115120537D01*
X269181504Y-115120537D02*
X269133885Y-114977680D01*
X269133885Y-114977680D02*
X269038646Y-114882442D01*
X269038646Y-114882442D02*
X268943408Y-114834823D01*
X268943408Y-114834823D02*
X268752932Y-114787204D01*
X268752932Y-114787204D02*
X268610075Y-114787204D01*
X268610075Y-114787204D02*
X268419599Y-114834823D01*
X268419599Y-114834823D02*
X268324361Y-114882442D01*
X268324361Y-114882442D02*
X268229123Y-114977680D01*
X268229123Y-114977680D02*
X268181504Y-115120537D01*
X268181504Y-115120537D02*
X268181504Y-115215775D01*
X268181504Y-115215775D02*
X268229123Y-115358632D01*
X268229123Y-115358632D02*
X268276742Y-115406251D01*
X269086265Y-116406251D02*
X269133885Y-116358632D01*
X269133885Y-116358632D02*
X269181504Y-116215775D01*
X269181504Y-116215775D02*
X269181504Y-116120537D01*
X269181504Y-116120537D02*
X269133885Y-115977680D01*
X269133885Y-115977680D02*
X269038646Y-115882442D01*
X269038646Y-115882442D02*
X268943408Y-115834823D01*
X268943408Y-115834823D02*
X268752932Y-115787204D01*
X268752932Y-115787204D02*
X268610075Y-115787204D01*
X268610075Y-115787204D02*
X268419599Y-115834823D01*
X268419599Y-115834823D02*
X268324361Y-115882442D01*
X268324361Y-115882442D02*
X268229123Y-115977680D01*
X268229123Y-115977680D02*
X268181504Y-116120537D01*
X268181504Y-116120537D02*
X268181504Y-116215775D01*
X268181504Y-116215775D02*
X268229123Y-116358632D01*
X268229123Y-116358632D02*
X268276742Y-116406251D01*
X266603885Y-113930061D02*
X266651504Y-114072918D01*
X266651504Y-114072918D02*
X266651504Y-114311013D01*
X266651504Y-114311013D02*
X266603885Y-114406251D01*
X266603885Y-114406251D02*
X266556265Y-114453870D01*
X266556265Y-114453870D02*
X266461027Y-114501489D01*
X266461027Y-114501489D02*
X266365789Y-114501489D01*
X266365789Y-114501489D02*
X266270551Y-114453870D01*
X266270551Y-114453870D02*
X266222932Y-114406251D01*
X266222932Y-114406251D02*
X266175313Y-114311013D01*
X266175313Y-114311013D02*
X266127694Y-114120537D01*
X266127694Y-114120537D02*
X266080075Y-114025299D01*
X266080075Y-114025299D02*
X266032456Y-113977680D01*
X266032456Y-113977680D02*
X265937218Y-113930061D01*
X265937218Y-113930061D02*
X265841980Y-113930061D01*
X265841980Y-113930061D02*
X265746742Y-113977680D01*
X265746742Y-113977680D02*
X265699123Y-114025299D01*
X265699123Y-114025299D02*
X265651504Y-114120537D01*
X265651504Y-114120537D02*
X265651504Y-114358632D01*
X265651504Y-114358632D02*
X265699123Y-114501489D01*
X266556265Y-115501489D02*
X266603885Y-115453870D01*
X266603885Y-115453870D02*
X266651504Y-115311013D01*
X266651504Y-115311013D02*
X266651504Y-115215775D01*
X266651504Y-115215775D02*
X266603885Y-115072918D01*
X266603885Y-115072918D02*
X266508646Y-114977680D01*
X266508646Y-114977680D02*
X266413408Y-114930061D01*
X266413408Y-114930061D02*
X266222932Y-114882442D01*
X266222932Y-114882442D02*
X266080075Y-114882442D01*
X266080075Y-114882442D02*
X265889599Y-114930061D01*
X265889599Y-114930061D02*
X265794361Y-114977680D01*
X265794361Y-114977680D02*
X265699123Y-115072918D01*
X265699123Y-115072918D02*
X265651504Y-115215775D01*
X265651504Y-115215775D02*
X265651504Y-115311013D01*
X265651504Y-115311013D02*
X265699123Y-115453870D01*
X265699123Y-115453870D02*
X265746742Y-115501489D01*
X266651504Y-115930061D02*
X265651504Y-115930061D01*
X266651504Y-116501489D02*
X266080075Y-116072918D01*
X265651504Y-116501489D02*
X266222932Y-115930061D01*
D12*
%TO.C,D1*%
X142694695Y-155995886D02*
X143463704Y-155775376D01*
X143079200Y-155885632D02*
X142941381Y-155405000D01*
X143244582Y-156462388D02*
X142694695Y-155995886D01*
X143244582Y-156462388D02*
X142715888Y-156613988D01*
X143244582Y-156462388D02*
X143773276Y-156310787D01*
X143354837Y-156846892D02*
X143244582Y-156462388D01*
X143463704Y-155775376D02*
X143244582Y-156462388D01*
%TO.C,D22*%
X258216989Y-148476259D02*
X258392336Y-148116741D01*
X258295841Y-147402116D02*
X259014876Y-147752813D01*
X258392336Y-148116741D02*
X257897999Y-147875637D01*
X258392336Y-148116741D02*
X258295841Y-147402116D01*
X258392336Y-148116741D02*
X258886673Y-148357845D01*
X258655359Y-147577464D02*
X258874543Y-147128067D01*
X259014876Y-147752813D02*
X258392336Y-148116741D01*
%TO.C,D5*%
X155311570Y-134692965D02*
X156080579Y-134472455D01*
X155696075Y-134582711D02*
X155558256Y-134102079D01*
X155861457Y-135159467D02*
X155311570Y-134692965D01*
X155861457Y-135159467D02*
X155332763Y-135311067D01*
X155861457Y-135159467D02*
X156390151Y-135007866D01*
X155971712Y-135543971D02*
X155861457Y-135159467D01*
X156080579Y-134472455D02*
X155861457Y-135159467D01*
%TO.C,D16*%
X234701685Y-120395901D02*
X235501685Y-120395901D01*
X235101685Y-120395901D02*
X235101685Y-119895901D01*
X235101685Y-120995901D02*
X234551685Y-120995901D01*
X235101685Y-120995901D02*
X234701685Y-120395901D01*
X235101685Y-120995901D02*
X235651685Y-120995901D01*
X235101685Y-121395901D02*
X235101685Y-120995901D01*
X235501685Y-120395901D02*
X235101685Y-120995901D01*
%TO.C,D11*%
X193776816Y-98756619D02*
X194574868Y-98700813D01*
X194175842Y-98728716D02*
X194140964Y-98229934D01*
X194217696Y-99327254D02*
X193669036Y-99365620D01*
X194217696Y-99327254D02*
X193776816Y-98756619D01*
X194217696Y-99327254D02*
X194766356Y-99288888D01*
X194245598Y-99726280D02*
X194217696Y-99327254D01*
X194574868Y-98700813D02*
X194217696Y-99327254D01*
%TO.C,D4*%
X159997405Y-151034414D02*
X160766414Y-150813904D01*
X160381910Y-150924160D02*
X160244091Y-150443528D01*
X160547292Y-151500916D02*
X159997405Y-151034414D01*
X160547292Y-151500916D02*
X160018598Y-151652516D01*
X160547292Y-151500916D02*
X161075986Y-151349315D01*
X160657547Y-151885420D02*
X160547292Y-151500916D01*
X160766414Y-150813904D02*
X160547292Y-151500916D01*
D13*
%TO.C,PWR1*%
X279751685Y-120145901D02*
X279751685Y-121845901D01*
X279751685Y-123145901D02*
X279751685Y-123345901D01*
X280801685Y-118295901D02*
X281591685Y-118295901D01*
X281591685Y-125195901D02*
X280801685Y-125195901D01*
X282601685Y-118895901D02*
X282601685Y-124595901D01*
D12*
%TO.C,D20*%
X219934996Y-139668206D02*
X220730614Y-139751829D01*
X220228277Y-140704539D02*
X220270088Y-140306731D01*
X220270088Y-140306731D02*
X219723101Y-140249240D01*
X220270088Y-140306731D02*
X219934996Y-139668206D01*
X220270088Y-140306731D02*
X220817075Y-140364221D01*
X220332805Y-139710018D02*
X220385069Y-139212757D01*
X220730614Y-139751829D02*
X220270088Y-140306731D01*
D13*
%TO.C,JST1*%
X258116685Y-118685901D02*
X259116685Y-118685901D01*
X258116685Y-119605901D02*
X258116685Y-118685901D01*
X258116685Y-123805901D02*
X258116685Y-124805901D01*
X258116685Y-124805901D02*
X259116685Y-124805901D01*
X265936685Y-118685901D02*
X264936685Y-118685901D01*
X265936685Y-119605901D02*
X265936685Y-118685901D01*
X265936685Y-123885901D02*
X265936685Y-124805901D01*
X265936685Y-124805901D02*
X264936685Y-124805901D01*
D12*
X266476685Y-122745901D02*
X267476685Y-122745901D01*
X266976685Y-120245901D02*
X266976685Y-121245901D01*
X266976685Y-123245901D02*
X266976685Y-122245901D01*
D13*
%TO.C,MCU1*%
X259626685Y-77115901D02*
X259626685Y-107715901D01*
X262286685Y-77115901D02*
X259626685Y-77115901D01*
X262286685Y-77115901D02*
X262286685Y-107715901D01*
X262286685Y-107715901D02*
X259626685Y-107715901D01*
X274866685Y-77115901D02*
X274866685Y-107715901D01*
X277526685Y-77115901D02*
X274866685Y-77115901D01*
X277526685Y-77115901D02*
X277526685Y-107715901D01*
X277526685Y-79715901D02*
X274866685Y-79715901D01*
X277526685Y-107715901D02*
X274866685Y-107715901D01*
D12*
%TO.C,D17*%
X234701685Y-103395901D02*
X235501685Y-103395901D01*
X235101685Y-103395901D02*
X235101685Y-102895901D01*
X235101685Y-103995901D02*
X234551685Y-103995901D01*
X235101685Y-103995901D02*
X234701685Y-103395901D01*
X235101685Y-103995901D02*
X235651685Y-103995901D01*
X235101685Y-104395901D02*
X235101685Y-103995901D01*
X235501685Y-103395901D02*
X235101685Y-103995901D01*
%TO.C,RST1*%
X279426685Y-129845901D02*
X279426685Y-129595901D01*
X279426685Y-134045901D02*
X279426685Y-134295901D01*
X279676685Y-129595901D02*
X279426685Y-129595901D01*
X279676685Y-134295901D02*
X279426685Y-134295901D01*
X282676685Y-129595901D02*
X282926685Y-129595901D01*
X282676685Y-134295901D02*
X282926685Y-134295901D01*
X282926685Y-129845901D02*
X282926685Y-129595901D01*
X282926685Y-134045901D02*
X282926685Y-134295901D01*
%TO.C,D21*%
X239453734Y-141857092D02*
X240222743Y-142077602D01*
X239562601Y-142928608D02*
X239672856Y-142544104D01*
X239672856Y-142544104D02*
X239144162Y-142392503D01*
X239672856Y-142544104D02*
X239453734Y-141857092D01*
X239672856Y-142544104D02*
X240201550Y-142695704D01*
X239838238Y-141967348D02*
X239976057Y-141486716D01*
X240222743Y-142077602D02*
X239672856Y-142544104D01*
%TO.C,D14*%
X216701685Y-103395901D02*
X217501685Y-103395901D01*
X217101685Y-103395901D02*
X217101685Y-102895901D01*
X217101685Y-103995901D02*
X216551685Y-103995901D01*
X217101685Y-103995901D02*
X216701685Y-103395901D01*
X217101685Y-103995901D02*
X217651685Y-103995901D01*
X217101685Y-104395901D02*
X217101685Y-103995901D01*
X217501685Y-103395901D02*
X217101685Y-103995901D01*
%TO.C,D2*%
X138008860Y-139654437D02*
X138777869Y-139433927D01*
X138393365Y-139544183D02*
X138255546Y-139063551D01*
X138558747Y-140120939D02*
X138008860Y-139654437D01*
X138558747Y-140120939D02*
X138030053Y-140272539D01*
X138558747Y-140120939D02*
X139087441Y-139969338D01*
X138669002Y-140505443D02*
X138558747Y-140120939D01*
X138777869Y-139433927D02*
X138558747Y-140120939D01*
%TO.C,D13*%
X216701685Y-120395901D02*
X217501685Y-120395901D01*
X217101685Y-120395901D02*
X217101685Y-119895901D01*
X217101685Y-120995901D02*
X216551685Y-120995901D01*
X217101685Y-120995901D02*
X216701685Y-120395901D01*
X217101685Y-120995901D02*
X217651685Y-120995901D01*
X217101685Y-121395901D02*
X217101685Y-120995901D01*
X217501685Y-120395901D02*
X217101685Y-120995901D01*
%TO.C,D18*%
X234701685Y-86395901D02*
X235501685Y-86395901D01*
X235101685Y-86395901D02*
X235101685Y-85895901D01*
X235101685Y-86995901D02*
X234551685Y-86995901D01*
X235101685Y-86995901D02*
X234701685Y-86395901D01*
X235101685Y-86995901D02*
X235651685Y-86995901D01*
X235101685Y-87395901D02*
X235101685Y-86995901D01*
X235501685Y-86395901D02*
X235101685Y-86995901D01*
%TO.C,D8*%
X172476925Y-109195442D02*
X173269140Y-109084104D01*
X172873033Y-109139773D02*
X172803446Y-108644639D01*
X172956537Y-109733934D02*
X172411889Y-109810479D01*
X172956537Y-109733934D02*
X172476925Y-109195442D01*
X172956537Y-109733934D02*
X173501184Y-109657389D01*
X173012206Y-110130041D02*
X172956537Y-109733934D01*
X173269140Y-109084104D02*
X172956537Y-109733934D01*
%TO.C,D12*%
X192590956Y-81798030D02*
X193389008Y-81742224D01*
X192989982Y-81770127D02*
X192955104Y-81271345D01*
X193031836Y-82368665D02*
X192483176Y-82407031D01*
X193031836Y-82368665D02*
X192590956Y-81798030D01*
X193031836Y-82368665D02*
X193580496Y-82330299D01*
X193059738Y-82767691D02*
X193031836Y-82368665D01*
X193389008Y-81742224D02*
X193031836Y-82368665D01*
%TO.C,D19*%
X200332697Y-140901968D02*
X201130749Y-140846162D01*
X200731723Y-140874065D02*
X200696845Y-140375283D01*
X200773577Y-141472603D02*
X200224917Y-141510969D01*
X200773577Y-141472603D02*
X200332697Y-140901968D01*
X200773577Y-141472603D02*
X201322237Y-141434237D01*
X200801479Y-141871629D02*
X200773577Y-141472603D01*
X201130749Y-140846162D02*
X200773577Y-141472603D01*
%TO.C,D15*%
X216701685Y-86395901D02*
X217501685Y-86395901D01*
X217101685Y-86395901D02*
X217101685Y-85895901D01*
X217101685Y-86995901D02*
X216551685Y-86995901D01*
X217101685Y-86995901D02*
X216701685Y-86395901D01*
X217101685Y-86995901D02*
X217651685Y-86995901D01*
X217101685Y-87395901D02*
X217101685Y-86995901D01*
X217501685Y-86395901D02*
X217101685Y-86995901D01*
D13*
%TO.C,DISP1*%
X262166685Y-110510901D02*
X262166685Y-113170901D01*
X274986685Y-110510901D02*
X262166685Y-110510901D01*
X274986685Y-110510901D02*
X274986685Y-113170901D01*
X274986685Y-113170901D02*
X262166685Y-113170901D01*
D12*
%TO.C,D3*%
X133323025Y-123312988D02*
X134092034Y-123092478D01*
X133707530Y-123202734D02*
X133569711Y-122722102D01*
X133872912Y-123779490D02*
X133323025Y-123312988D01*
X133872912Y-123779490D02*
X133344218Y-123931090D01*
X133872912Y-123779490D02*
X134401606Y-123627889D01*
X133983167Y-124163994D02*
X133872912Y-123779490D01*
X134092034Y-123092478D02*
X133872912Y-123779490D01*
%TO.C,D10*%
X194962676Y-115715208D02*
X195760728Y-115659402D01*
X195361702Y-115687305D02*
X195326824Y-115188523D01*
X195403556Y-116285843D02*
X194854896Y-116324209D01*
X195403556Y-116285843D02*
X194962676Y-115715208D01*
X195403556Y-116285843D02*
X195952216Y-116247477D01*
X195431458Y-116684869D02*
X195403556Y-116285843D01*
X195760728Y-115659402D02*
X195403556Y-116285843D01*
%TO.C,D6*%
X150625735Y-118351516D02*
X151394744Y-118131006D01*
X151010240Y-118241262D02*
X150872421Y-117760630D01*
X151175622Y-118818018D02*
X150625735Y-118351516D01*
X151175622Y-118818018D02*
X150646928Y-118969618D01*
X151175622Y-118818018D02*
X151704316Y-118666417D01*
X151285877Y-119202522D02*
X151175622Y-118818018D01*
X151394744Y-118131006D02*
X151175622Y-118818018D01*
%TO.C,D24*%
X235012211Y-160913337D02*
X235781220Y-161133847D01*
X235121078Y-161984853D02*
X235231333Y-161600349D01*
X235231333Y-161600349D02*
X234702639Y-161448748D01*
X235231333Y-161600349D02*
X235012211Y-160913337D01*
X235231333Y-161600349D02*
X235760027Y-161751949D01*
X235396715Y-161023593D02*
X235534534Y-160542961D01*
X235781220Y-161133847D02*
X235231333Y-161600349D01*
%TO.C,D7*%
X174842868Y-126029999D02*
X175635083Y-125918661D01*
X175238976Y-125974330D02*
X175169389Y-125479196D01*
X175322480Y-126568491D02*
X174777832Y-126645036D01*
X175322480Y-126568491D02*
X174842868Y-126029999D01*
X175322480Y-126568491D02*
X175867127Y-126491946D01*
X175378149Y-126964598D02*
X175322480Y-126568491D01*
X175635083Y-125918661D02*
X175322480Y-126568491D01*
%TO.C,D23*%
X215493473Y-158724451D02*
X216289091Y-158808074D01*
X215786754Y-159760784D02*
X215828565Y-159362976D01*
X215828565Y-159362976D02*
X215281578Y-159305485D01*
X215828565Y-159362976D02*
X215493473Y-158724451D01*
X215828565Y-159362976D02*
X216375552Y-159420466D01*
X215891282Y-158766263D02*
X215943546Y-158269002D01*
X216289091Y-158808074D02*
X215828565Y-159362976D01*
%TO.C,D9*%
X170110982Y-92360884D02*
X170903197Y-92249546D01*
X170507090Y-92305215D02*
X170437503Y-91810081D01*
X170590594Y-92899376D02*
X170045946Y-92975921D01*
X170590594Y-92899376D02*
X170110982Y-92360884D01*
X170590594Y-92899376D02*
X171135241Y-92822831D01*
X170646263Y-93295483D02*
X170590594Y-92899376D01*
X170903197Y-92249546D02*
X170590594Y-92899376D01*
D11*
%TO.C,S4*%
X163600592Y-137569638D02*
X163257780Y-138188088D01*
X164840960Y-141895316D02*
X164222511Y-141552504D01*
X166484377Y-136742726D02*
X163600592Y-137569638D01*
X167051862Y-141261350D02*
X164840960Y-141895316D01*
X167051862Y-141261350D02*
X169093950Y-142215434D01*
X167102827Y-137085538D02*
X166484377Y-136742726D01*
X167102827Y-137085538D02*
X167356413Y-137969899D01*
X168016139Y-138384099D02*
X167356413Y-137969899D01*
X168016139Y-138384099D02*
X172322591Y-137149244D01*
X169292409Y-142907542D02*
X169099463Y-142234659D01*
X172322591Y-137149244D02*
X172487974Y-137726001D01*
X173480268Y-141186543D02*
X173618087Y-141667174D01*
X173618087Y-141667174D02*
X169292409Y-142907542D01*
%TO.C,S15*%
X223876685Y-74445901D02*
X223376685Y-74945901D01*
X223876685Y-78945901D02*
X223376685Y-78445901D01*
X226176685Y-78945901D02*
X223876685Y-78945901D01*
X226176685Y-78945901D02*
X227876685Y-80425901D01*
X226876685Y-74445901D02*
X223876685Y-74445901D01*
X227376685Y-74945901D02*
X226876685Y-74445901D01*
X227376685Y-74945901D02*
X227376685Y-75865901D01*
X227876685Y-81145901D02*
X227876685Y-80445901D01*
X227896685Y-76445901D02*
X227376685Y-75865901D01*
X227896685Y-76445901D02*
X232376685Y-76445901D01*
X232376685Y-76445901D02*
X232376685Y-77045901D01*
X232376685Y-80645901D02*
X232376685Y-81145901D01*
X232376685Y-81145901D02*
X227876685Y-81145901D01*
%TO.C,S3*%
X136926211Y-109848212D02*
X136583399Y-110466662D01*
X138166579Y-114173890D02*
X137548130Y-113831078D01*
X139809996Y-109021300D02*
X136926211Y-109848212D01*
X140377481Y-113539924D02*
X138166579Y-114173890D01*
X140377481Y-113539924D02*
X142419569Y-114494008D01*
X140428446Y-109364112D02*
X139809996Y-109021300D01*
X140428446Y-109364112D02*
X140682032Y-110248473D01*
X141341758Y-110662673D02*
X140682032Y-110248473D01*
X141341758Y-110662673D02*
X145648210Y-109427818D01*
X142618028Y-115186116D02*
X142425082Y-114513233D01*
X145648210Y-109427818D02*
X145813593Y-110004575D01*
X146805887Y-113465117D02*
X146943706Y-113945748D01*
X146943706Y-113945748D02*
X142618028Y-115186116D01*
%TO.C,S2*%
X141612046Y-126189661D02*
X141269234Y-126808111D01*
X142852414Y-130515339D02*
X142233965Y-130172527D01*
X144495831Y-125362749D02*
X141612046Y-126189661D01*
X145063316Y-129881373D02*
X142852414Y-130515339D01*
X145063316Y-129881373D02*
X147105404Y-130835457D01*
X145114281Y-125705561D02*
X144495831Y-125362749D01*
X145114281Y-125705561D02*
X145367867Y-126589922D01*
X146027593Y-127004122D02*
X145367867Y-126589922D01*
X146027593Y-127004122D02*
X150334045Y-125769267D01*
X147303863Y-131527565D02*
X147110917Y-130854682D01*
X150334045Y-125769267D02*
X150499428Y-126346024D01*
X151491722Y-129806566D02*
X151629541Y-130287197D01*
X151629541Y-130287197D02*
X147303863Y-131527565D01*
%TO.C,S21*%
X248404285Y-136673391D02*
X248061473Y-136054941D01*
X249644653Y-132347713D02*
X249026203Y-132690525D01*
X250615188Y-137307357D02*
X248404285Y-136673391D01*
X250615188Y-137307357D02*
X251841388Y-139198607D01*
X251642929Y-139890716D02*
X251835875Y-139217833D01*
X252528438Y-133174625D02*
X249644653Y-132347713D01*
X252871250Y-133793075D02*
X252528438Y-133174625D01*
X252871250Y-133793075D02*
X252617664Y-134677435D01*
X252957650Y-135378299D02*
X252617664Y-134677435D01*
X252957650Y-135378299D02*
X257264102Y-136613154D01*
X255968607Y-141131084D02*
X251642929Y-139890716D01*
X256106426Y-140650453D02*
X255968607Y-141131084D01*
X257264102Y-136613154D02*
X257098720Y-137189911D01*
%TO.C,S10*%
X201286609Y-103293814D02*
X200822705Y-103827475D01*
X201600513Y-107782853D02*
X201066853Y-107318949D01*
X203894910Y-107622413D02*
X201600513Y-107782853D01*
X203894910Y-107622413D02*
X205694009Y-108980222D01*
X204279301Y-103084545D02*
X201286609Y-103293814D01*
X204812961Y-103548449D02*
X204279301Y-103084545D01*
X204812961Y-103548449D02*
X204877137Y-104466208D01*
X205436329Y-105008522D02*
X204877137Y-104466208D01*
X205436329Y-105008522D02*
X209905416Y-104696013D01*
X205744233Y-109698468D02*
X205695404Y-109000173D01*
X209905416Y-104696013D02*
X209947270Y-105294551D01*
X210198393Y-108885782D02*
X210233272Y-109384564D01*
X210233272Y-109384564D02*
X205744233Y-109698468D01*
%TO.C,S6*%
X154228922Y-104886740D02*
X153886110Y-105505190D01*
X155469290Y-109212418D02*
X154850841Y-108869606D01*
X157112707Y-104059828D02*
X154228922Y-104886740D01*
X157680192Y-108578452D02*
X155469290Y-109212418D01*
X157680192Y-108578452D02*
X159722280Y-109532536D01*
X157731157Y-104402640D02*
X157112707Y-104059828D01*
X157731157Y-104402640D02*
X157984743Y-105287001D01*
X158644469Y-105701201D02*
X157984743Y-105287001D01*
X158644469Y-105701201D02*
X162950921Y-104466346D01*
X159920739Y-110224644D02*
X159727793Y-109551761D01*
X162950921Y-104466346D02*
X163116304Y-105043103D01*
X164108598Y-108503645D02*
X164246417Y-108984276D01*
X164246417Y-108984276D02*
X159920739Y-110224644D01*
%TO.C,S8*%
X177918980Y-96363170D02*
X177493433Y-96927892D01*
X178545259Y-100819378D02*
X177980539Y-100393830D01*
X180822876Y-100499280D02*
X178545259Y-100819378D01*
X180822876Y-100499280D02*
X182712308Y-101728282D01*
X180889785Y-95945652D02*
X177918980Y-96363170D01*
X181454505Y-96371200D02*
X180889785Y-95945652D01*
X181454505Y-96371200D02*
X181582546Y-97282246D01*
X182178204Y-97784232D02*
X181582546Y-97282246D01*
X182178204Y-97784232D02*
X186614605Y-97160736D01*
X182812513Y-102441275D02*
X182715091Y-101748087D01*
X186614605Y-97160736D02*
X186698109Y-97754897D01*
X187199132Y-101319862D02*
X187268719Y-101814996D01*
X187268719Y-101814996D02*
X182812513Y-102441275D01*
%TO.C,S14*%
X223876685Y-91445901D02*
X223376685Y-91945901D01*
X223876685Y-95945901D02*
X223376685Y-95445901D01*
X226176685Y-95945901D02*
X223876685Y-95945901D01*
X226176685Y-95945901D02*
X227876685Y-97425901D01*
X226876685Y-91445901D02*
X223876685Y-91445901D01*
X227376685Y-91945901D02*
X226876685Y-91445901D01*
X227376685Y-91945901D02*
X227376685Y-92865901D01*
X227876685Y-98145901D02*
X227876685Y-97445901D01*
X227896685Y-93445901D02*
X227376685Y-92865901D01*
X227896685Y-93445901D02*
X232376685Y-93445901D01*
X232376685Y-93445901D02*
X232376685Y-94045901D01*
X232376685Y-97645901D02*
X232376685Y-98145901D01*
X232376685Y-98145901D02*
X227876685Y-98145901D01*
%TO.C,S17*%
X241876685Y-91445901D02*
X241376685Y-91945901D01*
X241876685Y-95945901D02*
X241376685Y-95445901D01*
X244176685Y-95945901D02*
X241876685Y-95945901D01*
X244176685Y-95945901D02*
X245876685Y-97425901D01*
X244876685Y-91445901D02*
X241876685Y-91445901D01*
X245376685Y-91945901D02*
X244876685Y-91445901D01*
X245376685Y-91945901D02*
X245376685Y-92865901D01*
X245876685Y-98145901D02*
X245876685Y-97445901D01*
X245896685Y-93445901D02*
X245376685Y-92865901D01*
X245896685Y-93445901D02*
X250376685Y-93445901D01*
X250376685Y-93445901D02*
X250376685Y-94045901D01*
X250376685Y-97645901D02*
X250376685Y-98145901D01*
X250376685Y-98145901D02*
X245876685Y-98145901D01*
%TO.C,S1*%
X146297881Y-142531110D02*
X145955069Y-143149560D01*
X147538249Y-146856788D02*
X146919800Y-146513976D01*
X149181666Y-141704198D02*
X146297881Y-142531110D01*
X149749151Y-146222822D02*
X147538249Y-146856788D01*
X149749151Y-146222822D02*
X151791239Y-147176906D01*
X149800116Y-142047010D02*
X149181666Y-141704198D01*
X149800116Y-142047010D02*
X150053702Y-142931371D01*
X150713428Y-143345571D02*
X150053702Y-142931371D01*
X150713428Y-143345571D02*
X155019880Y-142110716D01*
X151989698Y-147869014D02*
X151796752Y-147196131D01*
X155019880Y-142110716D02*
X155185263Y-142687473D01*
X156177557Y-146148015D02*
X156315376Y-146628646D01*
X156315376Y-146628646D02*
X151989698Y-147869014D01*
%TO.C,S18*%
X241876685Y-74445901D02*
X241376685Y-74945901D01*
X241876685Y-78945901D02*
X241376685Y-78445901D01*
X244176685Y-78945901D02*
X241876685Y-78945901D01*
X244176685Y-78945901D02*
X245876685Y-80425901D01*
X244876685Y-74445901D02*
X241876685Y-74445901D01*
X245376685Y-74945901D02*
X244876685Y-74445901D01*
X245376685Y-74945901D02*
X245376685Y-75865901D01*
X245876685Y-81145901D02*
X245876685Y-80445901D01*
X245896685Y-76445901D02*
X245376685Y-75865901D01*
X245896685Y-76445901D02*
X250376685Y-76445901D01*
X250376685Y-76445901D02*
X250376685Y-77045901D01*
X250376685Y-80645901D02*
X250376685Y-81145901D01*
X250376685Y-81145901D02*
X245876685Y-81145901D01*
%TO.C,S9*%
X175553037Y-79528613D02*
X175127490Y-80093335D01*
X176179316Y-83984821D02*
X175614596Y-83559273D01*
X178456933Y-83664723D02*
X176179316Y-83984821D01*
X178456933Y-83664723D02*
X180346365Y-84893725D01*
X178523842Y-79111095D02*
X175553037Y-79528613D01*
X179088562Y-79536643D02*
X178523842Y-79111095D01*
X179088562Y-79536643D02*
X179216603Y-80447689D01*
X179812261Y-80949675D02*
X179216603Y-80447689D01*
X179812261Y-80949675D02*
X184248662Y-80326179D01*
X180446570Y-85606718D02*
X180349148Y-84913530D01*
X184248662Y-80326179D02*
X184332166Y-80920340D01*
X184833189Y-84485305D02*
X184902776Y-84980439D01*
X184902776Y-84980439D02*
X180446570Y-85606718D01*
%TO.C,S5*%
X158914757Y-121228189D02*
X158571945Y-121846639D01*
X160155125Y-125553867D02*
X159536676Y-125211055D01*
X161798542Y-120401277D02*
X158914757Y-121228189D01*
X162366027Y-124919901D02*
X160155125Y-125553867D01*
X162366027Y-124919901D02*
X164408115Y-125873985D01*
X162416992Y-120744089D02*
X161798542Y-120401277D01*
X162416992Y-120744089D02*
X162670578Y-121628450D01*
X163330304Y-122042650D02*
X162670578Y-121628450D01*
X163330304Y-122042650D02*
X167636756Y-120807795D01*
X164606574Y-126566093D02*
X164413628Y-125893210D01*
X167636756Y-120807795D02*
X167802139Y-121384552D01*
X168794433Y-124845094D02*
X168932252Y-125325725D01*
X168932252Y-125325725D02*
X164606574Y-126566093D01*
%TO.C,S11*%
X200100749Y-86335225D02*
X199636845Y-86868886D01*
X200414653Y-90824264D02*
X199880993Y-90360360D01*
X202709050Y-90663824D02*
X200414653Y-90824264D01*
X202709050Y-90663824D02*
X204508149Y-92021633D01*
X203093441Y-86125956D02*
X200100749Y-86335225D01*
X203627101Y-86589860D02*
X203093441Y-86125956D01*
X203627101Y-86589860D02*
X203691277Y-87507619D01*
X204250469Y-88049933D02*
X203691277Y-87507619D01*
X204250469Y-88049933D02*
X208719556Y-87737424D01*
X204558373Y-92739879D02*
X204509544Y-92041584D01*
X208719556Y-87737424D02*
X208761410Y-88335962D01*
X209012533Y-91927193D02*
X209047412Y-92425975D01*
X209047412Y-92425975D02*
X204558373Y-92739879D01*
%TO.C,S24*%
X243962762Y-155729636D02*
X243619950Y-155111186D01*
X245203130Y-151403958D02*
X244584680Y-151746770D01*
X246173665Y-156363602D02*
X243962762Y-155729636D01*
X246173665Y-156363602D02*
X247399865Y-158254852D01*
X247201406Y-158946961D02*
X247394352Y-158274078D01*
X248086915Y-152230870D02*
X245203130Y-151403958D01*
X248429727Y-152849320D02*
X248086915Y-152230870D01*
X248429727Y-152849320D02*
X248176141Y-153733680D01*
X248516127Y-154434544D02*
X248176141Y-153733680D01*
X248516127Y-154434544D02*
X252822579Y-155669399D01*
X251527084Y-160187329D02*
X247201406Y-158946961D01*
X251664903Y-159706698D02*
X251527084Y-160187329D01*
X252822579Y-155669399D02*
X252657197Y-156246156D01*
%TO.C,S22*%
X268010553Y-143851414D02*
X267780342Y-143182832D01*
X269983223Y-139806841D02*
X269314641Y-140037053D01*
X270077779Y-144859668D02*
X268010553Y-143851414D01*
X270077779Y-144859668D02*
X270956940Y-146935114D01*
X270641313Y-147582246D02*
X270948173Y-146953090D01*
X272679605Y-141121955D02*
X269983223Y-139806841D01*
X272719633Y-143366681D02*
X272506515Y-142617429D01*
X272719633Y-143366681D02*
X276746230Y-145330584D01*
X272909817Y-141790537D02*
X272506515Y-142617429D01*
X272909817Y-141790537D02*
X272679605Y-141121955D01*
X274685886Y-149554916D02*
X270641313Y-147582246D01*
X274905072Y-149105519D02*
X274685886Y-149554916D01*
X276746230Y-145330584D02*
X276483208Y-145869860D01*
%TO.C,S20*%
X227849428Y-133009010D02*
X227404432Y-132459485D01*
X228319807Y-128533662D02*
X227770281Y-128978658D01*
X230136829Y-133249426D02*
X227849428Y-133009010D01*
X230136829Y-133249426D02*
X231672814Y-134899017D01*
X231303372Y-128847247D02*
X228319807Y-128533662D01*
X231597553Y-135615072D02*
X231670723Y-134918907D01*
X231748369Y-129396772D02*
X231303372Y-128847247D01*
X231748369Y-129396772D02*
X231652203Y-130311732D01*
X232108728Y-130942910D02*
X231652203Y-130311732D01*
X232108728Y-130942910D02*
X236564186Y-131411196D01*
X236072902Y-136085450D02*
X231597553Y-135615072D01*
X236125166Y-135588189D02*
X236072902Y-136085450D01*
X236564186Y-131411196D02*
X236501469Y-132007911D01*
%TO.C,S16*%
X241876685Y-108445901D02*
X241376685Y-108945901D01*
X241876685Y-112945901D02*
X241376685Y-112445901D01*
X244176685Y-112945901D02*
X241876685Y-112945901D01*
X244176685Y-112945901D02*
X245876685Y-114425901D01*
X244876685Y-108445901D02*
X241876685Y-108445901D01*
X245376685Y-108945901D02*
X244876685Y-108445901D01*
X245376685Y-108945901D02*
X245376685Y-109865901D01*
X245876685Y-115145901D02*
X245876685Y-114445901D01*
X245896685Y-110445901D02*
X245376685Y-109865901D01*
X245896685Y-110445901D02*
X250376685Y-110445901D01*
X250376685Y-110445901D02*
X250376685Y-111045901D01*
X250376685Y-114645901D02*
X250376685Y-115145901D01*
X250376685Y-115145901D02*
X245876685Y-115145901D01*
%TO.C,S23*%
X223407905Y-152065255D02*
X222962909Y-151515730D01*
X223878284Y-147589907D02*
X223328758Y-148034903D01*
X225695306Y-152305671D02*
X223407905Y-152065255D01*
X225695306Y-152305671D02*
X227231291Y-153955262D01*
X226861849Y-147903492D02*
X223878284Y-147589907D01*
X227156030Y-154671317D02*
X227229200Y-153975152D01*
X227306846Y-148453017D02*
X226861849Y-147903492D01*
X227306846Y-148453017D02*
X227210680Y-149367977D01*
X227667205Y-149999155D02*
X227210680Y-149367977D01*
X227667205Y-149999155D02*
X232122663Y-150467441D01*
X231631379Y-155141695D02*
X227156030Y-154671317D01*
X231683643Y-154644434D02*
X231631379Y-155141695D01*
X232122663Y-150467441D02*
X232059946Y-151064156D01*
%TO.C,S19*%
X206656630Y-128480574D02*
X206192726Y-129014235D01*
X206970534Y-132969613D02*
X206436874Y-132505709D01*
X209264931Y-132809173D02*
X206970534Y-132969613D01*
X209264931Y-132809173D02*
X211064030Y-134166982D01*
X209649322Y-128271305D02*
X206656630Y-128480574D01*
X210182982Y-128735209D02*
X209649322Y-128271305D01*
X210182982Y-128735209D02*
X210247158Y-129652968D01*
X210806350Y-130195282D02*
X210247158Y-129652968D01*
X210806350Y-130195282D02*
X215275437Y-129882773D01*
X211114254Y-134885228D02*
X211065425Y-134186933D01*
X215275437Y-129882773D02*
X215317291Y-130481311D01*
X215568414Y-134072542D02*
X215603293Y-134571324D01*
X215603293Y-134571324D02*
X211114254Y-134885228D01*
%TO.C,S13*%
X223876685Y-108445901D02*
X223376685Y-108945901D01*
X223876685Y-112945901D02*
X223376685Y-112445901D01*
X226176685Y-112945901D02*
X223876685Y-112945901D01*
X226176685Y-112945901D02*
X227876685Y-114425901D01*
X226876685Y-108445901D02*
X223876685Y-108445901D01*
X227376685Y-108945901D02*
X226876685Y-108445901D01*
X227376685Y-108945901D02*
X227376685Y-109865901D01*
X227876685Y-115145901D02*
X227876685Y-114445901D01*
X227896685Y-110445901D02*
X227376685Y-109865901D01*
X227896685Y-110445901D02*
X232376685Y-110445901D01*
X232376685Y-110445901D02*
X232376685Y-111045901D01*
X232376685Y-114645901D02*
X232376685Y-115145901D01*
X232376685Y-115145901D02*
X227876685Y-115145901D01*
%TO.C,S7*%
X180284923Y-113197727D02*
X179859376Y-113762449D01*
X180911202Y-117653935D02*
X180346482Y-117228387D01*
X183188819Y-117333837D02*
X180911202Y-117653935D01*
X183188819Y-117333837D02*
X185078251Y-118562839D01*
X183255728Y-112780209D02*
X180284923Y-113197727D01*
X183820448Y-113205757D02*
X183255728Y-112780209D01*
X183820448Y-113205757D02*
X183948489Y-114116803D01*
X184544147Y-114618789D02*
X183948489Y-114116803D01*
X184544147Y-114618789D02*
X188980548Y-113995293D01*
X185178456Y-119275832D02*
X185081034Y-118582644D01*
X188980548Y-113995293D02*
X189064052Y-114589454D01*
X189565075Y-118154419D02*
X189634662Y-118649553D01*
X189634662Y-118649553D02*
X185178456Y-119275832D01*
%TO.C,S12*%
X198914889Y-69376636D02*
X198450985Y-69910297D01*
X199228793Y-73865675D02*
X198695133Y-73401771D01*
X201523190Y-73705235D02*
X199228793Y-73865675D01*
X201523190Y-73705235D02*
X203322289Y-75063044D01*
X201907581Y-69167367D02*
X198914889Y-69376636D01*
X202441241Y-69631271D02*
X201907581Y-69167367D01*
X202441241Y-69631271D02*
X202505417Y-70549030D01*
X203064609Y-71091344D02*
X202505417Y-70549030D01*
X203064609Y-71091344D02*
X207533696Y-70778835D01*
X203372513Y-75781290D02*
X203323684Y-75082995D01*
X207533696Y-70778835D02*
X207575550Y-71377373D01*
X207826673Y-74968604D02*
X207861552Y-75467386D01*
X207861552Y-75467386D02*
X203372513Y-75781290D01*
%TD*%
M02*
