M48
; DRILL file {KiCad 9.0.7-9.0.7~ubuntu24.04.1} date 2026-03-11T21:20:44-0400
; FORMAT={-:-/ absolute / metric / decimal}
; #@! TF.CreationDate,2026-03-11T21:20:44-04:00
; #@! TF.GenerationSoftware,Kicad,Pcbnew,9.0.7-9.0.7~ubuntu24.04.1
; #@! TF.FileFunction,NonPlated,1,2,NPTH
FMAT,2
METRIC
; #@! TA.AperFunction,NonPlated,NPTH,ComponentDrill
T1C0.900
; #@! TA.AperFunction,NonPlated,NPTH,ComponentDrill
T2C1.900
; #@! TA.AperFunction,NonPlated,NPTH,ComponentDrill
T3C3.000
; #@! TA.AperFunction,NonPlated,NPTH,ComponentDrill
T4C5.000
%
G90
G05
T1
X281.202Y-120.246
X281.202Y-123.246
T2
X135.341Y-118.833
X140.027Y-135.175
X144.713Y-151.516
X145.915Y-115.801
X150.601Y-132.143
X152.644Y-113.872
X155.287Y-148.484
X157.33Y-130.213
X162.016Y-146.555
X163.218Y-110.84
X167.904Y-127.181
X172.59Y-143.523
X172.733Y-88.206
X175.099Y-105.04
X177.465Y-121.875
X183.626Y-86.675
X185.992Y-103.509
X188.358Y-120.344
X195.497Y-77.836
X196.682Y-94.794
X197.868Y-111.753
X203.238Y-136.94
X206.47Y-77.068
X207.656Y-94.027
X208.842Y-110.986
X214.212Y-136.172
X219.043Y-155.327
X219.877Y-82.646
X219.877Y-99.646
X219.877Y-116.646
X223.485Y-136.271
X229.983Y-156.477
X230.877Y-82.646
X230.877Y-99.646
X230.877Y-116.646
X234.424Y-137.42
X237.877Y-82.646
X237.877Y-99.646
X237.877Y-116.646
X239.098Y-158.184
X243.539Y-139.128
X248.877Y-82.646
X248.877Y-99.646
X248.877Y-116.646
X249.672Y-161.216
X254.113Y-142.16
X262.793Y-145.423
X272.68Y-150.246
T3
X134.788Y-115.091
X138.988Y-111.598
X139.474Y-131.432
X143.674Y-127.939
X144.16Y-147.773
X144.401Y-112.334
X148.36Y-144.28
X149.087Y-128.676
X152.091Y-110.129
X153.773Y-145.017
X156.291Y-106.636
X156.777Y-126.471
X160.977Y-122.978
X161.463Y-142.812
X161.704Y-107.373
X165.663Y-139.319
X166.39Y-123.714
X171.075Y-140.056
X172.706Y-84.422
X175.072Y-101.257
X177.352Y-81.548
X177.438Y-118.092
X179.718Y-98.383
X182.083Y-115.217
X182.609Y-83.031
X184.975Y-99.865
X187.341Y-116.7
X195.734Y-74.06
X196.92Y-91.019
X198.106Y-107.977
X200.568Y-71.517
X201.754Y-88.475
X202.94Y-105.434
X203.476Y-133.164
X205.709Y-73.362
X206.895Y-90.321
X208.081Y-107.28
X208.31Y-130.62
X213.451Y-132.466
X219.932Y-151.65
X220.377Y-78.896
X220.377Y-95.896
X220.377Y-112.896
X224.374Y-132.593
X225.135Y-149.984
X225.377Y-76.696
X225.377Y-93.696
X225.377Y-110.696
X229.576Y-130.928
X229.878Y-152.695
X230.377Y-78.896
X230.377Y-95.896
X230.377Y-112.896
X234.319Y-133.639
X238.377Y-78.896
X238.377Y-95.896
X238.377Y-112.896
X240.612Y-154.717
X243.377Y-76.696
X243.377Y-93.696
X243.377Y-110.696
X245.054Y-135.661
X246.025Y-153.98
X248.377Y-78.896
X248.377Y-95.896
X248.377Y-112.896
X250.225Y-157.473
X250.466Y-134.924
X254.666Y-138.417
X264.887Y-142.272
X270.345Y-142.487
X273.875Y-146.656
T4
X140.628Y-117.317
X145.314Y-133.659
X150.0Y-150.0
X157.931Y-112.356
X162.617Y-128.697
X167.303Y-145.039
X178.18Y-87.44
X180.546Y-104.275
X182.912Y-121.109
X200.983Y-77.452
X202.169Y-94.411
X203.355Y-111.369
X208.725Y-136.556
X224.513Y-155.902
X225.377Y-82.646
X225.377Y-99.646
X225.377Y-116.646
X228.954Y-136.846
X243.377Y-82.646
X243.377Y-99.646
X243.377Y-116.646
X244.385Y-159.7
X248.826Y-140.644
X267.737Y-147.835
M30
