%TF.GenerationSoftware,KiCad,Pcbnew,9.0.7-9.0.7~ubuntu24.04.1*%
%TF.CreationDate,2026-03-11T21:20:09-04:00*%
%TF.ProjectId,board,626f6172-642e-46b6-9963-61645f706362,v1.0.0*%
%TF.SameCoordinates,Original*%
%TF.FileFunction,Paste,Bot*%
%TF.FilePolarity,Positive*%
%FSLAX46Y46*%
G04 Gerber Fmt 4.6, Leading zero omitted, Abs format (unit mm)*
G04 Created by KiCad (PCBNEW 9.0.7-9.0.7~ubuntu24.04.1) date 2026-03-11 21:20:09*
%MOMM*%
%LPD*%
G01*
G04 APERTURE LIST*
G04 Aperture macros list*
%AMRotRect*
0 Rectangle, with rotation*
0 The origin of the aperture is its center*
0 $1 length*
0 $2 width*
0 $3 Rotation angle, in degrees counterclockwise*
0 Add horizontal line*
21,1,$1,$2,0,0,$3*%
%AMOutline5P*
0 Free polygon, 5 corners , with rotation*
0 The origin of the aperture is its center*
0 number of corners: always 5*
0 $1 to $10 corner X, Y*
0 $11 Rotation angle, in degrees counterclockwise*
0 create outline with 5 corners*
4,1,5,$1,$2,$3,$4,$5,$6,$7,$8,$9,$10,$1,$2,$11*%
%AMOutline6P*
0 Free polygon, 6 corners , with rotation*
0 The origin of the aperture is its center*
0 number of corners: always 6*
0 $1 to $12 corner X, Y*
0 $13 Rotation angle, in degrees counterclockwise*
0 create outline with 6 corners*
4,1,6,$1,$2,$3,$4,$5,$6,$7,$8,$9,$10,$11,$12,$1,$2,$13*%
%AMOutline7P*
0 Free polygon, 7 corners , with rotation*
0 The origin of the aperture is its center*
0 number of corners: always 7*
0 $1 to $14 corner X, Y*
0 $15 Rotation angle, in degrees counterclockwise*
0 create outline with 7 corners*
4,1,7,$1,$2,$3,$4,$5,$6,$7,$8,$9,$10,$11,$12,$13,$14,$1,$2,$15*%
%AMOutline8P*
0 Free polygon, 8 corners , with rotation*
0 The origin of the aperture is its center*
0 number of corners: always 8*
0 $1 to $16 corner X, Y*
0 $17 Rotation angle, in degrees counterclockwise*
0 create outline with 8 corners*
4,1,8,$1,$2,$3,$4,$5,$6,$7,$8,$9,$10,$11,$12,$13,$14,$15,$16,$1,$2,$17*%
%AMFreePoly0*
4,1,6,0.250000,0.000000,-0.250000,-0.625000,-0.500000,-0.625000,-0.500000,0.625000,-0.250000,0.625000,0.250000,0.000000,0.250000,0.000000,$1*%
%AMFreePoly1*
4,1,6,0.500000,-0.625000,-0.650000,-0.625000,-0.150000,0.000000,-0.650000,0.625000,0.500000,0.625000,0.500000,-0.625000,0.500000,-0.625000,$1*%
G04 Aperture macros list end*
%ADD10RotRect,0.900000X1.200000X106.000000*%
%ADD11RotRect,0.900000X1.200000X64.000000*%
%ADD12R,1.200000X0.900000*%
%ADD13RotRect,0.900000X1.200000X94.000000*%
%ADD14R,0.800000X1.000000*%
%ADD15R,1.500000X0.700000*%
%ADD16RotRect,0.900000X1.200000X84.000000*%
%ADD17R,1.000000X0.900000*%
%ADD18FreePoly0,180.000000*%
%ADD19FreePoly0,0.000000*%
%ADD20FreePoly1,0.000000*%
%ADD21FreePoly1,180.000000*%
%ADD22R,1.000000X1.550000*%
%ADD23RotRect,0.900000X1.200000X74.000000*%
%ADD24RotRect,0.900000X1.200000X98.000000*%
%ADD25R,1.200000X0.600000*%
%ADD26Outline5P,-1.300000X1.300000X1.300000X1.300000X1.300000X-1.300000X-0.117000X-1.300000X-1.300000X-0.117000X16.000000*%
%ADD27RotRect,2.600000X2.600000X16.000000*%
%ADD28Outline5P,-1.300000X1.300000X1.300000X1.300000X1.300000X-1.300000X-0.117000X-1.300000X-1.300000X-0.117000X0.000000*%
%ADD29R,2.600000X2.600000*%
%ADD30Outline5P,-1.300000X1.300000X1.300000X1.300000X1.300000X-1.300000X-0.117000X-1.300000X-1.300000X-0.117000X344.000000*%
%ADD31RotRect,2.600000X2.600000X344.000000*%
%ADD32Outline5P,-1.300000X1.300000X1.300000X1.300000X1.300000X-1.300000X-0.117000X-1.300000X-1.300000X-0.117000X4.000000*%
%ADD33RotRect,2.600000X2.600000X4.000000*%
%ADD34Outline5P,-1.300000X1.300000X1.300000X1.300000X1.300000X-1.300000X-0.117000X-1.300000X-1.300000X-0.117000X8.000000*%
%ADD35RotRect,2.600000X2.600000X8.000000*%
%ADD36Outline5P,-1.300000X1.300000X1.300000X1.300000X1.300000X-1.300000X-0.117000X-1.300000X-1.300000X-0.117000X334.000000*%
%ADD37RotRect,2.600000X2.600000X334.000000*%
%ADD38Outline5P,-1.300000X1.300000X1.300000X1.300000X1.300000X-1.300000X-0.117000X-1.300000X-1.300000X-0.117000X354.000000*%
%ADD39RotRect,2.600000X2.600000X354.000000*%
G04 APERTURE END LIST*
D10*
%TO.C,D1*%
X143602911Y-157712028D03*
X142693307Y-154539864D03*
%TD*%
D11*
%TO.C,D22*%
X257822454Y-149285173D03*
X259269078Y-146319153D03*
%TD*%
D10*
%TO.C,D5*%
X156219786Y-136409107D03*
X155310182Y-133236943D03*
%TD*%
D12*
%TO.C,D16*%
X235101685Y-122295901D03*
X235101685Y-118995901D03*
%TD*%
D13*
%TO.C,D11*%
X194308379Y-100624088D03*
X194078183Y-97332126D03*
%TD*%
D10*
%TO.C,D4*%
X160905621Y-152750556D03*
X159996017Y-149578392D03*
%TD*%
D14*
%TO.C,PWR1*%
X280091685Y-118095901D03*
X280091685Y-125395901D03*
X282301685Y-118095901D03*
X282301685Y-125395901D03*
D15*
X279441685Y-119495901D03*
X279441685Y-122495901D03*
X279441685Y-123995901D03*
%TD*%
D16*
%TO.C,D20*%
X220134201Y-141599609D03*
X220479145Y-138317687D03*
%TD*%
D17*
%TO.C,JST1*%
X263176685Y-120745901D03*
X263176685Y-122745901D03*
X261576685Y-122745901D03*
X261576685Y-120745901D03*
%TD*%
D18*
%TO.C,MCU1*%
X274076685Y-78445901D03*
X274076685Y-80985901D03*
X274076685Y-83525901D03*
X274076685Y-86065901D03*
X274076685Y-88605901D03*
X274076685Y-91145901D03*
X274076685Y-93685901D03*
X274076685Y-96225901D03*
X274076685Y-98765901D03*
X274076685Y-101305901D03*
X274076685Y-103845901D03*
X274076685Y-106385901D03*
D19*
X263076685Y-106385901D03*
X263076685Y-103845901D03*
X263076685Y-101305901D03*
X263076685Y-98765901D03*
X263076685Y-96225901D03*
X263076685Y-93685901D03*
X263076685Y-91145901D03*
X263076685Y-88605901D03*
X263076685Y-86065901D03*
X263076685Y-83525901D03*
X263076685Y-80985901D03*
X263076685Y-78445901D03*
D20*
X263801685Y-78445901D03*
X263801685Y-80985901D03*
X263801685Y-83525901D03*
X263801685Y-86065901D03*
X263801685Y-88605901D03*
X263801685Y-91145901D03*
X263801685Y-93685901D03*
X263801685Y-96225901D03*
X263801685Y-98765901D03*
X263801685Y-101305901D03*
X263801685Y-103845901D03*
X263801685Y-106385901D03*
D21*
X273351685Y-106385901D03*
X273351685Y-103845901D03*
X273351685Y-101305901D03*
X273351685Y-98765901D03*
X273351685Y-96225901D03*
X273351685Y-93685901D03*
X273351685Y-91145901D03*
X273351685Y-88605901D03*
X273351685Y-86065901D03*
X273351685Y-83525901D03*
X273351685Y-80985901D03*
X273351685Y-78445901D03*
%TD*%
D12*
%TO.C,D17*%
X235101685Y-105295901D03*
X235101685Y-101995901D03*
%TD*%
D22*
%TO.C,RST1*%
X282026685Y-129320901D03*
X280326685Y-129320901D03*
X282026685Y-134570901D03*
X280326685Y-134570901D03*
%TD*%
D23*
%TO.C,D21*%
X239314527Y-143793744D03*
X240224131Y-140621580D03*
%TD*%
D12*
%TO.C,D14*%
X217101685Y-105295901D03*
X217101685Y-101995901D03*
%TD*%
D10*
%TO.C,D2*%
X138917076Y-141370579D03*
X138007472Y-138198415D03*
%TD*%
D12*
%TO.C,D13*%
X217101685Y-122295901D03*
X217101685Y-118995901D03*
%TD*%
%TO.C,D18*%
X235101685Y-88295901D03*
X235101685Y-84995901D03*
%TD*%
D24*
%TO.C,D8*%
X173137462Y-111021282D03*
X172678190Y-107753398D03*
%TD*%
D13*
%TO.C,D12*%
X193122519Y-83665499D03*
X192892323Y-80373537D03*
%TD*%
%TO.C,D19*%
X200864260Y-142769437D03*
X200634064Y-139477475D03*
%TD*%
D12*
%TO.C,D15*%
X217101685Y-88295901D03*
X217101685Y-84995901D03*
%TD*%
D25*
%TO.C,DISP1*%
X273656685Y-110090901D03*
X271116685Y-110090901D03*
X266036685Y-110090901D03*
X263496685Y-110090901D03*
X273656685Y-109190901D03*
X271116685Y-109190901D03*
X266036685Y-109190901D03*
X263496685Y-109190901D03*
%TD*%
D10*
%TO.C,D3*%
X134231241Y-125029130D03*
X133321637Y-121856966D03*
%TD*%
D13*
%TO.C,D10*%
X195494239Y-117582677D03*
X195264043Y-114290715D03*
%TD*%
D10*
%TO.C,D6*%
X151533951Y-120067658D03*
X150624347Y-116895494D03*
%TD*%
D23*
%TO.C,D24*%
X234873004Y-162849989D03*
X235782608Y-159677825D03*
%TD*%
D24*
%TO.C,D7*%
X175503405Y-127855839D03*
X175044133Y-124587955D03*
%TD*%
D16*
%TO.C,D23*%
X215692678Y-160655854D03*
X216037622Y-157373932D03*
%TD*%
D24*
%TO.C,D9*%
X170771519Y-94186724D03*
X170312247Y-90918840D03*
%TD*%
D26*
%TO.C,S4*%
X162514537Y-140221733D03*
D27*
X174223510Y-139152898D03*
%TD*%
D28*
%TO.C,S15*%
X222101685Y-76695901D03*
D29*
X233651685Y-78895901D03*
%TD*%
D26*
%TO.C,S3*%
X135840156Y-112500307D03*
D27*
X147549129Y-111431472D03*
%TD*%
D26*
%TO.C,S2*%
X140525991Y-128841756D03*
D27*
X152234964Y-127772921D03*
%TD*%
D30*
%TO.C,S21*%
X247318229Y-134021296D03*
D31*
X257814400Y-139319683D03*
%TD*%
D32*
%TO.C,S10*%
X199672885Y-105662151D03*
D33*
X211348214Y-107051105D03*
%TD*%
D26*
%TO.C,S6*%
X153142867Y-107538835D03*
D27*
X164851840Y-106470000D03*
%TD*%
D34*
%TO.C,S8*%
X176474394Y-98838307D03*
D35*
X188218171Y-99409447D03*
%TD*%
D28*
%TO.C,S14*%
X222101685Y-93695901D03*
D29*
X233651685Y-95895901D03*
%TD*%
D28*
%TO.C,S17*%
X240101685Y-93695901D03*
D29*
X251651685Y-95895901D03*
%TD*%
D26*
%TO.C,S1*%
X145211826Y-145183205D03*
D27*
X156920799Y-144114370D03*
%TD*%
D28*
%TO.C,S18*%
X240101685Y-76695901D03*
D29*
X251651685Y-78895901D03*
%TD*%
D34*
%TO.C,S9*%
X174108451Y-82003750D03*
D35*
X185852228Y-82574890D03*
%TD*%
D26*
%TO.C,S5*%
X157828702Y-123880284D03*
D27*
X169537675Y-122811449D03*
%TD*%
D32*
%TO.C,S11*%
X198487025Y-88703562D03*
D33*
X210162354Y-90092516D03*
%TD*%
D30*
%TO.C,S24*%
X242876706Y-153077541D03*
D31*
X253372877Y-158375928D03*
%TD*%
D36*
%TO.C,S22*%
X267401529Y-141051019D03*
D37*
X276818184Y-148091553D03*
%TD*%
D38*
%TO.C,S20*%
X226319341Y-130585798D03*
D39*
X237576106Y-133981050D03*
%TD*%
D28*
%TO.C,S16*%
X240101685Y-110695901D03*
D29*
X251651685Y-112895901D03*
%TD*%
D38*
%TO.C,S23*%
X221877818Y-149642043D03*
D39*
X233134583Y-153037295D03*
%TD*%
D32*
%TO.C,S19*%
X205042906Y-130848911D03*
D33*
X216718235Y-132237865D03*
%TD*%
D28*
%TO.C,S13*%
X222101685Y-110695901D03*
D29*
X233651685Y-112895901D03*
%TD*%
D34*
%TO.C,S7*%
X178840337Y-115672864D03*
D35*
X190584114Y-116244004D03*
%TD*%
D32*
%TO.C,S12*%
X197301165Y-71744973D03*
D33*
X208976494Y-73133927D03*
%TD*%
M02*
