M48
; DRILL file {KiCad 9.0.7-9.0.7~ubuntu24.04.1} date 2026-03-11T21:20:44-0400
; FORMAT={-:-/ absolute / metric / decimal}
; #@! TF.CreationDate,2026-03-11T21:20:44-04:00
; #@! TF.GenerationSoftware,Kicad,Pcbnew,9.0.7-9.0.7~ubuntu24.04.1
; #@! TF.FileFunction,Plated,1,2,PTH
FMAT,2
METRIC
; #@! TA.AperFunction,Plated,PTH,ViaDrill
T1C0.300
; #@! TA.AperFunction,Plated,PTH,ViaDrill
T2C0.400
; #@! TA.AperFunction,Plated,PTH,ComponentDrill
T3C0.400
; #@! TA.AperFunction,Plated,PTH,ComponentDrill
T4C0.750
; #@! TA.AperFunction,Plated,PTH,ComponentDrill
T5C1.000
; #@! TA.AperFunction,Plated,PTH,ComponentDrill
T6C1.600
; #@! TA.AperFunction,Plated,PTH,ComponentDrill
T7C2.200
%
G90
G05
T1
X132.991Y-120.703
X134.562Y-126.183
X137.677Y-137.045
X139.248Y-142.524
X139.56Y-113.592
X139.781Y-114.361
X142.363Y-153.386
X143.934Y-158.866
X144.246Y-129.934
X144.467Y-130.703
X148.932Y-146.275
X149.152Y-147.044
X150.294Y-115.742
X151.865Y-121.221
X154.979Y-132.083
X156.551Y-137.563
X156.863Y-108.631
X157.083Y-109.4
X159.665Y-148.425
X161.236Y-153.904
X161.549Y-124.972
X161.769Y-125.741
X166.235Y-141.314
X166.455Y-142.083
X170.145Y-89.731
X170.939Y-95.375
X172.511Y-106.565
X173.304Y-112.21
X174.877Y-123.4
X175.67Y-129.044
X177.64Y-83.603
X177.752Y-84.395
X180.006Y-100.437
X180.118Y-101.23
X182.372Y-117.272
X182.484Y-118.064
X192.809Y-79.176
X193.206Y-84.863
X193.994Y-96.135
X194.392Y-101.821
X195.18Y-113.094
X195.578Y-118.78
X200.55Y-138.28
X200.713Y-73.586
X200.769Y-74.385
X200.948Y-143.967
X201.899Y-90.545
X201.955Y-91.343
X203.085Y-107.504
X203.14Y-108.302
X208.455Y-132.69
X208.51Y-133.488
X215.567Y-161.849
X216.163Y-156.181
X217.102Y-83.796
X217.102Y-89.496
X217.102Y-100.796
X217.102Y-106.496
X217.102Y-117.796
X217.102Y-123.496
X220.009Y-142.793
X220.605Y-137.124
X224.834Y-152.844
X224.918Y-152.048
X225.377Y-78.771
X225.377Y-79.571
X225.377Y-95.771
X225.377Y-96.571
X225.377Y-112.771
X225.377Y-113.571
X229.276Y-133.787
X229.36Y-132.992
X234.542Y-164.004
X235.102Y-83.796
X235.102Y-89.496
X235.102Y-100.796
X235.102Y-106.496
X235.102Y-117.796
X235.102Y-123.496
X236.113Y-158.524
X238.984Y-144.947
X240.555Y-139.468
X243.377Y-78.771
X243.377Y-79.571
X243.377Y-95.771
X243.377Y-96.571
X243.377Y-112.771
X243.377Y-113.571
X245.232Y-156.744
X245.453Y-155.975
X249.674Y-137.688
X249.894Y-136.919
X257.296Y-150.364
X259.795Y-145.241
X269.085Y-145.071
X269.435Y-144.352
T2
X162.0Y-97.5
X168.5Y-115.5
X172.5Y-131.5
X178.5Y-144.0
X188.5Y-93.0
X190.5Y-109.0
X198.5Y-123.5
X209.0Y-87.0
X212.5Y-151.5
X213.0Y-113.5
X216.5Y-91.5
X217.0Y-138.5
X233.5Y-148.0
X236.0Y-139.5
X243.5Y-121.5
X243.5Y-165.5
X245.5Y-104.0
X248.0Y-145.0
X249.0Y-128.5
X252.0Y-124.0
X252.5Y-84.5
X252.5Y-91.972
X253.0Y-124.951
X253.5Y-132.0
X257.5Y-101.0
X257.5Y-112.0
X264.5Y-155.5
X265.0Y-74.0
X265.0Y-121.746
X267.273Y-113.408
X269.0Y-116.5
X269.463Y-107.537
X270.0Y-106.5
X271.0Y-135.0
X271.5Y-114.5
X272.5Y-74.0
X274.5Y-122.0
X277.0Y-109.5
X277.0Y-121.0
X277.0Y-124.0
X279.5Y-81.0
X279.5Y-95.0
X280.325Y-132.006
T3
X265.177Y-78.446
X265.177Y-80.986
X265.177Y-83.526
X265.177Y-86.066
X265.177Y-88.606
X265.177Y-91.146
X265.177Y-93.686
X265.177Y-96.226
X265.177Y-98.766
X265.177Y-101.306
X265.177Y-103.846
X265.177Y-106.386
X271.977Y-78.446
X271.977Y-80.986
X271.977Y-83.526
X271.977Y-86.066
X271.977Y-88.606
X271.977Y-91.146
X271.977Y-93.686
X271.977Y-96.226
X271.977Y-98.766
X271.977Y-101.306
X271.977Y-103.846
X271.977Y-106.386
T4
X259.577Y-120.746
X259.577Y-122.746
T5
X260.957Y-78.446
X260.957Y-80.986
X260.957Y-83.526
X260.957Y-86.066
X260.957Y-88.606
X260.957Y-91.146
X260.957Y-93.686
X260.957Y-96.226
X260.957Y-98.766
X260.957Y-101.306
X260.957Y-103.846
X260.957Y-106.386
X263.497Y-111.841
X266.037Y-111.841
X268.577Y-111.841
X271.117Y-111.841
X273.657Y-111.841
X276.197Y-78.446
X276.197Y-80.986
X276.197Y-83.526
X276.197Y-86.066
X276.197Y-88.606
X276.197Y-91.146
X276.197Y-93.686
X276.197Y-96.226
X276.197Y-98.766
X276.197Y-101.306
X276.197Y-103.846
X276.197Y-106.386
T6
X137.242Y-123.646
X141.927Y-139.987
X146.613Y-156.329
X146.854Y-120.889
X151.54Y-137.231
X154.544Y-118.684
X156.226Y-153.572
X159.23Y-135.026
X163.916Y-151.367
X164.157Y-115.928
X168.843Y-132.269
X173.529Y-148.611
X173.945Y-93.236
X176.311Y-110.07
X178.677Y-126.905
X183.848Y-91.844
X186.214Y-108.679
X188.58Y-125.513
X196.355Y-82.938
X197.541Y-99.897
X198.726Y-116.855
X204.096Y-142.042
X206.33Y-82.241
X207.516Y-99.199
X208.702Y-116.158
X214.072Y-141.345
X219.002Y-160.501
X220.377Y-87.796
X220.377Y-104.796
X220.377Y-121.796
X223.444Y-141.445
X228.947Y-161.546
X230.377Y-87.796
X230.377Y-104.796
X230.377Y-121.796
X233.389Y-142.49
X238.159Y-163.272
X238.377Y-87.796
X238.377Y-104.796
X238.377Y-121.796
X242.6Y-144.216
X247.772Y-166.028
X248.377Y-87.796
X248.377Y-104.796
X248.377Y-121.796
X252.213Y-146.972
X260.985Y-150.271
X269.973Y-154.655
T7
X154.182Y-99.282
X185.751Y-141.311
X214.874Y-69.664
X260.284Y-163.114
X280.637Y-75.336
M30
